<mxfile host="app.diagrams.net" modified="2021-07-02T13:55:51.362Z" agent="5.0 (Macintosh; Intel Mac OS X 10_15_7) AppleWebKit/605.1.15 (KHTML, like Gecko) Version/14.1.1 Safari/605.1.15" etag="uCOmkfjUGowa9E-NVIEc" version="14.8.3" type="github">
  <diagram id="bTZJt1o0T5sxhTdyZIyC" name="Page-1">
    <mxGraphModel dx="2946" dy="1532" grid="0" gridSize="10" guides="1" tooltips="1" connect="1" arrows="1" fold="1" page="0" pageScale="1" pageWidth="1920" pageHeight="1200" math="0" shadow="0">
      <root>
        <mxCell id="0" />
        <mxCell id="1" parent="0" />
        <UserObject label="NVIDIA docker container official image" id="xUTtplGJXiZXMpH6DIID-1">
          <mxCell style="swimlane;align=left;spacingLeft=15;collapsible=0;strokeWidth=3;rounded=0;shadow=0;sketch=0;fillColor=#404040;fontStyle=1;fontSize=14;fontColor=#FFFFFF;labelBackgroundColor=none;swimlaneFillColor=#D6D6D6;backgroundOutline=0;container=0;strokeColor=#404040;" parent="1" vertex="1">
            <mxGeometry x="80" y="70" width="860" height="160" as="geometry">
              <mxRectangle x="110" y="90" width="90" height="23" as="alternateBounds" />
            </mxGeometry>
          </mxCell>
        </UserObject>
        <mxCell id="0oApK27776UIr2gymto0-2" value="" style="shape=image;verticalLabelPosition=bottom;labelBackgroundColor=#ffffff;verticalAlign=top;aspect=fixed;imageAspect=0;image=data:image/svg+xml,PHN2ZyB4bWxuczpzdmc9Imh0dHA6Ly93d3cudzMub3JnLzIwMDAvc3ZnIiB4bWxucz0iaHR0cDovL3d3dy53My5vcmcvMjAwMC9zdmciIHhtbG5zOnhsaW5rPSJodHRwOi8vd3d3LnczLm9yZy8xOTk5L3hsaW5rIiB2ZXJzaW9uPSIxLjEiIGlkPSJzdmcyIiB4PSIwcHgiIHk9IjBweCIgd2lkdGg9IjM1MS40NjAwMjE5NzI2NTYyNSIgaGVpZ2h0PSIyNTguNzg1MDAzNjYyMTA5NCIgdmlld0JveD0iMzUuMTg3OTk5NzI1MzQxOCAzMS41MTE5OTkxMzAyNDkwMjMgMzUxLjQ2MDAyMTk3MjY1NjI1IDI1OC43ODUwMDM2NjIxMDk0IiBlbmFibGUtYmFja2dyb3VuZD0ibmV3IDM1LjE4OCAzMS41MTIgMzUxLjQ2IDI1OC43ODUiIHhtbDpzcGFjZT0icHJlc2VydmUiPiYjeGE7PHRpdGxlIGlkPSJ0aXRsZTQiPmdlbmVyYXRlZCBieSBwc3RvZWRpdCB2ZXJzaW9uOjMuNDQgZnJvbSBOVkJhZGdlXzJELmVwczwvdGl0bGU+JiN4YTs8cGF0aCBpZD0icGF0aDE3IiBkPSJNMzg0LjE5NSwyODIuMTA5YzAsMy43NzEtMi43NjksNi4zMDItNi4wNDcsNi4zMDJ2LTAuMDIzYy0zLjM3MSwwLjAyMy02LjA4OS0yLjUwOC02LjA4OS02LjI3OCYjeGE7IGMwLTMuNzY5LDIuNzE4LTYuMjkzLDYuMDg5LTYuMjkzQzM4MS40MjcsMjc1LjgxNiwzODQuMTk1LDI3OC4zNCwzODQuMTk1LDI4Mi4xMDl6IE0zODYuNjQ4LDI4Mi4xMDljMC01LjE3NS00LjAyLTguMTc5LTguNS04LjE3OSYjeGE7IGMtNC41MTEsMC04LjUzMSwzLjAwNC04LjUzMSw4LjE3OWMwLDUuMTcyLDQuMDIxLDguMTg4LDguNTMxLDguMTg4QzM4Mi42MjksMjkwLjI5NywzODYuNjQ4LDI4Ny4yODEsMzg2LjY0OCwyODIuMTA5JiN4YTsgIE0zNzYuNzM4LDI4Mi44MDFoMC45MWwyLjEwOSwzLjcwM2gyLjMxNmwtMi4zMzYtMy44NTljMS4yMDctMC4wODYsMi4yLTAuNjYxLDIuMi0yLjI4NmMwLTIuMDE5LTEuMzkyLTIuNjY4LTMuNzUtMi42NjhoLTMuNDExJiN4YTsgdjguODEzaDEuOTYxVjI4Mi44MDEgTTM3Ni43MzgsMjgxLjMwOXYtMi4xMjJoMS4zNjRjMC43NDIsMCwxLjc1MywwLjA2LDEuNzUzLDAuOTY1YzAsMC45ODUtMC41MjMsMS4xNTctMS4zOTgsMS4xNTdIMzc2LjczOCIvPiYjeGE7PHBhdGggaWQ9InBhdGgxOSIgZD0iTTMyOS40MDYsMjM3LjAyN2wxMC41OTgsMjguOTkzSDMxOC40OEwzMjkuNDA2LDIzNy4wMjd6IE0zMTguMDU2LDIyNS43MzhsLTI0LjQyMyw2MS44OGgxNy4yNDZsMy44NjMtMTAuOTM0JiN4YTsgaDI4LjkwM2wzLjY1NiwxMC45MzRoMTguNzIybC0yNC42MDUtNjEuODg4TDMxOC4wNTYsMjI1LjczOHogTTI2OS4wMjMsMjg3LjY0MWgxNy40OTd2LTYxLjkyMmwtMTcuNS0wLjAwNEwyNjkuMDIzLDI4Ny42NDF6JiN4YTsgIE0xNDcuNTU2LDIyNS43MTVsLTE0LjU5OCw0OS4wNzhsLTEzLjk4NC00OS4wNzRsLTE4Ljg3OS0wLjAwNGwxOS45NzIsNjEuOTI2aDI1LjIwN2wyMC4xMzMtNjEuOTI2SDE0Ny41NTZ6IE0yMTguMjgxLDIzOS4xOTloNy41MiYjeGE7IGMxMC45MSwwLDE3Ljk2Niw0Ljg5OCwxNy45NjYsMTcuNjA5YzAsMTIuNzE0LTcuMDU2LDE3LjYxMy0xNy45NjYsMTcuNjEzaC03LjUyVjIzOS4xOTl6IE0yMDAuOTMxLDIyNS43MTV2NjEuOTI2aDI4LjM2NiYjeGE7IGMxNS4xMTMsMCwyMC4wNDgtMi41MTIsMjUuMzg0LTguMTQ4YzMuNzY5LTMuOTU3LDYuMjA3LTEyLjY0MSw2LjIwNy0yMi4xMzRjMC04LjcwNy0yLjA2My0xNi40NjgtNS42Ni0yMS4zMDQmI3hhOyBjLTYuNDgxLTguNjQ5LTE1LjgxNy0xMC4zNC0yOS43NS0xMC4zNEgyMDAuOTMxeiBNMzUuMTg4LDIyNS42Mjl2NjIuMDEyaDE3LjY0NXYtNDcuMDg2bDEzLjY3MiwwLjAwNCYjeGE7IGM0LjUyNywwLDcuNzU0LDEuMTI4LDkuOTM0LDMuNDU3YzIuNzY1LDIuOTQ1LDMuODk0LDcuNjk5LDMuODk0LDE2LjM5NXYyNy4yM2gxNy4wOTh2LTM0LjI2MmMwLTI0LjQ1My0xNS41ODYtMjcuNzUtMzAuODM2LTI3Ljc1JiN4YTsgSDM1LjE4OHogTTE3Mi43NzEsMjI1LjcxNWwwLjAwNyw2MS45MjZoMTcuNDg5di02MS45MjZIMTcyLjc3MXoiLz4mI3hhOzxwYXRoIGlkPSJwYXRoMjEiIGZpbGw9IiM3N0I5MDAiIGQ9Ik04Mi4yMTEsMTAyLjQxNGMwLDAsMjIuNTA0LTMzLjIwMyw2Ny40MzctMzYuNjM4VjUzLjczJiN4YTsgYy00OS43NjksMy45OTctOTIuODY3LDQ2LjE0OS05Mi44NjcsNDYuMTQ5czI0LjQxLDcwLjU2NSw5Mi44NjcsNzcuMDI2di0xMi44MDRDOTkuNDExLDE1Ny43ODEsODIuMjExLDEwMi40MTQsODIuMjExLDEwMi40MTR6JiN4YTsgIE0xNDkuNjQ4LDEzOC42Mzd2MTEuNzI2Yy0zNy45NjgtNi43NjktNDguNTA3LTQ2LjIzNy00OC41MDctNDYuMjM3czE4LjIzLTIwLjE5NSw0OC41MDctMjMuNDd2MTIuODY3JiN4YTsgYy0wLjAyMywwLTAuMDM5LTAuMDA3LTAuMDU4LTAuMDA3Yy0xNS44OTEtMS45MDctMjguMzA1LDEyLjkzOC0yOC4zMDUsMTIuOTM4UzEyOC4yNDMsMTMxLjQ0NSwxNDkuNjQ4LDEzOC42MzcgTTE0OS42NDgsMzEuNTEyJiN4YTsgVjUzLjczYzEuNDYxLTAuMTEyLDIuOTIyLTAuMjA3LDQuMzkxLTAuMjU3YzU2LjU4Mi0xLjkwNyw5My40NDksNDYuNDA2LDkzLjQ0OSw0Ni40MDZzLTQyLjM0Myw1MS40ODgtODYuNDU3LDUxLjQ4OCYjeGE7IGMtNC4wNDMsMC03LjgyOC0wLjM3NS0xMS4zODMtMS4wMDV2MTMuNzM5YzMuMDQsMC4zODYsNi4xOTIsMC42MTMsOS40ODEsMC42MTNjNDEuMDUxLDAsNzAuNzM4LTIwLjk2NSw5OS40ODQtNDUuNzc4JiN4YTsgYzQuNzY2LDMuODE3LDI0LjI3OCwxMy4xMDMsMjguMjg5LDE3LjE2OGMtMjcuMzMyLDIyLjg4My05MS4wMzEsNDEuMzI5LTEyNy4xNDQsNDEuMzI5Yy0zLjQ4MSwwLTYuODI0LTAuMjExLTEwLjExLTAuNTI4djE5LjMwNiYjeGE7IGgxNTYuMDMyVjMxLjUxMkgxNDkuNjQ4eiBNMTQ5LjY0OCw4MC42NTZWNjUuNzc3YzEuNDQ2LTAuMTAxLDIuOTAzLTAuMTc5LDQuMzkxLTAuMjI2YzQwLjY4OC0xLjI3OCw2Ny4zODIsMzQuOTY1LDY3LjM4MiwzNC45NjUmI3hhOyBzLTI4LjgzMiw0MC4wNDMtNTkuNzQ2LDQwLjA0M2MtNC40NDksMC04LjQzOC0wLjcxNS0xMi4wMjgtMS45MjJWOTMuNTIzYzE1Ljg0LDEuOTE0LDE5LjAyOCw4LjkxMSwyOC41NTEsMjQuNzg2bDIxLjE4LTE3Ljg1OSYjeGE7IGMwLDAtMTUuNDYxLTIwLjI3Ny00MS41MjQtMjAuMjc3QzE1NS4wMjEsODAuMTcyLDE1Mi4zMSw4MC4zNzEsMTQ5LjY0OCw4MC42NTYiLz4mI3hhOzwvc3ZnPg==;" parent="xUTtplGJXiZXMpH6DIID-1" vertex="1">
          <mxGeometry x="10" y="30" width="51.5" height="38" as="geometry" />
        </mxCell>
        <UserObject label="L4T-base:r32.5.0" link="https://ngc.nvidia.com/catalog/containers/nvidia:l4t-base" id="xUTtplGJXiZXMpH6DIID-22">
          <mxCell style="swimlane;fontStyle=0;childLayout=stackLayout;horizontal=1;startSize=26;horizontalStack=0;resizeParent=1;resizeParentMax=0;resizeLast=0;collapsible=0;marginBottom=0;fillColor=#1ba1e2;fontColor=#ffffff;strokeWidth=4;sketch=0;shadow=0;fontSize=13;swimlaneFillColor=none;rounded=0;strokeColor=#007BC4;" parent="xUTtplGJXiZXMpH6DIID-1" vertex="1">
            <mxGeometry x="250" y="60" width="358.69" height="52" as="geometry" />
          </mxCell>
        </UserObject>
        <mxCell id="xUTtplGJXiZXMpH6DIID-23" value="Nvidia Container Runtime" style="text;strokeColor=none;align=left;verticalAlign=top;spacingLeft=4;spacingRight=4;overflow=hidden;rotatable=0;points=[[0,0.5],[1,0.5]];portConstraint=eastwest;fontStyle=1;fillColor=#FFFFFF;" parent="xUTtplGJXiZXMpH6DIID-22" vertex="1">
          <mxGeometry y="26" width="358.69" height="26" as="geometry" />
        </mxCell>
        <UserObject label="Dockerized-SNOW" link="https://github.com/RedLeader962/Dockerized-SNOW" id="xUTtplGJXiZXMpH6DIID-9">
          <mxCell style="swimlane;align=left;collapsible=0;spacingLeft=15;strokeWidth=3;rounded=0;shadow=0;sketch=0;fillColor=#404040;fontStyle=1;fontSize=14;fontColor=#FFFFFF;swimlaneFillColor=#D6D6D6;strokeColor=#404040;" parent="1" vertex="1">
            <mxGeometry x="80" y="268" width="860" height="652" as="geometry" />
          </mxCell>
        </UserObject>
        <mxCell id="0oApK27776UIr2gymto0-1" value="" style="dashed=0;outlineConnect=0;html=1;align=center;labelPosition=center;verticalLabelPosition=bottom;verticalAlign=top;shape=mxgraph.weblogos.github" parent="xUTtplGJXiZXMpH6DIID-9" vertex="1">
          <mxGeometry x="10" y="30" width="42" height="42" as="geometry" />
        </mxCell>
        <mxCell id="xUTtplGJXiZXMpH6DIID-39" value="" style="edgeStyle=orthogonalEdgeStyle;rounded=1;orthogonalLoop=1;jettySize=auto;html=1;strokeWidth=4;startArrow=circle;startFill=1;endArrow=none;endFill=0;jumpStyle=arc;jumpSize=6;sketch=0;shadow=0;fontColor=#007BC4;strokeColor=#007BC4;endSize=3;startSize=3;" parent="xUTtplGJXiZXMpH6DIID-9" source="xUTtplGJXiZXMpH6DIID-10" target="xUTtplGJXiZXMpH6DIID-28" edge="1">
          <mxGeometry relative="1" as="geometry">
            <mxPoint x="660" y="400" as="sourcePoint" />
          </mxGeometry>
        </mxCell>
        <mxCell id="xUTtplGJXiZXMpH6DIID-69" value="&lt;b&gt;&lt;i&gt;&lt;font style=&quot;font-size: 16px&quot;&gt;&lt;font color=&quot;#007bc4&quot;&gt;&amp;nbsp; FROM &amp;nbsp;&lt;/font&gt;&lt;br&gt;&lt;/font&gt;&lt;/i&gt;&lt;/b&gt;" style="edgeLabel;html=1;align=center;verticalAlign=middle;resizable=0;points=[];labelBackgroundColor=#D6D6D6;" parent="xUTtplGJXiZXMpH6DIID-39" vertex="1" connectable="0">
          <mxGeometry x="0.1" relative="1" as="geometry">
            <mxPoint as="offset" />
          </mxGeometry>
        </mxCell>
        <mxCell id="xUTtplGJXiZXMpH6DIID-10" value="ROS-melodic-AutoRally-dependencies" style="swimlane;fontStyle=0;childLayout=stackLayout;horizontal=1;startSize=26;horizontalStack=0;resizeParent=1;resizeParentMax=0;resizeLast=0;collapsible=0;marginBottom=0;fontColor=#ffffff;strokeColor=#006EAF;strokeWidth=4;sketch=0;shadow=0;fontSize=13;swimlaneFillColor=none;swimlaneLine=1;rounded=0;perimeterSpacing=0;labelBorderColor=none;fillColor=#1BA1E2;" parent="xUTtplGJXiZXMpH6DIID-9" vertex="1">
          <mxGeometry x="250" y="103" width="360" height="286" as="geometry" />
        </mxCell>
        <mxCell id="xUTtplGJXiZXMpH6DIID-11" value="BOOST   " style="text;strokeColor=none;fillColor=#FFFFFF;align=left;verticalAlign=top;spacingLeft=4;spacingRight=4;overflow=hidden;rotatable=0;points=[[0,0.5],[1,0.5]];portConstraint=eastwest;fontStyle=1;" parent="xUTtplGJXiZXMpH6DIID-10" vertex="1">
          <mxGeometry y="26" width="360" height="26" as="geometry" />
        </mxCell>
        <mxCell id="xUTtplGJXiZXMpH6DIID-12" value="CNPY" style="text;strokeColor=none;fillColor=#FFFFFF;align=left;verticalAlign=top;spacingLeft=4;spacingRight=4;overflow=hidden;rotatable=0;points=[[0,0.5],[1,0.5]];portConstraint=eastwest;fontStyle=1;" parent="xUTtplGJXiZXMpH6DIID-10" vertex="1">
          <mxGeometry y="52" width="360" height="26" as="geometry" />
        </mxCell>
        <mxCell id="xUTtplGJXiZXMpH6DIID-14" value="GTSAM " style="text;strokeColor=none;fillColor=#FFFFFF;align=left;verticalAlign=top;spacingLeft=4;spacingRight=4;overflow=hidden;rotatable=0;points=[[0,0.5],[1,0.5]];portConstraint=eastwest;fontStyle=1;" parent="xUTtplGJXiZXMpH6DIID-10" vertex="1">
          <mxGeometry y="78" width="360" height="26" as="geometry" />
        </mxCell>
        <mxCell id="xUTtplGJXiZXMpH6DIID-13" value="EIGEN" style="text;strokeColor=none;fillColor=#FFFFFF;align=left;verticalAlign=top;spacingLeft=4;spacingRight=4;overflow=hidden;rotatable=0;points=[[0,0.5],[1,0.5]];portConstraint=eastwest;fontStyle=1;" parent="xUTtplGJXiZXMpH6DIID-10" vertex="1">
          <mxGeometry y="104" width="360" height="26" as="geometry" />
        </mxCell>
        <mxCell id="xUTtplGJXiZXMpH6DIID-15" value="ROS-melodic-desktop-full" style="text;strokeColor=none;fillColor=#FFFFFF;align=left;verticalAlign=top;spacingLeft=4;spacingRight=4;overflow=hidden;rotatable=0;points=[[0,0.5],[1,0.5]];portConstraint=eastwest;fontStyle=1;" parent="xUTtplGJXiZXMpH6DIID-10" vertex="1">
          <mxGeometry y="130" width="360" height="26" as="geometry" />
        </mxCell>
        <mxCell id="xUTtplGJXiZXMpH6DIID-16" value="Gazebo-9" style="text;strokeColor=none;fillColor=#FFFFFF;align=left;verticalAlign=top;spacingLeft=4;spacingRight=4;overflow=hidden;rotatable=0;points=[[0,0.5],[1,0.5]];portConstraint=eastwest;fontStyle=1;" parent="xUTtplGJXiZXMpH6DIID-10" vertex="1">
          <mxGeometry y="156" width="360" height="26" as="geometry" />
        </mxCell>
        <mxCell id="xUTtplGJXiZXMpH6DIID-17" value="(Upgrade) libignition-math2    " style="text;strokeColor=none;fillColor=#FFFFFF;align=left;verticalAlign=top;spacingLeft=4;spacingRight=4;overflow=hidden;rotatable=0;points=[[0,0.5],[1,0.5]];portConstraint=eastwest;fontStyle=1;" parent="xUTtplGJXiZXMpH6DIID-10" vertex="1">
          <mxGeometry y="182" width="360" height="26" as="geometry" />
        </mxCell>
        <mxCell id="xUTtplGJXiZXMpH6DIID-18" value="Create and build a catkin workspace" style="text;strokeColor=none;fillColor=#FFFFFF;align=left;verticalAlign=top;spacingLeft=4;spacingRight=4;overflow=hidden;rotatable=0;points=[[0,0.5],[1,0.5]];portConstraint=eastwest;fontStyle=1;" parent="xUTtplGJXiZXMpH6DIID-10" vertex="1">
          <mxGeometry y="208" width="360" height="26" as="geometry" />
        </mxCell>
        <mxCell id="xUTtplGJXiZXMpH6DIID-19" value="(Clone repo) imu_3dm_gx4" style="text;strokeColor=none;fillColor=#FFFFFF;align=left;verticalAlign=top;spacingLeft=4;spacingRight=4;overflow=hidden;rotatable=0;points=[[0,0.5],[1,0.5]];portConstraint=eastwest;fontStyle=1;" parent="xUTtplGJXiZXMpH6DIID-10" vertex="1">
          <mxGeometry y="234" width="360" height="26" as="geometry" />
        </mxCell>
        <mxCell id="xUTtplGJXiZXMpH6DIID-20" value="(Clone repo) pointgrey_camera_driver" style="text;strokeColor=none;fillColor=#FFFFFF;align=left;verticalAlign=top;spacingLeft=4;spacingRight=4;overflow=hidden;rotatable=0;points=[[0,0.5],[1,0.5]];portConstraint=eastwest;fontStyle=1;" parent="xUTtplGJXiZXMpH6DIID-10" vertex="1">
          <mxGeometry y="260" width="360" height="26" as="geometry" />
        </mxCell>
        <mxCell id="xUTtplGJXiZXMpH6DIID-73" value="" style="edgeStyle=orthogonalEdgeStyle;rounded=1;orthogonalLoop=1;jettySize=auto;html=1;startArrow=circle;startFill=1;endArrow=none;endFill=0;strokeWidth=4;jumpStyle=arc;jumpSize=6;sketch=0;shadow=0;fontColor=#007BC4;strokeColor=#007BC4;endSize=3;startSize=3;" parent="xUTtplGJXiZXMpH6DIID-9" source="xUTtplGJXiZXMpH6DIID-10" target="xUTtplGJXiZXMpH6DIID-71" edge="1">
          <mxGeometry relative="1" as="geometry">
            <mxPoint x="470" y="370" as="sourcePoint" />
          </mxGeometry>
        </mxCell>
        <mxCell id="xUTtplGJXiZXMpH6DIID-74" value="&lt;b&gt;&lt;i&gt;&lt;font style=&quot;font-size: 16px&quot;&gt;&amp;nbsp; FROM &amp;nbsp;&lt;/font&gt;&lt;/i&gt;&lt;/b&gt;" style="edgeLabel;html=1;align=center;verticalAlign=middle;resizable=0;points=[];labelBackgroundColor=#D6D6D6;fontColor=#007BC4;" parent="xUTtplGJXiZXMpH6DIID-73" vertex="1" connectable="0">
          <mxGeometry x="-0.0309" y="2" relative="1" as="geometry">
            <mxPoint as="offset" />
          </mxGeometry>
        </mxCell>
        <mxCell id="xUTtplGJXiZXMpH6DIID-28" value="SNOW-AutoRally-dev" style="swimlane;fontStyle=0;childLayout=stackLayout;horizontal=1;startSize=26;fillColor=#1ba1e2;horizontalStack=0;resizeParent=1;resizeParentMax=0;resizeLast=0;collapsible=0;marginBottom=0;fontColor=#ffffff;strokeColor=#006EAF;strokeWidth=4;sketch=0;shadow=0;fontSize=13;rounded=0;" parent="xUTtplGJXiZXMpH6DIID-9" vertex="1">
          <mxGeometry x="460" y="534" width="360" height="52" as="geometry" />
        </mxCell>
        <mxCell id="xUTtplGJXiZXMpH6DIID-29" value="(mount host source code volume) SNOW-AutoRally " style="text;strokeColor=none;fillColor=#FFFFFF;align=left;verticalAlign=top;spacingLeft=4;spacingRight=4;overflow=hidden;rotatable=0;points=[[0,0.5],[1,0.5]];portConstraint=eastwest;fontStyle=1;" parent="xUTtplGJXiZXMpH6DIID-28" vertex="1">
          <mxGeometry y="26" width="360" height="26" as="geometry" />
        </mxCell>
        <mxCell id="xUTtplGJXiZXMpH6DIID-71" value="SNOW-AutoRally-deploy" style="swimlane;fontStyle=0;childLayout=stackLayout;horizontal=1;startSize=26;fillColor=#1ba1e2;horizontalStack=0;resizeParent=1;resizeParentMax=0;resizeLast=0;collapsible=0;marginBottom=0;fontColor=#ffffff;strokeColor=#006EAF;strokeWidth=4;sketch=0;shadow=0;fontSize=13;rounded=0;" parent="xUTtplGJXiZXMpH6DIID-9" vertex="1">
          <mxGeometry x="40" y="534" width="360" height="78" as="geometry" />
        </mxCell>
        <mxCell id="xUTtplGJXiZXMpH6DIID-72" value="(Clone repo) SNOW-AutoRally " style="text;strokeColor=none;fillColor=#FFFFFF;align=left;verticalAlign=top;spacingLeft=4;spacingRight=4;overflow=hidden;rotatable=0;points=[[0,0.5],[1,0.5]];portConstraint=eastwest;fontStyle=1;" parent="xUTtplGJXiZXMpH6DIID-71" vertex="1">
          <mxGeometry y="26" width="360" height="26" as="geometry" />
        </mxCell>
        <mxCell id="xUTtplGJXiZXMpH6DIID-127" value="(Compile) SNOW-AutoRally " style="text;strokeColor=none;fillColor=#FFFFFF;align=left;verticalAlign=top;spacingLeft=4;spacingRight=4;overflow=hidden;rotatable=0;points=[[0,0.5],[1,0.5]];portConstraint=eastwest;fontStyle=1;" parent="xUTtplGJXiZXMpH6DIID-71" vertex="1">
          <mxGeometry y="52" width="360" height="26" as="geometry" />
        </mxCell>
        <mxCell id="xUTtplGJXiZXMpH6DIID-26" value="" style="edgeStyle=orthogonalEdgeStyle;rounded=1;orthogonalLoop=1;jettySize=auto;html=1;entryX=0.5;entryY=0;entryDx=0;entryDy=0;strokeWidth=4;startSize=3;startArrow=circle;startFill=1;endSize=3;endArrow=none;endFill=0;sketch=0;shadow=0;jumpStyle=arc;strokeColor=#007BC4;fontColor=#007BC4;" parent="1" source="xUTtplGJXiZXMpH6DIID-22" target="xUTtplGJXiZXMpH6DIID-10" edge="1">
          <mxGeometry x="-0.119" y="1" relative="1" as="geometry">
            <mxPoint as="offset" />
          </mxGeometry>
        </mxCell>
        <mxCell id="3bYfwhAQWQakfrHlxa6V-39" value="&lt;b style=&quot;font-size: 11px;&quot;&gt;&lt;i&gt;&lt;font style=&quot;font-size: 16px&quot;&gt;&amp;nbsp; FROM &amp;nbsp;&lt;/font&gt;&lt;/i&gt;&lt;/b&gt;" style="edgeLabel;html=1;align=center;verticalAlign=middle;resizable=0;points=[];fontSize=16;labelBackgroundColor=#D6D6D6;fontColor=#007BC4;" parent="xUTtplGJXiZXMpH6DIID-26" vertex="1" connectable="0">
          <mxGeometry x="0.5185" y="1" relative="1" as="geometry">
            <mxPoint as="offset" />
          </mxGeometry>
        </mxCell>
        <UserObject label="SNOW-AutoRally " link="https://github.com/RedLeader962/SNOW-AutoRally" linkTarget="_blank" id="xUTtplGJXiZXMpH6DIID-43">
          <mxCell style="swimlane;align=left;spacingLeft=15;collapsible=0;strokeWidth=3;rounded=0;shadow=0;sketch=0;fillColor=#404040;fontStyle=1;fontSize=14;fontColor=#FFFFFF;swimlaneFillColor=#D6D6D6;strokeColor=#404040;" parent="1" vertex="1">
            <mxGeometry x="1100" y="300" width="183" height="100" as="geometry" />
          </mxCell>
        </UserObject>
        <mxCell id="xUTtplGJXiZXMpH6DIID-44" value="" style="dashed=0;outlineConnect=0;html=1;align=center;labelPosition=center;verticalLabelPosition=bottom;verticalAlign=top;shape=mxgraph.weblogos.github" parent="xUTtplGJXiZXMpH6DIID-43" vertex="1">
          <mxGeometry x="10" y="30" width="42" height="42" as="geometry" />
        </mxCell>
        <UserObject label="Georgia Tech AutoRally" link="https://github.com/AutoRally/autorally" id="xUTtplGJXiZXMpH6DIID-61">
          <mxCell style="swimlane;align=left;spacingLeft=15;collapsible=0;strokeWidth=3;rounded=0;shadow=0;sketch=0;fillColor=#404040;fontStyle=1;fontSize=14;fontColor=#FFFFFF;labelBackgroundColor=none;swimlaneFillColor=#D6D6D6;strokeColor=#404040;" parent="1" vertex="1">
            <mxGeometry x="1100" y="70" width="183" height="100" as="geometry" />
          </mxCell>
        </UserObject>
        <mxCell id="xUTtplGJXiZXMpH6DIID-62" value="" style="dashed=0;outlineConnect=0;html=1;align=center;labelPosition=center;verticalLabelPosition=bottom;verticalAlign=top;shape=mxgraph.weblogos.github" parent="xUTtplGJXiZXMpH6DIID-61" vertex="1">
          <mxGeometry x="10" y="30" width="42" height="42" as="geometry" />
        </mxCell>
        <UserObject label="NVIDIA Jetson embed computer" id="xUTtplGJXiZXMpH6DIID-85">
          <mxCell style="swimlane;align=left;spacingLeft=15;collapsible=0;strokeWidth=3;rounded=0;shadow=0;sketch=0;fontStyle=1;fillColor=#404040;fontColor=#FFFFFF;fontSize=14;swimlaneFillColor=#D6D6D6;strokeColor=#404040;" parent="1" vertex="1">
            <mxGeometry x="76" y="1010" width="860" height="150" as="geometry">
              <mxRectangle x="110" y="90" width="90" height="23" as="alternateBounds" />
            </mxGeometry>
          </mxCell>
        </UserObject>
        <mxCell id="xUTtplGJXiZXMpH6DIID-86" value="" style="shape=image;verticalLabelPosition=bottom;labelBackgroundColor=#ffffff;verticalAlign=top;aspect=fixed;imageAspect=0;image=data:image/svg+xml,PHN2ZyB4bWxuczpzdmc9Imh0dHA6Ly93d3cudzMub3JnLzIwMDAvc3ZnIiB4bWxucz0iaHR0cDovL3d3dy53My5vcmcvMjAwMC9zdmciIHhtbG5zOnhsaW5rPSJodHRwOi8vd3d3LnczLm9yZy8xOTk5L3hsaW5rIiB2ZXJzaW9uPSIxLjEiIGlkPSJzdmcyIiB4PSIwcHgiIHk9IjBweCIgd2lkdGg9IjM1MS40NjAwMjE5NzI2NTYyNSIgaGVpZ2h0PSIyNTguNzg1MDAzNjYyMTA5NCIgdmlld0JveD0iMzUuMTg3OTk5NzI1MzQxOCAzMS41MTE5OTkxMzAyNDkwMjMgMzUxLjQ2MDAyMTk3MjY1NjI1IDI1OC43ODUwMDM2NjIxMDk0IiBlbmFibGUtYmFja2dyb3VuZD0ibmV3IDM1LjE4OCAzMS41MTIgMzUxLjQ2IDI1OC43ODUiIHhtbDpzcGFjZT0icHJlc2VydmUiPiYjeGE7PHRpdGxlIGlkPSJ0aXRsZTQiPmdlbmVyYXRlZCBieSBwc3RvZWRpdCB2ZXJzaW9uOjMuNDQgZnJvbSBOVkJhZGdlXzJELmVwczwvdGl0bGU+JiN4YTs8cGF0aCBpZD0icGF0aDE3IiBkPSJNMzg0LjE5NSwyODIuMTA5YzAsMy43NzEtMi43NjksNi4zMDItNi4wNDcsNi4zMDJ2LTAuMDIzYy0zLjM3MSwwLjAyMy02LjA4OS0yLjUwOC02LjA4OS02LjI3OCYjeGE7IGMwLTMuNzY5LDIuNzE4LTYuMjkzLDYuMDg5LTYuMjkzQzM4MS40MjcsMjc1LjgxNiwzODQuMTk1LDI3OC4zNCwzODQuMTk1LDI4Mi4xMDl6IE0zODYuNjQ4LDI4Mi4xMDljMC01LjE3NS00LjAyLTguMTc5LTguNS04LjE3OSYjeGE7IGMtNC41MTEsMC04LjUzMSwzLjAwNC04LjUzMSw4LjE3OWMwLDUuMTcyLDQuMDIxLDguMTg4LDguNTMxLDguMTg4QzM4Mi42MjksMjkwLjI5NywzODYuNjQ4LDI4Ny4yODEsMzg2LjY0OCwyODIuMTA5JiN4YTsgIE0zNzYuNzM4LDI4Mi44MDFoMC45MWwyLjEwOSwzLjcwM2gyLjMxNmwtMi4zMzYtMy44NTljMS4yMDctMC4wODYsMi4yLTAuNjYxLDIuMi0yLjI4NmMwLTIuMDE5LTEuMzkyLTIuNjY4LTMuNzUtMi42NjhoLTMuNDExJiN4YTsgdjguODEzaDEuOTYxVjI4Mi44MDEgTTM3Ni43MzgsMjgxLjMwOXYtMi4xMjJoMS4zNjRjMC43NDIsMCwxLjc1MywwLjA2LDEuNzUzLDAuOTY1YzAsMC45ODUtMC41MjMsMS4xNTctMS4zOTgsMS4xNTdIMzc2LjczOCIvPiYjeGE7PHBhdGggaWQ9InBhdGgxOSIgZD0iTTMyOS40MDYsMjM3LjAyN2wxMC41OTgsMjguOTkzSDMxOC40OEwzMjkuNDA2LDIzNy4wMjd6IE0zMTguMDU2LDIyNS43MzhsLTI0LjQyMyw2MS44OGgxNy4yNDZsMy44NjMtMTAuOTM0JiN4YTsgaDI4LjkwM2wzLjY1NiwxMC45MzRoMTguNzIybC0yNC42MDUtNjEuODg4TDMxOC4wNTYsMjI1LjczOHogTTI2OS4wMjMsMjg3LjY0MWgxNy40OTd2LTYxLjkyMmwtMTcuNS0wLjAwNEwyNjkuMDIzLDI4Ny42NDF6JiN4YTsgIE0xNDcuNTU2LDIyNS43MTVsLTE0LjU5OCw0OS4wNzhsLTEzLjk4NC00OS4wNzRsLTE4Ljg3OS0wLjAwNGwxOS45NzIsNjEuOTI2aDI1LjIwN2wyMC4xMzMtNjEuOTI2SDE0Ny41NTZ6IE0yMTguMjgxLDIzOS4xOTloNy41MiYjeGE7IGMxMC45MSwwLDE3Ljk2Niw0Ljg5OCwxNy45NjYsMTcuNjA5YzAsMTIuNzE0LTcuMDU2LDE3LjYxMy0xNy45NjYsMTcuNjEzaC03LjUyVjIzOS4xOTl6IE0yMDAuOTMxLDIyNS43MTV2NjEuOTI2aDI4LjM2NiYjeGE7IGMxNS4xMTMsMCwyMC4wNDgtMi41MTIsMjUuMzg0LTguMTQ4YzMuNzY5LTMuOTU3LDYuMjA3LTEyLjY0MSw2LjIwNy0yMi4xMzRjMC04LjcwNy0yLjA2My0xNi40NjgtNS42Ni0yMS4zMDQmI3hhOyBjLTYuNDgxLTguNjQ5LTE1LjgxNy0xMC4zNC0yOS43NS0xMC4zNEgyMDAuOTMxeiBNMzUuMTg4LDIyNS42Mjl2NjIuMDEyaDE3LjY0NXYtNDcuMDg2bDEzLjY3MiwwLjAwNCYjeGE7IGM0LjUyNywwLDcuNzU0LDEuMTI4LDkuOTM0LDMuNDU3YzIuNzY1LDIuOTQ1LDMuODk0LDcuNjk5LDMuODk0LDE2LjM5NXYyNy4yM2gxNy4wOTh2LTM0LjI2MmMwLTI0LjQ1My0xNS41ODYtMjcuNzUtMzAuODM2LTI3Ljc1JiN4YTsgSDM1LjE4OHogTTE3Mi43NzEsMjI1LjcxNWwwLjAwNyw2MS45MjZoMTcuNDg5di02MS45MjZIMTcyLjc3MXoiLz4mI3hhOzxwYXRoIGlkPSJwYXRoMjEiIGZpbGw9IiM3N0I5MDAiIGQ9Ik04Mi4yMTEsMTAyLjQxNGMwLDAsMjIuNTA0LTMzLjIwMyw2Ny40MzctMzYuNjM4VjUzLjczJiN4YTsgYy00OS43NjksMy45OTctOTIuODY3LDQ2LjE0OS05Mi44NjcsNDYuMTQ5czI0LjQxLDcwLjU2NSw5Mi44NjcsNzcuMDI2di0xMi44MDRDOTkuNDExLDE1Ny43ODEsODIuMjExLDEwMi40MTQsODIuMjExLDEwMi40MTR6JiN4YTsgIE0xNDkuNjQ4LDEzOC42Mzd2MTEuNzI2Yy0zNy45NjgtNi43NjktNDguNTA3LTQ2LjIzNy00OC41MDctNDYuMjM3czE4LjIzLTIwLjE5NSw0OC41MDctMjMuNDd2MTIuODY3JiN4YTsgYy0wLjAyMywwLTAuMDM5LTAuMDA3LTAuMDU4LTAuMDA3Yy0xNS44OTEtMS45MDctMjguMzA1LDEyLjkzOC0yOC4zMDUsMTIuOTM4UzEyOC4yNDMsMTMxLjQ0NSwxNDkuNjQ4LDEzOC42MzcgTTE0OS42NDgsMzEuNTEyJiN4YTsgVjUzLjczYzEuNDYxLTAuMTEyLDIuOTIyLTAuMjA3LDQuMzkxLTAuMjU3YzU2LjU4Mi0xLjkwNyw5My40NDksNDYuNDA2LDkzLjQ0OSw0Ni40MDZzLTQyLjM0Myw1MS40ODgtODYuNDU3LDUxLjQ4OCYjeGE7IGMtNC4wNDMsMC03LjgyOC0wLjM3NS0xMS4zODMtMS4wMDV2MTMuNzM5YzMuMDQsMC4zODYsNi4xOTIsMC42MTMsOS40ODEsMC42MTNjNDEuMDUxLDAsNzAuNzM4LTIwLjk2NSw5OS40ODQtNDUuNzc4JiN4YTsgYzQuNzY2LDMuODE3LDI0LjI3OCwxMy4xMDMsMjguMjg5LDE3LjE2OGMtMjcuMzMyLDIyLjg4My05MS4wMzEsNDEuMzI5LTEyNy4xNDQsNDEuMzI5Yy0zLjQ4MSwwLTYuODI0LTAuMjExLTEwLjExLTAuNTI4djE5LjMwNiYjeGE7IGgxNTYuMDMyVjMxLjUxMkgxNDkuNjQ4eiBNMTQ5LjY0OCw4MC42NTZWNjUuNzc3YzEuNDQ2LTAuMTAxLDIuOTAzLTAuMTc5LDQuMzkxLTAuMjI2YzQwLjY4OC0xLjI3OCw2Ny4zODIsMzQuOTY1LDY3LjM4MiwzNC45NjUmI3hhOyBzLTI4LjgzMiw0MC4wNDMtNTkuNzQ2LDQwLjA0M2MtNC40NDksMC04LjQzOC0wLjcxNS0xMi4wMjgtMS45MjJWOTMuNTIzYzE1Ljg0LDEuOTE0LDE5LjAyOCw4LjkxMSwyOC41NTEsMjQuNzg2bDIxLjE4LTE3Ljg1OSYjeGE7IGMwLDAtMTUuNDYxLTIwLjI3Ny00MS41MjQtMjAuMjc3QzE1NS4wMjEsODAuMTcyLDE1Mi4zMSw4MC4zNzEsMTQ5LjY0OCw4MC42NTYiLz4mI3hhOzwvc3ZnPg==;" parent="xUTtplGJXiZXMpH6DIID-85" vertex="1">
          <mxGeometry x="10" y="30" width="51.5" height="38" as="geometry" />
        </mxCell>
        <mxCell id="xUTtplGJXiZXMpH6DIID-90" value="&lt;span style=&quot;font-weight: bold&quot;&gt;AGX Xavier&amp;nbsp;&lt;/span&gt;" style="rounded=1;whiteSpace=wrap;html=1;startSize=23;align=center;opacity=80;" parent="xUTtplGJXiZXMpH6DIID-85" vertex="1">
          <mxGeometry x="620" y="56" width="150" height="60" as="geometry" />
        </mxCell>
        <mxCell id="xUTtplGJXiZXMpH6DIID-91" value="&lt;span style=&quot;font-weight: bold&quot;&gt;Nano&lt;/span&gt;" style="rounded=1;whiteSpace=wrap;html=1;startSize=23;align=center;opacity=80;" parent="xUTtplGJXiZXMpH6DIID-85" vertex="1">
          <mxGeometry x="130" y="56" width="150" height="60" as="geometry" />
        </mxCell>
        <mxCell id="xUTtplGJXiZXMpH6DIID-130" value="&lt;span style=&quot;font-weight: bold&quot;&gt;TX2&lt;/span&gt;" style="rounded=1;whiteSpace=wrap;html=1;startSize=23;align=center;opacity=80;" parent="xUTtplGJXiZXMpH6DIID-85" vertex="1">
          <mxGeometry x="375" y="56" width="150" height="60" as="geometry" />
        </mxCell>
        <mxCell id="xUTtplGJXiZXMpH6DIID-93" style="edgeStyle=orthogonalEdgeStyle;rounded=1;jumpStyle=arc;jumpSize=6;orthogonalLoop=1;jettySize=auto;html=1;exitX=0.5;exitY=1;exitDx=0;exitDy=0;entryX=1;entryY=0.5;entryDx=0;entryDy=0;endArrow=block;strokeWidth=3;dashed=1;startArrow=block;startFill=0;sketch=0;shadow=0;shape=flexArrow;dashPattern=1 1;fillColor=#ffffff;endFill=0;" parent="1" source="xUTtplGJXiZXMpH6DIID-95" target="xUTtplGJXiZXMpH6DIID-90" edge="1">
          <mxGeometry relative="1" as="geometry" />
        </mxCell>
        <mxCell id="xUTtplGJXiZXMpH6DIID-94" style="edgeStyle=orthogonalEdgeStyle;rounded=1;jumpStyle=arc;jumpSize=6;orthogonalLoop=1;jettySize=auto;html=1;startArrow=classic;startFill=1;endArrow=classic;strokeWidth=3;dashed=1;sketch=0;shadow=0;exitX=1;exitY=0.5;exitDx=0;exitDy=0;entryX=0;entryY=0.5;entryDx=0;entryDy=0;shape=flexArrow;dashPattern=1 1;fillColor=#ffffff;" parent="1" source="xUTtplGJXiZXMpH6DIID-29" target="xUTtplGJXiZXMpH6DIID-90" edge="1">
          <mxGeometry relative="1" as="geometry">
            <mxPoint x="685" y="1450" as="targetPoint" />
            <Array as="points">
              <mxPoint x="1000" y="841" />
              <mxPoint x="1000" y="959" />
              <mxPoint x="655" y="959" />
              <mxPoint x="655" y="1096" />
            </Array>
          </mxGeometry>
        </mxCell>
        <mxCell id="xUTtplGJXiZXMpH6DIID-116" style="edgeStyle=orthogonalEdgeStyle;rounded=1;jumpStyle=arc;jumpSize=6;orthogonalLoop=1;jettySize=auto;html=1;strokeWidth=3;dashed=1;dashPattern=1 1;startFill=0;startArrow=block;entryX=1;entryY=0.5;entryDx=0;entryDy=0;sketch=0;shadow=0;shape=flexArrow;fillColor=#ffffff;endFill=0;endArrow=block;" parent="1" source="xUTtplGJXiZXMpH6DIID-95" target="xUTtplGJXiZXMpH6DIID-9" edge="1">
          <mxGeometry relative="1" as="geometry">
            <mxPoint x="950" y="643" as="targetPoint" />
          </mxGeometry>
        </mxCell>
        <UserObject label="Dev computer" id="xUTtplGJXiZXMpH6DIID-95">
          <mxCell style="swimlane;align=left;spacingLeft=15;collapsible=0;strokeWidth=3;rounded=0;shadow=0;sketch=0;fontStyle=1;fontSize=14;fillColor=#404040;fontColor=#FFFFFF;swimlaneFillColor=#D6D6D6;strokeColor=#404040;" parent="1" vertex="1">
            <mxGeometry x="1060" y="580" width="681" height="180" as="geometry">
              <mxRectangle x="110" y="90" width="90" height="23" as="alternateBounds" />
            </mxGeometry>
          </mxCell>
        </UserObject>
        <mxCell id="xUTtplGJXiZXMpH6DIID-97" value="( local copy )&lt;br&gt;&lt;b&gt;SNOW-AutoRally&lt;/b&gt;" style="rounded=1;whiteSpace=wrap;html=1;startSize=23;align=center;opacity=80;" parent="xUTtplGJXiZXMpH6DIID-95" vertex="1">
          <mxGeometry x="63" y="70" width="136" height="60" as="geometry" />
        </mxCell>
        <mxCell id="xUTtplGJXiZXMpH6DIID-108" value="( local copy )&lt;span style=&quot;font-weight: bold&quot;&gt;&lt;br&gt;&lt;/span&gt;&lt;span style=&quot;font-weight: bold ; text-align: left&quot;&gt;Teach and Repeat&lt;/span&gt;" style="rounded=1;whiteSpace=wrap;html=1;startSize=23;align=center;opacity=80;" parent="xUTtplGJXiZXMpH6DIID-95" vertex="1">
          <mxGeometry x="273" y="70" width="136" height="60" as="geometry" />
        </mxCell>
        <mxCell id="xUTtplGJXiZXMpH6DIID-111" value="( local copy )&lt;span style=&quot;font-weight: bold&quot;&gt;&lt;br&gt;&lt;/span&gt;&lt;span style=&quot;font-weight: bold ; text-align: left&quot;&gt;ICP&lt;/span&gt;" style="rounded=1;whiteSpace=wrap;html=1;startSize=23;align=center;opacity=80;" parent="xUTtplGJXiZXMpH6DIID-95" vertex="1">
          <mxGeometry x="484" y="70" width="136" height="60" as="geometry" />
        </mxCell>
        <UserObject label="Teach and Repeat" linkTarget="_blank" id="xUTtplGJXiZXMpH6DIID-106">
          <mxCell style="swimlane;align=left;spacingLeft=15;collapsible=0;strokeWidth=3;rounded=0;shadow=0;sketch=0;fillColor=#404040;fontStyle=1;fontSize=14;fontColor=#FFFFFF;swimlaneFillColor=#D6D6D6;strokeColor=#404040;" parent="1" vertex="1">
            <mxGeometry x="1310" y="300" width="183" height="100" as="geometry" />
          </mxCell>
        </UserObject>
        <mxCell id="xUTtplGJXiZXMpH6DIID-107" value="" style="dashed=0;outlineConnect=0;html=1;align=center;labelPosition=center;verticalLabelPosition=bottom;verticalAlign=top;shape=mxgraph.weblogos.github" parent="xUTtplGJXiZXMpH6DIID-106" vertex="1">
          <mxGeometry x="10" y="30" width="42" height="42" as="geometry" />
        </mxCell>
        <UserObject label="ICP" linkTarget="_blank" id="xUTtplGJXiZXMpH6DIID-109">
          <mxCell style="swimlane;align=left;spacingLeft=15;collapsible=0;strokeWidth=3;rounded=0;shadow=0;sketch=0;fillColor=#404040;fontStyle=1;fontSize=14;fontColor=#FFFFFF;swimlaneFillColor=#D6D6D6;strokeColor=#404040;" parent="1" vertex="1">
            <mxGeometry x="1520" y="300" width="183" height="100" as="geometry" />
          </mxCell>
        </UserObject>
        <mxCell id="xUTtplGJXiZXMpH6DIID-110" value="" style="dashed=0;outlineConnect=0;html=1;align=center;labelPosition=center;verticalLabelPosition=bottom;verticalAlign=top;shape=mxgraph.weblogos.github" parent="xUTtplGJXiZXMpH6DIID-109" vertex="1">
          <mxGeometry x="10" y="30" width="42" height="42" as="geometry" />
        </mxCell>
        <mxCell id="xUTtplGJXiZXMpH6DIID-124" style="edgeStyle=orthogonalEdgeStyle;rounded=1;jumpStyle=arc;jumpSize=14;orthogonalLoop=1;jettySize=auto;html=1;endArrow=classic;strokeWidth=4;entryX=0;entryY=0.5;entryDx=0;entryDy=0;shadow=0;sketch=0;shape=flexArrow;fillColor=#B3B3B3;strokeColor=none;exitX=0.5;exitY=0;exitDx=0;exitDy=0;" parent="1" source="3bYfwhAQWQakfrHlxa6V-13" target="xUTtplGJXiZXMpH6DIID-72" edge="1">
          <mxGeometry relative="1" as="geometry">
            <mxPoint x="1074" y="234" as="sourcePoint" />
            <mxPoint x="1210" y="540" as="targetPoint" />
            <Array as="points">
              <mxPoint x="1009" y="209" />
              <mxPoint x="1009" y="5" />
              <mxPoint x="9" y="5" />
              <mxPoint x="9" y="839" />
            </Array>
          </mxGeometry>
        </mxCell>
        <mxCell id="xUTtplGJXiZXMpH6DIID-134" value="" style="shape=image;verticalLabelPosition=bottom;labelBackgroundColor=#ffffff;verticalAlign=top;aspect=fixed;imageAspect=0;image=data:image/svg+xml,PHN2ZyB4bWxucz0iaHR0cDovL3d3dy53My5vcmcvMjAwMC9zdmciIHhtbG5zOnhsaW5rPSJodHRwOi8vd3d3LnczLm9yZy8xOTk5L3hsaW5rIiB4bWxuczpzZXJpZj0iaHR0cDovL3d3dy5zZXJpZi5jb20vIiB3aWR0aD0iMjU1LjA1ODk5MDQ3ODUxNTYyIiBoZWlnaHQ9IjE0NiIgdmlld0JveD0iMCAtMC4wMDA0NjUwMDAwMTkxNzU5MzE4IDI1NS4wNTg5OTA0Nzg1MTU2MiAxNDYiIHZlcnNpb249IjEuMSIgeG1sOnNwYWNlPSJwcmVzZXJ2ZSIgc3R5bGU9ImZpbGwtcnVsZTpldmVub2RkO2NsaXAtcnVsZTpldmVub2RkOyI+JiN4YTsgICAgPGcgdHJhbnNmb3JtPSJtYXRyaXgoMSwwLDAsMSwwLC0wLjAwMDQ2NSkiPiYjeGE7ICAgICAgICA8cGF0aCBpZD0icGF0aDE0IiBkPSJNMTQ3LjQ4OCw0NS43MzJMMTcwLjM1NCw0NS43MzJMMTcwLjM1NCw2OS4xMDdMMTgxLjkxNSw2OS4xMDdDMTg3LjI1NCw2OS4xMDcgMTkyLjc0Niw2OC4xNTYgMTk3LjgwMiw2Ni40NDJDMjAwLjI4Nyw2NS42IDIwMy4wNzYsNjQuNDI3IDIwNS41MjYsNjIuOTUzQzIwMi4yOTgsNTguNzM5IDIwMC42NSw1My40MTcgMjAwLjE2NSw0OC4xNzJDMTk5LjUwNyw0MS4wMzggMjAwLjk0NiwzMS43NTIgMjA1Ljc3NCwyNi4xNjhMMjA4LjE3OCwyMy4zODhMMjExLjA0MiwyNS42OUMyMTguMjUzLDMxLjQ4NCAyMjQuMzE4LDM5LjU3OSAyMjUuMzg3LDQ4LjgwOEMyMzQuMDcsNDYuMjU0IDI0NC4yNjUsNDYuODU4IDI1MS45MTksNTEuMjc2TDI1NS4wNTksNTMuMDg3TDI1My40MDYsNTYuMzEzQzI0Ni45MzMsNjguOTQ3IDIzMy40MDEsNzIuODYgMjIwLjE3MSw3Mi4xNjdDMjAwLjM3NCwxMjEuNDc2IDE1Ny4yNzMsMTQ0LjgyIDEwNS4wMTQsMTQ0LjgyQzc4LjAxNSwxNDQuODIgNTMuMjQ0LDEzNC43MjcgMzkuMTM4LDExMC43NzNDMzguMzExLDEwOS4yODUgMzcuNjAzLDEwNy43MjkgMzYuODUyLDEwNi4yMDFDMzIuMDg0LDk1LjY1NyAzMC41LDg0LjEwNiAzMS41NzQsNzIuNTY0TDMxLjg5Nyw2OS4xMDdMNTEuNDUsNjkuMTA3TDUxLjQ1LDQ1LjczMkw3NC4zMTYsNDUuNzMyTDc0LjMxNiwyMi44NjZMMTIwLjA0OCwyMi44NjZMMTIwLjA0OCwwTDE0Ny40ODcsMEwxNDcuNDg3LDQ1LjczMiIgc3R5bGU9ImZpbGw6cmdiKDU3LDc3LDg0KTtmaWxsLXJ1bGU6bm9uemVybzsiLz4mI3hhOyAgICAgICAgPGcgaWQ9InVzZTMyIiB0cmFuc2Zvcm09Im1hdHJpeCgxLDAsMCwxLC05MS40NjQsNDUuNzMyKSI+JiN4YTsgICAgICAgICAgICA8ZyBpZD0iZzIwIiB0cmFuc2Zvcm09Im1hdHJpeCgxLDAsMCwxLDAsLTIyLjg2NikiPiYjeGE7ICAgICAgICAgICAgICAgIDxyZWN0IGlkPSJwYXRoMjIiIHg9IjEyMy44NTkiIHk9IjMuODExIiB3aWR0aD0iMTkuODE4IiBoZWlnaHQ9IjE5LjgxNyIgc3R5bGU9ImZpbGw6cmdiKDAsMTcyLDIxMSk7ZmlsbC1ydWxlOm5vbnplcm87Ii8+JiN4YTsgICAgICAgICAgICAgICAgPHJlY3QgaWQ9InBhdGgyNCIgeD0iMTIzLjg1OSIgeT0iMjYuNjc2IiB3aWR0aD0iMTkuODE4IiBoZWlnaHQ9IjE5LjgxOCIgc3R5bGU9ImZpbGw6cmdiKDMyLDE5NCwyMzkpO2ZpbGwtcnVsZTpub256ZXJvOyIvPiYjeGE7ICAgICAgICAgICAgICAgIDxwYXRoIGlkPSJwYXRoMjYiIGQ9Ik0xMjYuMjkyLDIxLjk3N0wxMjYuMjkyLDUuNDYxTTEyOS4yNjQsMjEuOTc3TDEyOS4yNjQsNS40NjFNMTMyLjI2NiwyMS45NzdMMTMyLjI2Niw1LjQ2MU0xMzUuMjY5LDIxLjk3N0wxMzUuMjY5LDUuNDYxTTEzOC4yNzIsMjEuOTc3TDEzOC4yNzIsNS40NjFNMTQxLjI0NCwyMS45NzdMMTQxLjI0NCw1LjQ2MSIgc3R5bGU9ImZpbGwtcnVsZTpub256ZXJvO3N0cm9rZTpyZ2IoNTcsNzcsODQpO3N0cm9rZS13aWR0aDoxLjU2cHg7Ii8+JiN4YTsgICAgICAgICAgICAgICAgPGcgaWQ9InVzZTI4IiB0cmFuc2Zvcm09Im1hdHJpeCgxLDAsMCwxLDAsMjIuODY2KSI+JiN4YTsgICAgICAgICAgICAgICAgICAgIDxwYXRoIGQ9Ik0xMjYuMjkyLDIxLjk3N0wxMjYuMjkyLDUuNDYxTTEyOS4yNjQsMjEuOTc3TDEyOS4yNjQsNS40NjFNMTMyLjI2NiwyMS45NzdMMTMyLjI2Niw1LjQ2MU0xMzUuMjY5LDIxLjk3N0wxMzUuMjY5LDUuNDYxTTEzOC4yNzIsMjEuOTc3TDEzOC4yNzIsNS40NjFNMTQxLjI0NCwyMS45NzdMMTQxLjI0NCw1LjQ2MSIgc3R5bGU9ImZpbGwtcnVsZTpub256ZXJvO3N0cm9rZTpyZ2IoNTcsNzcsODQpO3N0cm9rZS13aWR0aDoxLjU2cHg7Ii8+JiN4YTsgICAgICAgICAgICAgICAgPC9nPiYjeGE7ICAgICAgICAgICAgPC9nPiYjeGE7ICAgICAgICAgICAgPGcgaWQ9InVzZTMwIiB0cmFuc2Zvcm09Im1hdHJpeCgxLDAsMCwtMSwyMi44NjYsMjcuNDM4NykiPiYjeGE7ICAgICAgICAgICAgICAgIDxyZWN0IGlkPSJwYXRoMjIxIiBzZXJpZjppZD0icGF0aDIyIiB4PSIxMjMuODU5IiB5PSIzLjgxMSIgd2lkdGg9IjE5LjgxOCIgaGVpZ2h0PSIxOS44MTciIHN0eWxlPSJmaWxsOnJnYigwLDE3MiwyMTEpO2ZpbGwtcnVsZTpub256ZXJvOyIvPiYjeGE7ICAgICAgICAgICAgICAgIDxyZWN0IGlkPSJwYXRoMjQxIiBzZXJpZjppZD0icGF0aDI0IiB4PSIxMjMuODU5IiB5PSIyNi42NzYiIHdpZHRoPSIxOS44MTgiIGhlaWdodD0iMTkuODE4IiBzdHlsZT0iZmlsbDpyZ2IoMzIsMTk0LDIzOSk7ZmlsbC1ydWxlOm5vbnplcm87Ii8+JiN4YTsgICAgICAgICAgICAgICAgPHBhdGggaWQ9InBhdGgyNjEiIHNlcmlmOmlkPSJwYXRoMjYiIGQ9Ik0xMjYuMjkyLDIxLjk3N0wxMjYuMjkyLDUuNDYxTTEyOS4yNjQsMjEuOTc3TDEyOS4yNjQsNS40NjFNMTMyLjI2NiwyMS45NzdMMTMyLjI2Niw1LjQ2MU0xMzUuMjY5LDIxLjk3N0wxMzUuMjY5LDUuNDYxTTEzOC4yNzIsMjEuOTc3TDEzOC4yNzIsNS40NjFNMTQxLjI0NCwyMS45NzdMMTQxLjI0NCw1LjQ2MSIgc3R5bGU9ImZpbGwtcnVsZTpub256ZXJvO3N0cm9rZTpyZ2IoNTcsNzcsODQpO3N0cm9rZS13aWR0aDoxLjU2cHg7Ii8+JiN4YTsgICAgICAgICAgICAgICAgPGcgaWQ9InVzZTI4MSIgc2VyaWY6aWQ9InVzZTI4IiB0cmFuc2Zvcm09Im1hdHJpeCgxLDAsMCwxLDAsMjIuODY2KSI+JiN4YTsgICAgICAgICAgICAgICAgICAgIDxwYXRoIGQ9Ik0xMjYuMjkyLDIxLjk3N0wxMjYuMjkyLDUuNDYxTTEyOS4yNjQsMjEuOTc3TDEyOS4yNjQsNS40NjFNMTMyLjI2NiwyMS45NzdMMTMyLjI2Niw1LjQ2MU0xMzUuMjY5LDIxLjk3N0wxMzUuMjY5LDUuNDYxTTEzOC4yNzIsMjEuOTc3TDEzOC4yNzIsNS40NjFNMTQxLjI0NCwyMS45NzdMMTQxLjI0NCw1LjQ2MSIgc3R5bGU9ImZpbGwtcnVsZTpub256ZXJvO3N0cm9rZTpyZ2IoNTcsNzcsODQpO3N0cm9rZS13aWR0aDoxLjU2cHg7Ii8+JiN4YTsgICAgICAgICAgICAgICAgPC9nPiYjeGE7ICAgICAgICAgICAgPC9nPiYjeGE7ICAgICAgICA8L2c+JiN4YTsgICAgICAgIDxnIGlkPSJ1c2UzNCIgdHJhbnNmb3JtPSJtYXRyaXgoMSwwLDAsMSwtNDUuNzMyLDQ1LjczMikiPiYjeGE7ICAgICAgICAgICAgPGcgaWQ9ImcyMDEiIHNlcmlmOmlkPSJnMjAiIHRyYW5zZm9ybT0ibWF0cml4KDEsMCwwLDEsMCwtMjIuODY2KSI+JiN4YTsgICAgICAgICAgICAgICAgPHJlY3QgaWQ9InBhdGgyMjIiIHNlcmlmOmlkPSJwYXRoMjIiIHg9IjEyMy44NTkiIHk9IjMuODExIiB3aWR0aD0iMTkuODE4IiBoZWlnaHQ9IjE5LjgxNyIgc3R5bGU9ImZpbGw6cmdiKDAsMTcyLDIxMSk7ZmlsbC1ydWxlOm5vbnplcm87Ii8+JiN4YTsgICAgICAgICAgICAgICAgPHJlY3QgaWQ9InBhdGgyNDIiIHNlcmlmOmlkPSJwYXRoMjQiIHg9IjEyMy44NTkiIHk9IjI2LjY3NiIgd2lkdGg9IjE5LjgxOCIgaGVpZ2h0PSIxOS44MTgiIHN0eWxlPSJmaWxsOnJnYigzMiwxOTQsMjM5KTtmaWxsLXJ1bGU6bm9uemVybzsiLz4mI3hhOyAgICAgICAgICAgICAgICA8cGF0aCBpZD0icGF0aDI2MiIgc2VyaWY6aWQ9InBhdGgyNiIgZD0iTTEyNi4yOTIsMjEuOTc3TDEyNi4yOTIsNS40NjFNMTI5LjI2NCwyMS45NzdMMTI5LjI2NCw1LjQ2MU0xMzIuMjY2LDIxLjk3N0wxMzIuMjY2LDUuNDYxTTEzNS4yNjksMjEuOTc3TDEzNS4yNjksNS40NjFNMTM4LjI3MiwyMS45NzdMMTM4LjI3Miw1LjQ2MU0xNDEuMjQ0LDIxLjk3N0wxNDEuMjQ0LDUuNDYxIiBzdHlsZT0iZmlsbC1ydWxlOm5vbnplcm87c3Ryb2tlOnJnYig1Nyw3Nyw4NCk7c3Ryb2tlLXdpZHRoOjEuNTZweDsiLz4mI3hhOyAgICAgICAgICAgICAgICA8ZyBpZD0idXNlMjgyIiBzZXJpZjppZD0idXNlMjgiIHRyYW5zZm9ybT0ibWF0cml4KDEsMCwwLDEsMCwyMi44NjYpIj4mI3hhOyAgICAgICAgICAgICAgICAgICAgPHBhdGggZD0iTTEyNi4yOTIsMjEuOTc3TDEyNi4yOTIsNS40NjFNMTI5LjI2NCwyMS45NzdMMTI5LjI2NCw1LjQ2MU0xMzIuMjY2LDIxLjk3N0wxMzIuMjY2LDUuNDYxTTEzNS4yNjksMjEuOTc3TDEzNS4yNjksNS40NjFNMTM4LjI3MiwyMS45NzdMMTM4LjI3Miw1LjQ2MU0xNDEuMjQ0LDIxLjk3N0wxNDEuMjQ0LDUuNDYxIiBzdHlsZT0iZmlsbC1ydWxlOm5vbnplcm87c3Ryb2tlOnJnYig1Nyw3Nyw4NCk7c3Ryb2tlLXdpZHRoOjEuNTZweDsiLz4mI3hhOyAgICAgICAgICAgICAgICA8L2c+JiN4YTsgICAgICAgICAgICA8L2c+JiN4YTsgICAgICAgICAgICA8ZyBpZD0idXNlMzAxIiBzZXJpZjppZD0idXNlMzAiIHRyYW5zZm9ybT0ibWF0cml4KDEsMCwwLC0xLDIyLjg2NiwyNy40Mzg3KSI+JiN4YTsgICAgICAgICAgICAgICAgPHJlY3QgaWQ9InBhdGgyMjMiIHNlcmlmOmlkPSJwYXRoMjIiIHg9IjEyMy44NTkiIHk9IjMuODExIiB3aWR0aD0iMTkuODE4IiBoZWlnaHQ9IjE5LjgxNyIgc3R5bGU9ImZpbGw6cmdiKDAsMTcyLDIxMSk7ZmlsbC1ydWxlOm5vbnplcm87Ii8+JiN4YTsgICAgICAgICAgICAgICAgPHJlY3QgaWQ9InBhdGgyNDMiIHNlcmlmOmlkPSJwYXRoMjQiIHg9IjEyMy44NTkiIHk9IjI2LjY3NiIgd2lkdGg9IjE5LjgxOCIgaGVpZ2h0PSIxOS44MTgiIHN0eWxlPSJmaWxsOnJnYigzMiwxOTQsMjM5KTtmaWxsLXJ1bGU6bm9uemVybzsiLz4mI3hhOyAgICAgICAgICAgICAgICA8cGF0aCBpZD0icGF0aDI2MyIgc2VyaWY6aWQ9InBhdGgyNiIgZD0iTTEyNi4yOTIsMjEuOTc3TDEyNi4yOTIsNS40NjFNMTI5LjI2NCwyMS45NzdMMTI5LjI2NCw1LjQ2MU0xMzIuMjY2LDIxLjk3N0wxMzIuMjY2LDUuNDYxTTEzNS4yNjksMjEuOTc3TDEzNS4yNjksNS40NjFNMTM4LjI3MiwyMS45NzdMMTM4LjI3Miw1LjQ2MU0xNDEuMjQ0LDIxLjk3N0wxNDEuMjQ0LDUuNDYxIiBzdHlsZT0iZmlsbC1ydWxlOm5vbnplcm87c3Ryb2tlOnJnYig1Nyw3Nyw4NCk7c3Ryb2tlLXdpZHRoOjEuNTZweDsiLz4mI3hhOyAgICAgICAgICAgICAgICA8ZyBpZD0idXNlMjgzIiBzZXJpZjppZD0idXNlMjgiIHRyYW5zZm9ybT0ibWF0cml4KDEsMCwwLDEsMCwyMi44NjYpIj4mI3hhOyAgICAgICAgICAgICAgICAgICAgPHBhdGggZD0iTTEyNi4yOTIsMjEuOTc3TDEyNi4yOTIsNS40NjFNMTI5LjI2NCwyMS45NzdMMTI5LjI2NCw1LjQ2MU0xMzIuMjY2LDIxLjk3N0wxMzIuMjY2LDUuNDYxTTEzNS4yNjksMjEuOTc3TDEzNS4yNjksNS40NjFNMTM4LjI3MiwyMS45NzdMMTM4LjI3Miw1LjQ2MU0xNDEuMjQ0LDIxLjk3N0wxNDEuMjQ0LDUuNDYxIiBzdHlsZT0iZmlsbC1ydWxlOm5vbnplcm87c3Ryb2tlOnJnYig1Nyw3Nyw4NCk7c3Ryb2tlLXdpZHRoOjEuNTZweDsiLz4mI3hhOyAgICAgICAgICAgICAgICA8L2c+JiN4YTsgICAgICAgICAgICA8L2c+JiN4YTsgICAgICAgIDwvZz4mI3hhOyAgICAgICAgPGcgaWQ9InVzZTM2IiB0cmFuc2Zvcm09Im1hdHJpeCgxLDAsMCwxLDAsNDUuNzMyKSI+JiN4YTsgICAgICAgICAgICA8ZyBpZD0iZzIwMiIgc2VyaWY6aWQ9ImcyMCIgdHJhbnNmb3JtPSJtYXRyaXgoMSwwLDAsMSwwLC0yMi44NjYpIj4mI3hhOyAgICAgICAgICAgICAgICA8cmVjdCBpZD0icGF0aDIyNCIgc2VyaWY6aWQ9InBhdGgyMiIgeD0iMTIzLjg1OSIgeT0iMy44MTEiIHdpZHRoPSIxOS44MTgiIGhlaWdodD0iMTkuODE3IiBzdHlsZT0iZmlsbDpyZ2IoMCwxNzIsMjExKTtmaWxsLXJ1bGU6bm9uemVybzsiLz4mI3hhOyAgICAgICAgICAgICAgICA8cmVjdCBpZD0icGF0aDI0NCIgc2VyaWY6aWQ9InBhdGgyNCIgeD0iMTIzLjg1OSIgeT0iMjYuNjc2IiB3aWR0aD0iMTkuODE4IiBoZWlnaHQ9IjE5LjgxOCIgc3R5bGU9ImZpbGw6cmdiKDMyLDE5NCwyMzkpO2ZpbGwtcnVsZTpub256ZXJvOyIvPiYjeGE7ICAgICAgICAgICAgICAgIDxwYXRoIGlkPSJwYXRoMjY0IiBzZXJpZjppZD0icGF0aDI2IiBkPSJNMTI2LjI5MiwyMS45NzdMMTI2LjI5Miw1LjQ2MU0xMjkuMjY0LDIxLjk3N0wxMjkuMjY0LDUuNDYxTTEzMi4yNjYsMjEuOTc3TDEzMi4yNjYsNS40NjFNMTM1LjI2OSwyMS45NzdMMTM1LjI2OSw1LjQ2MU0xMzguMjcyLDIxLjk3N0wxMzguMjcyLDUuNDYxTTE0MS4yNDQsMjEuOTc3TDE0MS4yNDQsNS40NjEiIHN0eWxlPSJmaWxsLXJ1bGU6bm9uemVybztzdHJva2U6cmdiKDU3LDc3LDg0KTtzdHJva2Utd2lkdGg6MS41NnB4OyIvPiYjeGE7ICAgICAgICAgICAgICAgIDxnIGlkPSJ1c2UyODQiIHNlcmlmOmlkPSJ1c2UyOCIgdHJhbnNmb3JtPSJtYXRyaXgoMSwwLDAsMSwwLDIyLjg2NikiPiYjeGE7ICAgICAgICAgICAgICAgICAgICA8cGF0aCBkPSJNMTI2LjI5MiwyMS45NzdMMTI2LjI5Miw1LjQ2MU0xMjkuMjY0LDIxLjk3N0wxMjkuMjY0LDUuNDYxTTEzMi4yNjYsMjEuOTc3TDEzMi4yNjYsNS40NjFNMTM1LjI2OSwyMS45NzdMMTM1LjI2OSw1LjQ2MU0xMzguMjcyLDIxLjk3N0wxMzguMjcyLDUuNDYxTTE0MS4yNDQsMjEuOTc3TDE0MS4yNDQsNS40NjEiIHN0eWxlPSJmaWxsLXJ1bGU6bm9uemVybztzdHJva2U6cmdiKDU3LDc3LDg0KTtzdHJva2Utd2lkdGg6MS41NnB4OyIvPiYjeGE7ICAgICAgICAgICAgICAgIDwvZz4mI3hhOyAgICAgICAgICAgIDwvZz4mI3hhOyAgICAgICAgICAgIDxnIGlkPSJ1c2UzMDIiIHNlcmlmOmlkPSJ1c2UzMCIgdHJhbnNmb3JtPSJtYXRyaXgoMSwwLDAsLTEsMjIuODY2LDI3LjQzODcpIj4mI3hhOyAgICAgICAgICAgICAgICA8cmVjdCBpZD0icGF0aDIyNSIgc2VyaWY6aWQ9InBhdGgyMiIgeD0iMTIzLjg1OSIgeT0iMy44MTEiIHdpZHRoPSIxOS44MTgiIGhlaWdodD0iMTkuODE3IiBzdHlsZT0iZmlsbDpyZ2IoMCwxNzIsMjExKTtmaWxsLXJ1bGU6bm9uemVybzsiLz4mI3hhOyAgICAgICAgICAgICAgICA8cmVjdCBpZD0icGF0aDI0NSIgc2VyaWY6aWQ9InBhdGgyNCIgeD0iMTIzLjg1OSIgeT0iMjYuNjc2IiB3aWR0aD0iMTkuODE4IiBoZWlnaHQ9IjE5LjgxOCIgc3R5bGU9ImZpbGw6cmdiKDMyLDE5NCwyMzkpO2ZpbGwtcnVsZTpub256ZXJvOyIvPiYjeGE7ICAgICAgICAgICAgICAgIDxwYXRoIGlkPSJwYXRoMjY1IiBzZXJpZjppZD0icGF0aDI2IiBkPSJNMTI2LjI5MiwyMS45NzdMMTI2LjI5Miw1LjQ2MU0xMjkuMjY0LDIxLjk3N0wxMjkuMjY0LDUuNDYxTTEzMi4yNjYsMjEuOTc3TDEzMi4yNjYsNS40NjFNMTM1LjI2OSwyMS45NzdMMTM1LjI2OSw1LjQ2MU0xMzguMjcyLDIxLjk3N0wxMzguMjcyLDUuNDYxTTE0MS4yNDQsMjEuOTc3TDE0MS4yNDQsNS40NjEiIHN0eWxlPSJmaWxsLXJ1bGU6bm9uemVybztzdHJva2U6cmdiKDU3LDc3LDg0KTtzdHJva2Utd2lkdGg6MS41NnB4OyIvPiYjeGE7ICAgICAgICAgICAgICAgIDxnIGlkPSJ1c2UyODUiIHNlcmlmOmlkPSJ1c2UyOCIgdHJhbnNmb3JtPSJtYXRyaXgoMSwwLDAsMSwwLDIyLjg2NikiPiYjeGE7ICAgICAgICAgICAgICAgICAgICA8cGF0aCBkPSJNMTI2LjI5MiwyMS45NzdMMTI2LjI5Miw1LjQ2MU0xMjkuMjY0LDIxLjk3N0wxMjkuMjY0LDUuNDYxTTEzMi4yNjYsMjEuOTc3TDEzMi4yNjYsNS40NjFNMTM1LjI2OSwyMS45NzdMMTM1LjI2OSw1LjQ2MU0xMzguMjcyLDIxLjk3N0wxMzguMjcyLDUuNDYxTTE0MS4yNDQsMjEuOTc3TDE0MS4yNDQsNS40NjEiIHN0eWxlPSJmaWxsLXJ1bGU6bm9uemVybztzdHJva2U6cmdiKDU3LDc3LDg0KTtzdHJva2Utd2lkdGg6MS41NnB4OyIvPiYjeGE7ICAgICAgICAgICAgICAgIDwvZz4mI3hhOyAgICAgICAgICAgIDwvZz4mI3hhOyAgICAgICAgPC9nPiYjeGE7ICAgICAgICA8Y2xpcFBhdGggaWQ9Il9jbGlwMSI+JiN4YTsgICAgICAgICAgICA8cGF0aCBpZD0icGF0aDM4IiBkPSJNNzYsMkw3Niw0OEw1NCw0OEw1NCw3MUwzNS41ODEsNzFDMzUuNTAzLDcxLjY2NiAzNS40MzksNzIuMzMzIDM1LjM3NSw3M0MzNC4yMjQsODUuNTMxIDM2LjQxMSw5Ny4wODggNDEuNDM4LDEwNi45NjlMNDMuMTI1LDExMEM0NC4xMzYsMTExLjgxNyA0NS4zMTYsMTEzLjUyMyA0Ni41NjMsMTE1LjE4OEM0Ny44MDcsMTE2Ljg1IDQ4LjI0OCwxMTcuNzcgNDkuMDMxLDExOC44NzVDNjIuMzIsMTMzLjgxMSA4Mi4xMjksMTQxIDEwNSwxNDFDMTU1LjY0OCwxNDEgMTk4LjYzMywxMTguNTYyIDIxNy42NTYsNjguMTU2QzIzMS4xNTMsNjkuNTQxIDI0NC4xLDY2LjA4IDI1MCw1NC41NjNDMjQwLjYwMSw0OS4xMzkgMjI4LjUyMiw1MC44NzcgMjIxLjU2Myw1NC4zNzVMMjQwLDJMMTY4LDQ4TDE0NSw0OEwxNDUsMkw3NiwyWiIvPiYjeGE7ICAgICAgICA8L2NsaXBQYXRoPiYjeGE7ICAgICAgICA8ZyBjbGlwLXBhdGg9InVybCgjX2NsaXAxKSI+JiN4YTsgICAgICAgICAgICA8cGF0aCBkPSJNMjIxLjU3LDU0LjM4QzIyMy4xMDMsNDIuNDY0IDIxNC4xODYsMzMuMTA1IDIwOC42NTYsMjguNjYxQzIwMi4yODMsMzYuMDI5IDIwMS4yOTMsNTUuMzM5IDIxMS4yOTEsNjMuNDY5QzIwNS43MTIsNjguNDI1IDE5My45NTQsNzIuOTE3IDE4MS45MTUsNzIuOTE3TDM0LDcyLjkxN0MzMi44MjksODUuNDg0IDM0LDE0NiAzNCwxNDZMMjUxLDE0NkwyNTAuMDEzLDU0LjU3NkMyNDAuNjE1LDQ5LjE1MiAyMjguNTI5LDUwLjg4MiAyMjEuNTcsNTQuMzc5IiBzdHlsZT0iZmlsbDpyZ2IoMjMsMTgxLDIzNSk7ZmlsbC1ydWxlOm5vbnplcm87Ii8+JiN4YTsgICAgICAgIDwvZz4mI3hhOyAgICAgICAgPGNsaXBQYXRoIGlkPSJfY2xpcDIiPiYjeGE7ICAgICAgICAgICAgPHBhdGggaWQ9InBhdGg0MCIgZD0iTTc2LDJMNzYsNDhMNTQsNDhMNTQsNzFMMzUuNTgxLDcxQzM1LjUwMyw3MS42NjYgMzUuNDM5LDcyLjMzMyAzNS4zNzUsNzNDMzQuMjI0LDg1LjUzMSAzNi40MTEsOTcuMDg4IDQxLjQzOCwxMDYuOTY5TDQzLjEyNSwxMTBDNDQuMTM2LDExMS44MTcgNDUuMzE2LDExMy41MjMgNDYuNTYzLDExNS4xODhDNDcuODA3LDExNi44NSA0OC4yNDgsMTE3Ljc3IDQ5LjAzMSwxMTguODc1QzYyLjMyLDEzMy44MTEgODIuMTI5LDE0MSAxMDUsMTQxQzE1NS42NDgsMTQxIDE5OC42MzMsMTE4LjU2MiAyMTcuNjU2LDY4LjE1NkMyMzEuMTUzLDY5LjU0MSAyNDQuMSw2Ni4wOCAyNTAsNTQuNTYzQzI0MC42MDEsNDkuMTM5IDIyOC41MjIsNTAuODc3IDIyMS41NjMsNTQuMzc1TDI0MCwyTDE2OCw0OEwxNDUsNDhMMTQ1LDJMNzYsMloiLz4mI3hhOyAgICAgICAgPC9jbGlwUGF0aD4mI3hhOyAgICAgICAgPGcgY2xpcC1wYXRoPSJ1cmwoI19jbGlwMikiPiYjeGE7ICAgICAgICAgICAgPHBhdGggZD0iTTM0LDg5TDM0LDE0NkwyNTEsMTQ2TDI1MSw4OSIgc3R5bGU9ImZpbGwtb3BhY2l0eTowLjE3O2ZpbGwtcnVsZTpub256ZXJvOyIvPiYjeGE7ICAgICAgICA8L2c+JiN4YTsgICAgICAgIDxjbGlwUGF0aCBpZD0iX2NsaXAzIj4mI3hhOyAgICAgICAgICAgIDxwYXRoIGlkPSJwYXRoNDIiIGQ9Ik03NiwyTDc2LDQ4TDU0LDQ4TDU0LDcxTDM1LjU4MSw3MUMzNS41MDMsNzEuNjY2IDM1LjQzOSw3Mi4zMzMgMzUuMzc1LDczQzM0LjIyNCw4NS41MzEgMzYuNDExLDk3LjA4OCA0MS40MzgsMTA2Ljk2OUw0My4xMjUsMTEwQzQ0LjEzNiwxMTEuODE3IDQ1LjMxNiwxMTMuNTIzIDQ2LjU2MywxMTUuMTg4QzQ3LjgwNywxMTYuODUgNDguMjQ4LDExNy43NyA0OS4wMzEsMTE4Ljg3NUM2Mi4zMiwxMzMuODExIDgyLjEyOSwxNDEgMTA1LDE0MUMxNTUuNjQ4LDE0MSAxOTguNjMzLDExOC41NjIgMjE3LjY1Niw2OC4xNTZDMjMxLjE1Myw2OS41NDEgMjQ0LjEsNjYuMDggMjUwLDU0LjU2M0MyNDAuNjAxLDQ5LjEzOSAyMjguNTIyLDUwLjg3NyAyMjEuNTYzLDU0LjM3NUwyNDAsMkwxNjgsNDhMMTQ1LDQ4TDE0NSwyTDc2LDJaIi8+JiN4YTsgICAgICAgIDwvY2xpcFBhdGg+JiN4YTsgICAgICAgIDxnIGNsaXAtcGF0aD0idXJsKCNfY2xpcDMpIj4mI3hhOyAgICAgICAgICAgIDxwYXRoIGQ9Ik0xMTEuMjM3LDE0MC44OUM5Ny42OTgsMTM0LjQ2NSA5MC4yNjYsMTI1LjczMSA4Ni4xMzEsMTE2LjE5Nkw0NSwxMThMNjYsMTQ2TDExMS4yMzcsMTQwLjg5IiBzdHlsZT0iZmlsbDpyZ2IoMjEyLDIzNywyNDEpO2ZpbGwtcnVsZTpub256ZXJvOyIvPiYjeGE7ICAgICAgICA8L2c+JiN4YTsgICAgICAgIDxjbGlwUGF0aCBpZD0iX2NsaXA0Ij4mI3hhOyAgICAgICAgICAgIDxwYXRoIGlkPSJwYXRoNDQiIGQ9Ik03NiwyTDc2LDQ4TDU0LDQ4TDU0LDcxTDM1LjU4MSw3MUMzNS41MDMsNzEuNjY2IDM1LjQzOSw3Mi4zMzMgMzUuMzc1LDczQzM0LjIyNCw4NS41MzEgMzYuNDExLDk3LjA4OCA0MS40MzgsMTA2Ljk2OUw0My4xMjUsMTEwQzQ0LjEzNiwxMTEuODE3IDQ1LjMxNiwxMTMuNTIzIDQ2LjU2MywxMTUuMTg4QzQ3LjgwNywxMTYuODUgNDguMjQ4LDExNy43NyA0OS4wMzEsMTE4Ljg3NUM2Mi4zMiwxMzMuODExIDgyLjEyOSwxNDEgMTA1LDE0MUMxNTUuNjQ4LDE0MSAxOTguNjMzLDExOC41NjIgMjE3LjY1Niw2OC4xNTZDMjMxLjE1Myw2OS41NDEgMjQ0LjEsNjYuMDggMjUwLDU0LjU2M0MyNDAuNjAxLDQ5LjEzOSAyMjguNTIyLDUwLjg3NyAyMjEuNTYzLDU0LjM3NUwyNDAsMkwxNjgsNDhMMTQ1LDQ4TDE0NSwyTDc2LDJaIi8+JiN4YTsgICAgICAgIDwvY2xpcFBhdGg+JiN4YTsgICAgICAgIDxnIGNsaXAtcGF0aD0idXJsKCNfY2xpcDQpIj4mI3hhOyAgICAgICAgICAgIDxwYXRoIGQ9Ik0yMjIuNSw1My45MzhMMjIyLjUsNTMuOTY5QzIwMS42MzksODAuODU4IDE3MS43MTcsMTA0LjM0NyAxMzkuNTk0LDExNi42ODhDMTEwLjkzOSwxMjcuNjk1IDg1Ljk1NSwxMjcuNzQ4IDY4LjcxOSwxMTguOTA2QzY2Ljg2MywxMTcuODU4IDY1LjA0MywxMTYuNjk1IDYzLjIxOSwxMTUuNTk0QzUwLjU4MiwxMDYuNzYyIDQzLjQ2NCw5Mi4xNTIgNDQuMDYzLDcyLjkwNkwzNCw3Mi45MDZMMzQsMTQ2TDI1MSwxNDZMMjUxLDUwTDIyNiw1MEwyMjIuNSw1My45MzhaIiBzdHlsZT0iZmlsbC1vcGFjaXR5OjAuMDg7ZmlsbC1ydWxlOm5vbnplcm87Ii8+JiN4YTsgICAgICAgIDwvZz4mI3hhOyAgICAgICAgPHBhdGggaWQ9InBhdGg0NiIgZD0iTTQ1LjYyNSwxMTcuMDMxQzU5Ljc5LDExNy44MDcgNzQuOTA3LDExNy45NDYgODguMDk0LDExMy44MTMiIHN0eWxlPSJmaWxsOm5vbmU7ZmlsbC1ydWxlOm5vbnplcm87c3Ryb2tlOnJnYig1Nyw3Nyw4NCk7c3Ryb2tlLXdpZHRoOjMuNHB4O3N0cm9rZS1saW5lY2FwOnJvdW5kOyIvPiYjeGE7ICAgICAgICA8cGF0aCBpZD0icGF0aDQ4IiBkPSJNMTAyLjE3LDEwNi45NTlDMTAyLjE3LDEwOS45NzggOTkuNzIzLDExMi40MjYgOTYuNzA0LDExMi40MjZDOTMuNjg0LDExMi40MjYgOTEuMjM2LDEwOS45NzggOTEuMjM2LDEwNi45NTlDOTEuMjM2LDEwMy45NCA5My42ODQsMTAxLjQ5MiA5Ni43MDQsMTAxLjQ5MkM5OS43MjMsMTAxLjQ5MiAxMDIuMTcsMTAzLjk0IDEwMi4xNywxMDYuOTU5WiIgc3R5bGU9ImZpbGw6cmdiKDIxMiwyMzcsMjQxKTtmaWxsLXJ1bGU6bm9uemVybzsiLz4mI3hhOyAgICAgICAgPHBhdGggaWQ9InBhdGg1MCIgZD0iTTk4LjEyMSwxMDMuMzA4Qzk3LjY0NCwxMDMuNTg0IDk3LjMyMSwxMDQuMSA5Ny4zMjEsMTA0LjY5MkM5Ny4zMjEsMTA1LjU3NCA5OC4wMzcsMTA2LjI4OSA5OC45MTksMTA2LjI4OUM5OS41MjQsMTA2LjI4OSAxMDAuMDQ5LDEwNS45NTMgMTAwLjMyMSwxMDUuNDU3QzEwMC41MTMsMTA1LjkxOSAxMDAuNjE5LDEwNi40MjcgMTAwLjYxOSwxMDYuOTU5QzEwMC42MTksMTA5LjEyMSA5OC44NjYsMTEwLjg3NCA5Ni43MDQsMTEwLjg3NEM5NC41NDIsMTEwLjg3NCA5Mi43ODgsMTA5LjEyMSA5Mi43ODgsMTA2Ljk1OUM5Mi43ODgsMTA0Ljc5NiA5NC41NDIsMTAzLjA0MyA5Ni43MDQsMTAzLjA0M0M5Ny4yMDQsMTAzLjA0MyA5Ny42ODEsMTAzLjEzNyA5OC4xMjEsMTAzLjMwOFoiIHN0eWxlPSJmaWxsOnJnYig1Nyw3Nyw4NCk7ZmlsbC1ydWxlOm5vbnplcm87Ii8+JiN4YTsgICAgICAgIDxwYXRoIGlkPSJwYXRoNTIiIGQ9Ik0wLDkwLjE2MkwyNTQuMzI3LDkwLjE2MkMyNDguNzksODguNzU4IDIzNi44MDYsODYuODYgMjM4Ljc4Myw3OS42MDNDMjI4LjcxNCw5MS4yNTQgMjA0LjQzLDg3Ljc3NyAxOTguMzAxLDgyLjAzMUMxOTEuNDc3LDkxLjkzIDE1MS43NDcsODguMTY3IDE0OC45NzYsODAuNDU2QzE0MC40Miw5MC40OTcgMTEzLjkwOSw5MC40OTcgMTA1LjM1Myw4MC40NTZDMTAyLjU4LDg4LjE2NyA2Mi44NTEsOTEuOTMgNTYuMDI2LDgyLjAzMUM0OS44OTgsODcuNzc3IDI1LjYxNiw5MS4yNTQgMTUuNTQ2LDc5LjYwM0MxNy41MjIsODYuODYgNS41MzksODguNzU4IDAsOTAuMTYyIiBzdHlsZT0iZmlsbDpyZ2IoNTcsNzcsODQpO2ZpbGwtcnVsZTpub256ZXJvOyIvPiYjeGE7ICAgIDwvZz4mI3hhOzwvc3ZnPg==;" parent="1" vertex="1">
          <mxGeometry x="335" y="134" width="33.19" height="19" as="geometry" />
        </mxCell>
        <mxCell id="xUTtplGJXiZXMpH6DIID-135" value="" style="shape=image;verticalLabelPosition=bottom;labelBackgroundColor=#ffffff;verticalAlign=top;aspect=fixed;imageAspect=0;image=data:image/svg+xml,PHN2ZyB4bWxucz0iaHR0cDovL3d3dy53My5vcmcvMjAwMC9zdmciIHhtbG5zOnhsaW5rPSJodHRwOi8vd3d3LnczLm9yZy8xOTk5L3hsaW5rIiB4bWxuczpzZXJpZj0iaHR0cDovL3d3dy5zZXJpZi5jb20vIiB3aWR0aD0iMjU1LjA1ODk5MDQ3ODUxNTYyIiBoZWlnaHQ9IjE0NiIgdmlld0JveD0iMCAtMC4wMDA0NjUwMDAwMTkxNzU5MzE4IDI1NS4wNTg5OTA0Nzg1MTU2MiAxNDYiIHZlcnNpb249IjEuMSIgeG1sOnNwYWNlPSJwcmVzZXJ2ZSIgc3R5bGU9ImZpbGwtcnVsZTpldmVub2RkO2NsaXAtcnVsZTpldmVub2RkOyI+JiN4YTsgICAgPGcgdHJhbnNmb3JtPSJtYXRyaXgoMSwwLDAsMSwwLC0wLjAwMDQ2NSkiPiYjeGE7ICAgICAgICA8cGF0aCBpZD0icGF0aDE0IiBkPSJNMTQ3LjQ4OCw0NS43MzJMMTcwLjM1NCw0NS43MzJMMTcwLjM1NCw2OS4xMDdMMTgxLjkxNSw2OS4xMDdDMTg3LjI1NCw2OS4xMDcgMTkyLjc0Niw2OC4xNTYgMTk3LjgwMiw2Ni40NDJDMjAwLjI4Nyw2NS42IDIwMy4wNzYsNjQuNDI3IDIwNS41MjYsNjIuOTUzQzIwMi4yOTgsNTguNzM5IDIwMC42NSw1My40MTcgMjAwLjE2NSw0OC4xNzJDMTk5LjUwNyw0MS4wMzggMjAwLjk0NiwzMS43NTIgMjA1Ljc3NCwyNi4xNjhMMjA4LjE3OCwyMy4zODhMMjExLjA0MiwyNS42OUMyMTguMjUzLDMxLjQ4NCAyMjQuMzE4LDM5LjU3OSAyMjUuMzg3LDQ4LjgwOEMyMzQuMDcsNDYuMjU0IDI0NC4yNjUsNDYuODU4IDI1MS45MTksNTEuMjc2TDI1NS4wNTksNTMuMDg3TDI1My40MDYsNTYuMzEzQzI0Ni45MzMsNjguOTQ3IDIzMy40MDEsNzIuODYgMjIwLjE3MSw3Mi4xNjdDMjAwLjM3NCwxMjEuNDc2IDE1Ny4yNzMsMTQ0LjgyIDEwNS4wMTQsMTQ0LjgyQzc4LjAxNSwxNDQuODIgNTMuMjQ0LDEzNC43MjcgMzkuMTM4LDExMC43NzNDMzguMzExLDEwOS4yODUgMzcuNjAzLDEwNy43MjkgMzYuODUyLDEwNi4yMDFDMzIuMDg0LDk1LjY1NyAzMC41LDg0LjEwNiAzMS41NzQsNzIuNTY0TDMxLjg5Nyw2OS4xMDdMNTEuNDUsNjkuMTA3TDUxLjQ1LDQ1LjczMkw3NC4zMTYsNDUuNzMyTDc0LjMxNiwyMi44NjZMMTIwLjA0OCwyMi44NjZMMTIwLjA0OCwwTDE0Ny40ODcsMEwxNDcuNDg3LDQ1LjczMiIgc3R5bGU9ImZpbGw6cmdiKDU3LDc3LDg0KTtmaWxsLXJ1bGU6bm9uemVybzsiLz4mI3hhOyAgICAgICAgPGcgaWQ9InVzZTMyIiB0cmFuc2Zvcm09Im1hdHJpeCgxLDAsMCwxLC05MS40NjQsNDUuNzMyKSI+JiN4YTsgICAgICAgICAgICA8ZyBpZD0iZzIwIiB0cmFuc2Zvcm09Im1hdHJpeCgxLDAsMCwxLDAsLTIyLjg2NikiPiYjeGE7ICAgICAgICAgICAgICAgIDxyZWN0IGlkPSJwYXRoMjIiIHg9IjEyMy44NTkiIHk9IjMuODExIiB3aWR0aD0iMTkuODE4IiBoZWlnaHQ9IjE5LjgxNyIgc3R5bGU9ImZpbGw6cmdiKDAsMTcyLDIxMSk7ZmlsbC1ydWxlOm5vbnplcm87Ii8+JiN4YTsgICAgICAgICAgICAgICAgPHJlY3QgaWQ9InBhdGgyNCIgeD0iMTIzLjg1OSIgeT0iMjYuNjc2IiB3aWR0aD0iMTkuODE4IiBoZWlnaHQ9IjE5LjgxOCIgc3R5bGU9ImZpbGw6cmdiKDMyLDE5NCwyMzkpO2ZpbGwtcnVsZTpub256ZXJvOyIvPiYjeGE7ICAgICAgICAgICAgICAgIDxwYXRoIGlkPSJwYXRoMjYiIGQ9Ik0xMjYuMjkyLDIxLjk3N0wxMjYuMjkyLDUuNDYxTTEyOS4yNjQsMjEuOTc3TDEyOS4yNjQsNS40NjFNMTMyLjI2NiwyMS45NzdMMTMyLjI2Niw1LjQ2MU0xMzUuMjY5LDIxLjk3N0wxMzUuMjY5LDUuNDYxTTEzOC4yNzIsMjEuOTc3TDEzOC4yNzIsNS40NjFNMTQxLjI0NCwyMS45NzdMMTQxLjI0NCw1LjQ2MSIgc3R5bGU9ImZpbGwtcnVsZTpub256ZXJvO3N0cm9rZTpyZ2IoNTcsNzcsODQpO3N0cm9rZS13aWR0aDoxLjU2cHg7Ii8+JiN4YTsgICAgICAgICAgICAgICAgPGcgaWQ9InVzZTI4IiB0cmFuc2Zvcm09Im1hdHJpeCgxLDAsMCwxLDAsMjIuODY2KSI+JiN4YTsgICAgICAgICAgICAgICAgICAgIDxwYXRoIGQ9Ik0xMjYuMjkyLDIxLjk3N0wxMjYuMjkyLDUuNDYxTTEyOS4yNjQsMjEuOTc3TDEyOS4yNjQsNS40NjFNMTMyLjI2NiwyMS45NzdMMTMyLjI2Niw1LjQ2MU0xMzUuMjY5LDIxLjk3N0wxMzUuMjY5LDUuNDYxTTEzOC4yNzIsMjEuOTc3TDEzOC4yNzIsNS40NjFNMTQxLjI0NCwyMS45NzdMMTQxLjI0NCw1LjQ2MSIgc3R5bGU9ImZpbGwtcnVsZTpub256ZXJvO3N0cm9rZTpyZ2IoNTcsNzcsODQpO3N0cm9rZS13aWR0aDoxLjU2cHg7Ii8+JiN4YTsgICAgICAgICAgICAgICAgPC9nPiYjeGE7ICAgICAgICAgICAgPC9nPiYjeGE7ICAgICAgICAgICAgPGcgaWQ9InVzZTMwIiB0cmFuc2Zvcm09Im1hdHJpeCgxLDAsMCwtMSwyMi44NjYsMjcuNDM4NykiPiYjeGE7ICAgICAgICAgICAgICAgIDxyZWN0IGlkPSJwYXRoMjIxIiBzZXJpZjppZD0icGF0aDIyIiB4PSIxMjMuODU5IiB5PSIzLjgxMSIgd2lkdGg9IjE5LjgxOCIgaGVpZ2h0PSIxOS44MTciIHN0eWxlPSJmaWxsOnJnYigwLDE3MiwyMTEpO2ZpbGwtcnVsZTpub256ZXJvOyIvPiYjeGE7ICAgICAgICAgICAgICAgIDxyZWN0IGlkPSJwYXRoMjQxIiBzZXJpZjppZD0icGF0aDI0IiB4PSIxMjMuODU5IiB5PSIyNi42NzYiIHdpZHRoPSIxOS44MTgiIGhlaWdodD0iMTkuODE4IiBzdHlsZT0iZmlsbDpyZ2IoMzIsMTk0LDIzOSk7ZmlsbC1ydWxlOm5vbnplcm87Ii8+JiN4YTsgICAgICAgICAgICAgICAgPHBhdGggaWQ9InBhdGgyNjEiIHNlcmlmOmlkPSJwYXRoMjYiIGQ9Ik0xMjYuMjkyLDIxLjk3N0wxMjYuMjkyLDUuNDYxTTEyOS4yNjQsMjEuOTc3TDEyOS4yNjQsNS40NjFNMTMyLjI2NiwyMS45NzdMMTMyLjI2Niw1LjQ2MU0xMzUuMjY5LDIxLjk3N0wxMzUuMjY5LDUuNDYxTTEzOC4yNzIsMjEuOTc3TDEzOC4yNzIsNS40NjFNMTQxLjI0NCwyMS45NzdMMTQxLjI0NCw1LjQ2MSIgc3R5bGU9ImZpbGwtcnVsZTpub256ZXJvO3N0cm9rZTpyZ2IoNTcsNzcsODQpO3N0cm9rZS13aWR0aDoxLjU2cHg7Ii8+JiN4YTsgICAgICAgICAgICAgICAgPGcgaWQ9InVzZTI4MSIgc2VyaWY6aWQ9InVzZTI4IiB0cmFuc2Zvcm09Im1hdHJpeCgxLDAsMCwxLDAsMjIuODY2KSI+JiN4YTsgICAgICAgICAgICAgICAgICAgIDxwYXRoIGQ9Ik0xMjYuMjkyLDIxLjk3N0wxMjYuMjkyLDUuNDYxTTEyOS4yNjQsMjEuOTc3TDEyOS4yNjQsNS40NjFNMTMyLjI2NiwyMS45NzdMMTMyLjI2Niw1LjQ2MU0xMzUuMjY5LDIxLjk3N0wxMzUuMjY5LDUuNDYxTTEzOC4yNzIsMjEuOTc3TDEzOC4yNzIsNS40NjFNMTQxLjI0NCwyMS45NzdMMTQxLjI0NCw1LjQ2MSIgc3R5bGU9ImZpbGwtcnVsZTpub256ZXJvO3N0cm9rZTpyZ2IoNTcsNzcsODQpO3N0cm9rZS13aWR0aDoxLjU2cHg7Ii8+JiN4YTsgICAgICAgICAgICAgICAgPC9nPiYjeGE7ICAgICAgICAgICAgPC9nPiYjeGE7ICAgICAgICA8L2c+JiN4YTsgICAgICAgIDxnIGlkPSJ1c2UzNCIgdHJhbnNmb3JtPSJtYXRyaXgoMSwwLDAsMSwtNDUuNzMyLDQ1LjczMikiPiYjeGE7ICAgICAgICAgICAgPGcgaWQ9ImcyMDEiIHNlcmlmOmlkPSJnMjAiIHRyYW5zZm9ybT0ibWF0cml4KDEsMCwwLDEsMCwtMjIuODY2KSI+JiN4YTsgICAgICAgICAgICAgICAgPHJlY3QgaWQ9InBhdGgyMjIiIHNlcmlmOmlkPSJwYXRoMjIiIHg9IjEyMy44NTkiIHk9IjMuODExIiB3aWR0aD0iMTkuODE4IiBoZWlnaHQ9IjE5LjgxNyIgc3R5bGU9ImZpbGw6cmdiKDAsMTcyLDIxMSk7ZmlsbC1ydWxlOm5vbnplcm87Ii8+JiN4YTsgICAgICAgICAgICAgICAgPHJlY3QgaWQ9InBhdGgyNDIiIHNlcmlmOmlkPSJwYXRoMjQiIHg9IjEyMy44NTkiIHk9IjI2LjY3NiIgd2lkdGg9IjE5LjgxOCIgaGVpZ2h0PSIxOS44MTgiIHN0eWxlPSJmaWxsOnJnYigzMiwxOTQsMjM5KTtmaWxsLXJ1bGU6bm9uemVybzsiLz4mI3hhOyAgICAgICAgICAgICAgICA8cGF0aCBpZD0icGF0aDI2MiIgc2VyaWY6aWQ9InBhdGgyNiIgZD0iTTEyNi4yOTIsMjEuOTc3TDEyNi4yOTIsNS40NjFNMTI5LjI2NCwyMS45NzdMMTI5LjI2NCw1LjQ2MU0xMzIuMjY2LDIxLjk3N0wxMzIuMjY2LDUuNDYxTTEzNS4yNjksMjEuOTc3TDEzNS4yNjksNS40NjFNMTM4LjI3MiwyMS45NzdMMTM4LjI3Miw1LjQ2MU0xNDEuMjQ0LDIxLjk3N0wxNDEuMjQ0LDUuNDYxIiBzdHlsZT0iZmlsbC1ydWxlOm5vbnplcm87c3Ryb2tlOnJnYig1Nyw3Nyw4NCk7c3Ryb2tlLXdpZHRoOjEuNTZweDsiLz4mI3hhOyAgICAgICAgICAgICAgICA8ZyBpZD0idXNlMjgyIiBzZXJpZjppZD0idXNlMjgiIHRyYW5zZm9ybT0ibWF0cml4KDEsMCwwLDEsMCwyMi44NjYpIj4mI3hhOyAgICAgICAgICAgICAgICAgICAgPHBhdGggZD0iTTEyNi4yOTIsMjEuOTc3TDEyNi4yOTIsNS40NjFNMTI5LjI2NCwyMS45NzdMMTI5LjI2NCw1LjQ2MU0xMzIuMjY2LDIxLjk3N0wxMzIuMjY2LDUuNDYxTTEzNS4yNjksMjEuOTc3TDEzNS4yNjksNS40NjFNMTM4LjI3MiwyMS45NzdMMTM4LjI3Miw1LjQ2MU0xNDEuMjQ0LDIxLjk3N0wxNDEuMjQ0LDUuNDYxIiBzdHlsZT0iZmlsbC1ydWxlOm5vbnplcm87c3Ryb2tlOnJnYig1Nyw3Nyw4NCk7c3Ryb2tlLXdpZHRoOjEuNTZweDsiLz4mI3hhOyAgICAgICAgICAgICAgICA8L2c+JiN4YTsgICAgICAgICAgICA8L2c+JiN4YTsgICAgICAgICAgICA8ZyBpZD0idXNlMzAxIiBzZXJpZjppZD0idXNlMzAiIHRyYW5zZm9ybT0ibWF0cml4KDEsMCwwLC0xLDIyLjg2NiwyNy40Mzg3KSI+JiN4YTsgICAgICAgICAgICAgICAgPHJlY3QgaWQ9InBhdGgyMjMiIHNlcmlmOmlkPSJwYXRoMjIiIHg9IjEyMy44NTkiIHk9IjMuODExIiB3aWR0aD0iMTkuODE4IiBoZWlnaHQ9IjE5LjgxNyIgc3R5bGU9ImZpbGw6cmdiKDAsMTcyLDIxMSk7ZmlsbC1ydWxlOm5vbnplcm87Ii8+JiN4YTsgICAgICAgICAgICAgICAgPHJlY3QgaWQ9InBhdGgyNDMiIHNlcmlmOmlkPSJwYXRoMjQiIHg9IjEyMy44NTkiIHk9IjI2LjY3NiIgd2lkdGg9IjE5LjgxOCIgaGVpZ2h0PSIxOS44MTgiIHN0eWxlPSJmaWxsOnJnYigzMiwxOTQsMjM5KTtmaWxsLXJ1bGU6bm9uemVybzsiLz4mI3hhOyAgICAgICAgICAgICAgICA8cGF0aCBpZD0icGF0aDI2MyIgc2VyaWY6aWQ9InBhdGgyNiIgZD0iTTEyNi4yOTIsMjEuOTc3TDEyNi4yOTIsNS40NjFNMTI5LjI2NCwyMS45NzdMMTI5LjI2NCw1LjQ2MU0xMzIuMjY2LDIxLjk3N0wxMzIuMjY2LDUuNDYxTTEzNS4yNjksMjEuOTc3TDEzNS4yNjksNS40NjFNMTM4LjI3MiwyMS45NzdMMTM4LjI3Miw1LjQ2MU0xNDEuMjQ0LDIxLjk3N0wxNDEuMjQ0LDUuNDYxIiBzdHlsZT0iZmlsbC1ydWxlOm5vbnplcm87c3Ryb2tlOnJnYig1Nyw3Nyw4NCk7c3Ryb2tlLXdpZHRoOjEuNTZweDsiLz4mI3hhOyAgICAgICAgICAgICAgICA8ZyBpZD0idXNlMjgzIiBzZXJpZjppZD0idXNlMjgiIHRyYW5zZm9ybT0ibWF0cml4KDEsMCwwLDEsMCwyMi44NjYpIj4mI3hhOyAgICAgICAgICAgICAgICAgICAgPHBhdGggZD0iTTEyNi4yOTIsMjEuOTc3TDEyNi4yOTIsNS40NjFNMTI5LjI2NCwyMS45NzdMMTI5LjI2NCw1LjQ2MU0xMzIuMjY2LDIxLjk3N0wxMzIuMjY2LDUuNDYxTTEzNS4yNjksMjEuOTc3TDEzNS4yNjksNS40NjFNMTM4LjI3MiwyMS45NzdMMTM4LjI3Miw1LjQ2MU0xNDEuMjQ0LDIxLjk3N0wxNDEuMjQ0LDUuNDYxIiBzdHlsZT0iZmlsbC1ydWxlOm5vbnplcm87c3Ryb2tlOnJnYig1Nyw3Nyw4NCk7c3Ryb2tlLXdpZHRoOjEuNTZweDsiLz4mI3hhOyAgICAgICAgICAgICAgICA8L2c+JiN4YTsgICAgICAgICAgICA8L2c+JiN4YTsgICAgICAgIDwvZz4mI3hhOyAgICAgICAgPGcgaWQ9InVzZTM2IiB0cmFuc2Zvcm09Im1hdHJpeCgxLDAsMCwxLDAsNDUuNzMyKSI+JiN4YTsgICAgICAgICAgICA8ZyBpZD0iZzIwMiIgc2VyaWY6aWQ9ImcyMCIgdHJhbnNmb3JtPSJtYXRyaXgoMSwwLDAsMSwwLC0yMi44NjYpIj4mI3hhOyAgICAgICAgICAgICAgICA8cmVjdCBpZD0icGF0aDIyNCIgc2VyaWY6aWQ9InBhdGgyMiIgeD0iMTIzLjg1OSIgeT0iMy44MTEiIHdpZHRoPSIxOS44MTgiIGhlaWdodD0iMTkuODE3IiBzdHlsZT0iZmlsbDpyZ2IoMCwxNzIsMjExKTtmaWxsLXJ1bGU6bm9uemVybzsiLz4mI3hhOyAgICAgICAgICAgICAgICA8cmVjdCBpZD0icGF0aDI0NCIgc2VyaWY6aWQ9InBhdGgyNCIgeD0iMTIzLjg1OSIgeT0iMjYuNjc2IiB3aWR0aD0iMTkuODE4IiBoZWlnaHQ9IjE5LjgxOCIgc3R5bGU9ImZpbGw6cmdiKDMyLDE5NCwyMzkpO2ZpbGwtcnVsZTpub256ZXJvOyIvPiYjeGE7ICAgICAgICAgICAgICAgIDxwYXRoIGlkPSJwYXRoMjY0IiBzZXJpZjppZD0icGF0aDI2IiBkPSJNMTI2LjI5MiwyMS45NzdMMTI2LjI5Miw1LjQ2MU0xMjkuMjY0LDIxLjk3N0wxMjkuMjY0LDUuNDYxTTEzMi4yNjYsMjEuOTc3TDEzMi4yNjYsNS40NjFNMTM1LjI2OSwyMS45NzdMMTM1LjI2OSw1LjQ2MU0xMzguMjcyLDIxLjk3N0wxMzguMjcyLDUuNDYxTTE0MS4yNDQsMjEuOTc3TDE0MS4yNDQsNS40NjEiIHN0eWxlPSJmaWxsLXJ1bGU6bm9uemVybztzdHJva2U6cmdiKDU3LDc3LDg0KTtzdHJva2Utd2lkdGg6MS41NnB4OyIvPiYjeGE7ICAgICAgICAgICAgICAgIDxnIGlkPSJ1c2UyODQiIHNlcmlmOmlkPSJ1c2UyOCIgdHJhbnNmb3JtPSJtYXRyaXgoMSwwLDAsMSwwLDIyLjg2NikiPiYjeGE7ICAgICAgICAgICAgICAgICAgICA8cGF0aCBkPSJNMTI2LjI5MiwyMS45NzdMMTI2LjI5Miw1LjQ2MU0xMjkuMjY0LDIxLjk3N0wxMjkuMjY0LDUuNDYxTTEzMi4yNjYsMjEuOTc3TDEzMi4yNjYsNS40NjFNMTM1LjI2OSwyMS45NzdMMTM1LjI2OSw1LjQ2MU0xMzguMjcyLDIxLjk3N0wxMzguMjcyLDUuNDYxTTE0MS4yNDQsMjEuOTc3TDE0MS4yNDQsNS40NjEiIHN0eWxlPSJmaWxsLXJ1bGU6bm9uemVybztzdHJva2U6cmdiKDU3LDc3LDg0KTtzdHJva2Utd2lkdGg6MS41NnB4OyIvPiYjeGE7ICAgICAgICAgICAgICAgIDwvZz4mI3hhOyAgICAgICAgICAgIDwvZz4mI3hhOyAgICAgICAgICAgIDxnIGlkPSJ1c2UzMDIiIHNlcmlmOmlkPSJ1c2UzMCIgdHJhbnNmb3JtPSJtYXRyaXgoMSwwLDAsLTEsMjIuODY2LDI3LjQzODcpIj4mI3hhOyAgICAgICAgICAgICAgICA8cmVjdCBpZD0icGF0aDIyNSIgc2VyaWY6aWQ9InBhdGgyMiIgeD0iMTIzLjg1OSIgeT0iMy44MTEiIHdpZHRoPSIxOS44MTgiIGhlaWdodD0iMTkuODE3IiBzdHlsZT0iZmlsbDpyZ2IoMCwxNzIsMjExKTtmaWxsLXJ1bGU6bm9uemVybzsiLz4mI3hhOyAgICAgICAgICAgICAgICA8cmVjdCBpZD0icGF0aDI0NSIgc2VyaWY6aWQ9InBhdGgyNCIgeD0iMTIzLjg1OSIgeT0iMjYuNjc2IiB3aWR0aD0iMTkuODE4IiBoZWlnaHQ9IjE5LjgxOCIgc3R5bGU9ImZpbGw6cmdiKDMyLDE5NCwyMzkpO2ZpbGwtcnVsZTpub256ZXJvOyIvPiYjeGE7ICAgICAgICAgICAgICAgIDxwYXRoIGlkPSJwYXRoMjY1IiBzZXJpZjppZD0icGF0aDI2IiBkPSJNMTI2LjI5MiwyMS45NzdMMTI2LjI5Miw1LjQ2MU0xMjkuMjY0LDIxLjk3N0wxMjkuMjY0LDUuNDYxTTEzMi4yNjYsMjEuOTc3TDEzMi4yNjYsNS40NjFNMTM1LjI2OSwyMS45NzdMMTM1LjI2OSw1LjQ2MU0xMzguMjcyLDIxLjk3N0wxMzguMjcyLDUuNDYxTTE0MS4yNDQsMjEuOTc3TDE0MS4yNDQsNS40NjEiIHN0eWxlPSJmaWxsLXJ1bGU6bm9uemVybztzdHJva2U6cmdiKDU3LDc3LDg0KTtzdHJva2Utd2lkdGg6MS41NnB4OyIvPiYjeGE7ICAgICAgICAgICAgICAgIDxnIGlkPSJ1c2UyODUiIHNlcmlmOmlkPSJ1c2UyOCIgdHJhbnNmb3JtPSJtYXRyaXgoMSwwLDAsMSwwLDIyLjg2NikiPiYjeGE7ICAgICAgICAgICAgICAgICAgICA8cGF0aCBkPSJNMTI2LjI5MiwyMS45NzdMMTI2LjI5Miw1LjQ2MU0xMjkuMjY0LDIxLjk3N0wxMjkuMjY0LDUuNDYxTTEzMi4yNjYsMjEuOTc3TDEzMi4yNjYsNS40NjFNMTM1LjI2OSwyMS45NzdMMTM1LjI2OSw1LjQ2MU0xMzguMjcyLDIxLjk3N0wxMzguMjcyLDUuNDYxTTE0MS4yNDQsMjEuOTc3TDE0MS4yNDQsNS40NjEiIHN0eWxlPSJmaWxsLXJ1bGU6bm9uemVybztzdHJva2U6cmdiKDU3LDc3LDg0KTtzdHJva2Utd2lkdGg6MS41NnB4OyIvPiYjeGE7ICAgICAgICAgICAgICAgIDwvZz4mI3hhOyAgICAgICAgICAgIDwvZz4mI3hhOyAgICAgICAgPC9nPiYjeGE7ICAgICAgICA8Y2xpcFBhdGggaWQ9Il9jbGlwMSI+JiN4YTsgICAgICAgICAgICA8cGF0aCBpZD0icGF0aDM4IiBkPSJNNzYsMkw3Niw0OEw1NCw0OEw1NCw3MUwzNS41ODEsNzFDMzUuNTAzLDcxLjY2NiAzNS40MzksNzIuMzMzIDM1LjM3NSw3M0MzNC4yMjQsODUuNTMxIDM2LjQxMSw5Ny4wODggNDEuNDM4LDEwNi45NjlMNDMuMTI1LDExMEM0NC4xMzYsMTExLjgxNyA0NS4zMTYsMTEzLjUyMyA0Ni41NjMsMTE1LjE4OEM0Ny44MDcsMTE2Ljg1IDQ4LjI0OCwxMTcuNzcgNDkuMDMxLDExOC44NzVDNjIuMzIsMTMzLjgxMSA4Mi4xMjksMTQxIDEwNSwxNDFDMTU1LjY0OCwxNDEgMTk4LjYzMywxMTguNTYyIDIxNy42NTYsNjguMTU2QzIzMS4xNTMsNjkuNTQxIDI0NC4xLDY2LjA4IDI1MCw1NC41NjNDMjQwLjYwMSw0OS4xMzkgMjI4LjUyMiw1MC44NzcgMjIxLjU2Myw1NC4zNzVMMjQwLDJMMTY4LDQ4TDE0NSw0OEwxNDUsMkw3NiwyWiIvPiYjeGE7ICAgICAgICA8L2NsaXBQYXRoPiYjeGE7ICAgICAgICA8ZyBjbGlwLXBhdGg9InVybCgjX2NsaXAxKSI+JiN4YTsgICAgICAgICAgICA8cGF0aCBkPSJNMjIxLjU3LDU0LjM4QzIyMy4xMDMsNDIuNDY0IDIxNC4xODYsMzMuMTA1IDIwOC42NTYsMjguNjYxQzIwMi4yODMsMzYuMDI5IDIwMS4yOTMsNTUuMzM5IDIxMS4yOTEsNjMuNDY5QzIwNS43MTIsNjguNDI1IDE5My45NTQsNzIuOTE3IDE4MS45MTUsNzIuOTE3TDM0LDcyLjkxN0MzMi44MjksODUuNDg0IDM0LDE0NiAzNCwxNDZMMjUxLDE0NkwyNTAuMDEzLDU0LjU3NkMyNDAuNjE1LDQ5LjE1MiAyMjguNTI5LDUwLjg4MiAyMjEuNTcsNTQuMzc5IiBzdHlsZT0iZmlsbDpyZ2IoMjMsMTgxLDIzNSk7ZmlsbC1ydWxlOm5vbnplcm87Ii8+JiN4YTsgICAgICAgIDwvZz4mI3hhOyAgICAgICAgPGNsaXBQYXRoIGlkPSJfY2xpcDIiPiYjeGE7ICAgICAgICAgICAgPHBhdGggaWQ9InBhdGg0MCIgZD0iTTc2LDJMNzYsNDhMNTQsNDhMNTQsNzFMMzUuNTgxLDcxQzM1LjUwMyw3MS42NjYgMzUuNDM5LDcyLjMzMyAzNS4zNzUsNzNDMzQuMjI0LDg1LjUzMSAzNi40MTEsOTcuMDg4IDQxLjQzOCwxMDYuOTY5TDQzLjEyNSwxMTBDNDQuMTM2LDExMS44MTcgNDUuMzE2LDExMy41MjMgNDYuNTYzLDExNS4xODhDNDcuODA3LDExNi44NSA0OC4yNDgsMTE3Ljc3IDQ5LjAzMSwxMTguODc1QzYyLjMyLDEzMy44MTEgODIuMTI5LDE0MSAxMDUsMTQxQzE1NS42NDgsMTQxIDE5OC42MzMsMTE4LjU2MiAyMTcuNjU2LDY4LjE1NkMyMzEuMTUzLDY5LjU0MSAyNDQuMSw2Ni4wOCAyNTAsNTQuNTYzQzI0MC42MDEsNDkuMTM5IDIyOC41MjIsNTAuODc3IDIyMS41NjMsNTQuMzc1TDI0MCwyTDE2OCw0OEwxNDUsNDhMMTQ1LDJMNzYsMloiLz4mI3hhOyAgICAgICAgPC9jbGlwUGF0aD4mI3hhOyAgICAgICAgPGcgY2xpcC1wYXRoPSJ1cmwoI19jbGlwMikiPiYjeGE7ICAgICAgICAgICAgPHBhdGggZD0iTTM0LDg5TDM0LDE0NkwyNTEsMTQ2TDI1MSw4OSIgc3R5bGU9ImZpbGwtb3BhY2l0eTowLjE3O2ZpbGwtcnVsZTpub256ZXJvOyIvPiYjeGE7ICAgICAgICA8L2c+JiN4YTsgICAgICAgIDxjbGlwUGF0aCBpZD0iX2NsaXAzIj4mI3hhOyAgICAgICAgICAgIDxwYXRoIGlkPSJwYXRoNDIiIGQ9Ik03NiwyTDc2LDQ4TDU0LDQ4TDU0LDcxTDM1LjU4MSw3MUMzNS41MDMsNzEuNjY2IDM1LjQzOSw3Mi4zMzMgMzUuMzc1LDczQzM0LjIyNCw4NS41MzEgMzYuNDExLDk3LjA4OCA0MS40MzgsMTA2Ljk2OUw0My4xMjUsMTEwQzQ0LjEzNiwxMTEuODE3IDQ1LjMxNiwxMTMuNTIzIDQ2LjU2MywxMTUuMTg4QzQ3LjgwNywxMTYuODUgNDguMjQ4LDExNy43NyA0OS4wMzEsMTE4Ljg3NUM2Mi4zMiwxMzMuODExIDgyLjEyOSwxNDEgMTA1LDE0MUMxNTUuNjQ4LDE0MSAxOTguNjMzLDExOC41NjIgMjE3LjY1Niw2OC4xNTZDMjMxLjE1Myw2OS41NDEgMjQ0LjEsNjYuMDggMjUwLDU0LjU2M0MyNDAuNjAxLDQ5LjEzOSAyMjguNTIyLDUwLjg3NyAyMjEuNTYzLDU0LjM3NUwyNDAsMkwxNjgsNDhMMTQ1LDQ4TDE0NSwyTDc2LDJaIi8+JiN4YTsgICAgICAgIDwvY2xpcFBhdGg+JiN4YTsgICAgICAgIDxnIGNsaXAtcGF0aD0idXJsKCNfY2xpcDMpIj4mI3hhOyAgICAgICAgICAgIDxwYXRoIGQ9Ik0xMTEuMjM3LDE0MC44OUM5Ny42OTgsMTM0LjQ2NSA5MC4yNjYsMTI1LjczMSA4Ni4xMzEsMTE2LjE5Nkw0NSwxMThMNjYsMTQ2TDExMS4yMzcsMTQwLjg5IiBzdHlsZT0iZmlsbDpyZ2IoMjEyLDIzNywyNDEpO2ZpbGwtcnVsZTpub256ZXJvOyIvPiYjeGE7ICAgICAgICA8L2c+JiN4YTsgICAgICAgIDxjbGlwUGF0aCBpZD0iX2NsaXA0Ij4mI3hhOyAgICAgICAgICAgIDxwYXRoIGlkPSJwYXRoNDQiIGQ9Ik03NiwyTDc2LDQ4TDU0LDQ4TDU0LDcxTDM1LjU4MSw3MUMzNS41MDMsNzEuNjY2IDM1LjQzOSw3Mi4zMzMgMzUuMzc1LDczQzM0LjIyNCw4NS41MzEgMzYuNDExLDk3LjA4OCA0MS40MzgsMTA2Ljk2OUw0My4xMjUsMTEwQzQ0LjEzNiwxMTEuODE3IDQ1LjMxNiwxMTMuNTIzIDQ2LjU2MywxMTUuMTg4QzQ3LjgwNywxMTYuODUgNDguMjQ4LDExNy43NyA0OS4wMzEsMTE4Ljg3NUM2Mi4zMiwxMzMuODExIDgyLjEyOSwxNDEgMTA1LDE0MUMxNTUuNjQ4LDE0MSAxOTguNjMzLDExOC41NjIgMjE3LjY1Niw2OC4xNTZDMjMxLjE1Myw2OS41NDEgMjQ0LjEsNjYuMDggMjUwLDU0LjU2M0MyNDAuNjAxLDQ5LjEzOSAyMjguNTIyLDUwLjg3NyAyMjEuNTYzLDU0LjM3NUwyNDAsMkwxNjgsNDhMMTQ1LDQ4TDE0NSwyTDc2LDJaIi8+JiN4YTsgICAgICAgIDwvY2xpcFBhdGg+JiN4YTsgICAgICAgIDxnIGNsaXAtcGF0aD0idXJsKCNfY2xpcDQpIj4mI3hhOyAgICAgICAgICAgIDxwYXRoIGQ9Ik0yMjIuNSw1My45MzhMMjIyLjUsNTMuOTY5QzIwMS42MzksODAuODU4IDE3MS43MTcsMTA0LjM0NyAxMzkuNTk0LDExNi42ODhDMTEwLjkzOSwxMjcuNjk1IDg1Ljk1NSwxMjcuNzQ4IDY4LjcxOSwxMTguOTA2QzY2Ljg2MywxMTcuODU4IDY1LjA0MywxMTYuNjk1IDYzLjIxOSwxMTUuNTk0QzUwLjU4MiwxMDYuNzYyIDQzLjQ2NCw5Mi4xNTIgNDQuMDYzLDcyLjkwNkwzNCw3Mi45MDZMMzQsMTQ2TDI1MSwxNDZMMjUxLDUwTDIyNiw1MEwyMjIuNSw1My45MzhaIiBzdHlsZT0iZmlsbC1vcGFjaXR5OjAuMDg7ZmlsbC1ydWxlOm5vbnplcm87Ii8+JiN4YTsgICAgICAgIDwvZz4mI3hhOyAgICAgICAgPHBhdGggaWQ9InBhdGg0NiIgZD0iTTQ1LjYyNSwxMTcuMDMxQzU5Ljc5LDExNy44MDcgNzQuOTA3LDExNy45NDYgODguMDk0LDExMy44MTMiIHN0eWxlPSJmaWxsOm5vbmU7ZmlsbC1ydWxlOm5vbnplcm87c3Ryb2tlOnJnYig1Nyw3Nyw4NCk7c3Ryb2tlLXdpZHRoOjMuNHB4O3N0cm9rZS1saW5lY2FwOnJvdW5kOyIvPiYjeGE7ICAgICAgICA8cGF0aCBpZD0icGF0aDQ4IiBkPSJNMTAyLjE3LDEwNi45NTlDMTAyLjE3LDEwOS45NzggOTkuNzIzLDExMi40MjYgOTYuNzA0LDExMi40MjZDOTMuNjg0LDExMi40MjYgOTEuMjM2LDEwOS45NzggOTEuMjM2LDEwNi45NTlDOTEuMjM2LDEwMy45NCA5My42ODQsMTAxLjQ5MiA5Ni43MDQsMTAxLjQ5MkM5OS43MjMsMTAxLjQ5MiAxMDIuMTcsMTAzLjk0IDEwMi4xNywxMDYuOTU5WiIgc3R5bGU9ImZpbGw6cmdiKDIxMiwyMzcsMjQxKTtmaWxsLXJ1bGU6bm9uemVybzsiLz4mI3hhOyAgICAgICAgPHBhdGggaWQ9InBhdGg1MCIgZD0iTTk4LjEyMSwxMDMuMzA4Qzk3LjY0NCwxMDMuNTg0IDk3LjMyMSwxMDQuMSA5Ny4zMjEsMTA0LjY5MkM5Ny4zMjEsMTA1LjU3NCA5OC4wMzcsMTA2LjI4OSA5OC45MTksMTA2LjI4OUM5OS41MjQsMTA2LjI4OSAxMDAuMDQ5LDEwNS45NTMgMTAwLjMyMSwxMDUuNDU3QzEwMC41MTMsMTA1LjkxOSAxMDAuNjE5LDEwNi40MjcgMTAwLjYxOSwxMDYuOTU5QzEwMC42MTksMTA5LjEyMSA5OC44NjYsMTEwLjg3NCA5Ni43MDQsMTEwLjg3NEM5NC41NDIsMTEwLjg3NCA5Mi43ODgsMTA5LjEyMSA5Mi43ODgsMTA2Ljk1OUM5Mi43ODgsMTA0Ljc5NiA5NC41NDIsMTAzLjA0MyA5Ni43MDQsMTAzLjA0M0M5Ny4yMDQsMTAzLjA0MyA5Ny42ODEsMTAzLjEzNyA5OC4xMjEsMTAzLjMwOFoiIHN0eWxlPSJmaWxsOnJnYig1Nyw3Nyw4NCk7ZmlsbC1ydWxlOm5vbnplcm87Ii8+JiN4YTsgICAgICAgIDxwYXRoIGlkPSJwYXRoNTIiIGQ9Ik0wLDkwLjE2MkwyNTQuMzI3LDkwLjE2MkMyNDguNzksODguNzU4IDIzNi44MDYsODYuODYgMjM4Ljc4Myw3OS42MDNDMjI4LjcxNCw5MS4yNTQgMjA0LjQzLDg3Ljc3NyAxOTguMzAxLDgyLjAzMUMxOTEuNDc3LDkxLjkzIDE1MS43NDcsODguMTY3IDE0OC45NzYsODAuNDU2QzE0MC40Miw5MC40OTcgMTEzLjkwOSw5MC40OTcgMTA1LjM1Myw4MC40NTZDMTAyLjU4LDg4LjE2NyA2Mi44NTEsOTEuOTMgNTYuMDI2LDgyLjAzMUM0OS44OTgsODcuNzc3IDI1LjYxNiw5MS4yNTQgMTUuNTQ2LDc5LjYwM0MxNy41MjIsODYuODYgNS41MzksODguNzU4IDAsOTAuMTYyIiBzdHlsZT0iZmlsbDpyZ2IoNTcsNzcsODQpO2ZpbGwtcnVsZTpub256ZXJvOyIvPiYjeGE7ICAgIDwvZz4mI3hhOzwvc3ZnPg==;" parent="1" vertex="1">
          <mxGeometry x="335" y="373" width="33.19" height="19" as="geometry" />
        </mxCell>
        <mxCell id="xUTtplGJXiZXMpH6DIID-136" value="" style="shape=image;verticalLabelPosition=bottom;labelBackgroundColor=#ffffff;verticalAlign=top;aspect=fixed;imageAspect=0;image=data:image/svg+xml,PHN2ZyB4bWxucz0iaHR0cDovL3d3dy53My5vcmcvMjAwMC9zdmciIHhtbG5zOnhsaW5rPSJodHRwOi8vd3d3LnczLm9yZy8xOTk5L3hsaW5rIiB4bWxuczpzZXJpZj0iaHR0cDovL3d3dy5zZXJpZi5jb20vIiB3aWR0aD0iMjU1LjA1ODk5MDQ3ODUxNTYyIiBoZWlnaHQ9IjE0NiIgdmlld0JveD0iMCAtMC4wMDA0NjUwMDAwMTkxNzU5MzE4IDI1NS4wNTg5OTA0Nzg1MTU2MiAxNDYiIHZlcnNpb249IjEuMSIgeG1sOnNwYWNlPSJwcmVzZXJ2ZSIgc3R5bGU9ImZpbGwtcnVsZTpldmVub2RkO2NsaXAtcnVsZTpldmVub2RkOyI+JiN4YTsgICAgPGcgdHJhbnNmb3JtPSJtYXRyaXgoMSwwLDAsMSwwLC0wLjAwMDQ2NSkiPiYjeGE7ICAgICAgICA8cGF0aCBpZD0icGF0aDE0IiBkPSJNMTQ3LjQ4OCw0NS43MzJMMTcwLjM1NCw0NS43MzJMMTcwLjM1NCw2OS4xMDdMMTgxLjkxNSw2OS4xMDdDMTg3LjI1NCw2OS4xMDcgMTkyLjc0Niw2OC4xNTYgMTk3LjgwMiw2Ni40NDJDMjAwLjI4Nyw2NS42IDIwMy4wNzYsNjQuNDI3IDIwNS41MjYsNjIuOTUzQzIwMi4yOTgsNTguNzM5IDIwMC42NSw1My40MTcgMjAwLjE2NSw0OC4xNzJDMTk5LjUwNyw0MS4wMzggMjAwLjk0NiwzMS43NTIgMjA1Ljc3NCwyNi4xNjhMMjA4LjE3OCwyMy4zODhMMjExLjA0MiwyNS42OUMyMTguMjUzLDMxLjQ4NCAyMjQuMzE4LDM5LjU3OSAyMjUuMzg3LDQ4LjgwOEMyMzQuMDcsNDYuMjU0IDI0NC4yNjUsNDYuODU4IDI1MS45MTksNTEuMjc2TDI1NS4wNTksNTMuMDg3TDI1My40MDYsNTYuMzEzQzI0Ni45MzMsNjguOTQ3IDIzMy40MDEsNzIuODYgMjIwLjE3MSw3Mi4xNjdDMjAwLjM3NCwxMjEuNDc2IDE1Ny4yNzMsMTQ0LjgyIDEwNS4wMTQsMTQ0LjgyQzc4LjAxNSwxNDQuODIgNTMuMjQ0LDEzNC43MjcgMzkuMTM4LDExMC43NzNDMzguMzExLDEwOS4yODUgMzcuNjAzLDEwNy43MjkgMzYuODUyLDEwNi4yMDFDMzIuMDg0LDk1LjY1NyAzMC41LDg0LjEwNiAzMS41NzQsNzIuNTY0TDMxLjg5Nyw2OS4xMDdMNTEuNDUsNjkuMTA3TDUxLjQ1LDQ1LjczMkw3NC4zMTYsNDUuNzMyTDc0LjMxNiwyMi44NjZMMTIwLjA0OCwyMi44NjZMMTIwLjA0OCwwTDE0Ny40ODcsMEwxNDcuNDg3LDQ1LjczMiIgc3R5bGU9ImZpbGw6cmdiKDU3LDc3LDg0KTtmaWxsLXJ1bGU6bm9uemVybzsiLz4mI3hhOyAgICAgICAgPGcgaWQ9InVzZTMyIiB0cmFuc2Zvcm09Im1hdHJpeCgxLDAsMCwxLC05MS40NjQsNDUuNzMyKSI+JiN4YTsgICAgICAgICAgICA8ZyBpZD0iZzIwIiB0cmFuc2Zvcm09Im1hdHJpeCgxLDAsMCwxLDAsLTIyLjg2NikiPiYjeGE7ICAgICAgICAgICAgICAgIDxyZWN0IGlkPSJwYXRoMjIiIHg9IjEyMy44NTkiIHk9IjMuODExIiB3aWR0aD0iMTkuODE4IiBoZWlnaHQ9IjE5LjgxNyIgc3R5bGU9ImZpbGw6cmdiKDAsMTcyLDIxMSk7ZmlsbC1ydWxlOm5vbnplcm87Ii8+JiN4YTsgICAgICAgICAgICAgICAgPHJlY3QgaWQ9InBhdGgyNCIgeD0iMTIzLjg1OSIgeT0iMjYuNjc2IiB3aWR0aD0iMTkuODE4IiBoZWlnaHQ9IjE5LjgxOCIgc3R5bGU9ImZpbGw6cmdiKDMyLDE5NCwyMzkpO2ZpbGwtcnVsZTpub256ZXJvOyIvPiYjeGE7ICAgICAgICAgICAgICAgIDxwYXRoIGlkPSJwYXRoMjYiIGQ9Ik0xMjYuMjkyLDIxLjk3N0wxMjYuMjkyLDUuNDYxTTEyOS4yNjQsMjEuOTc3TDEyOS4yNjQsNS40NjFNMTMyLjI2NiwyMS45NzdMMTMyLjI2Niw1LjQ2MU0xMzUuMjY5LDIxLjk3N0wxMzUuMjY5LDUuNDYxTTEzOC4yNzIsMjEuOTc3TDEzOC4yNzIsNS40NjFNMTQxLjI0NCwyMS45NzdMMTQxLjI0NCw1LjQ2MSIgc3R5bGU9ImZpbGwtcnVsZTpub256ZXJvO3N0cm9rZTpyZ2IoNTcsNzcsODQpO3N0cm9rZS13aWR0aDoxLjU2cHg7Ii8+JiN4YTsgICAgICAgICAgICAgICAgPGcgaWQ9InVzZTI4IiB0cmFuc2Zvcm09Im1hdHJpeCgxLDAsMCwxLDAsMjIuODY2KSI+JiN4YTsgICAgICAgICAgICAgICAgICAgIDxwYXRoIGQ9Ik0xMjYuMjkyLDIxLjk3N0wxMjYuMjkyLDUuNDYxTTEyOS4yNjQsMjEuOTc3TDEyOS4yNjQsNS40NjFNMTMyLjI2NiwyMS45NzdMMTMyLjI2Niw1LjQ2MU0xMzUuMjY5LDIxLjk3N0wxMzUuMjY5LDUuNDYxTTEzOC4yNzIsMjEuOTc3TDEzOC4yNzIsNS40NjFNMTQxLjI0NCwyMS45NzdMMTQxLjI0NCw1LjQ2MSIgc3R5bGU9ImZpbGwtcnVsZTpub256ZXJvO3N0cm9rZTpyZ2IoNTcsNzcsODQpO3N0cm9rZS13aWR0aDoxLjU2cHg7Ii8+JiN4YTsgICAgICAgICAgICAgICAgPC9nPiYjeGE7ICAgICAgICAgICAgPC9nPiYjeGE7ICAgICAgICAgICAgPGcgaWQ9InVzZTMwIiB0cmFuc2Zvcm09Im1hdHJpeCgxLDAsMCwtMSwyMi44NjYsMjcuNDM4NykiPiYjeGE7ICAgICAgICAgICAgICAgIDxyZWN0IGlkPSJwYXRoMjIxIiBzZXJpZjppZD0icGF0aDIyIiB4PSIxMjMuODU5IiB5PSIzLjgxMSIgd2lkdGg9IjE5LjgxOCIgaGVpZ2h0PSIxOS44MTciIHN0eWxlPSJmaWxsOnJnYigwLDE3MiwyMTEpO2ZpbGwtcnVsZTpub256ZXJvOyIvPiYjeGE7ICAgICAgICAgICAgICAgIDxyZWN0IGlkPSJwYXRoMjQxIiBzZXJpZjppZD0icGF0aDI0IiB4PSIxMjMuODU5IiB5PSIyNi42NzYiIHdpZHRoPSIxOS44MTgiIGhlaWdodD0iMTkuODE4IiBzdHlsZT0iZmlsbDpyZ2IoMzIsMTk0LDIzOSk7ZmlsbC1ydWxlOm5vbnplcm87Ii8+JiN4YTsgICAgICAgICAgICAgICAgPHBhdGggaWQ9InBhdGgyNjEiIHNlcmlmOmlkPSJwYXRoMjYiIGQ9Ik0xMjYuMjkyLDIxLjk3N0wxMjYuMjkyLDUuNDYxTTEyOS4yNjQsMjEuOTc3TDEyOS4yNjQsNS40NjFNMTMyLjI2NiwyMS45NzdMMTMyLjI2Niw1LjQ2MU0xMzUuMjY5LDIxLjk3N0wxMzUuMjY5LDUuNDYxTTEzOC4yNzIsMjEuOTc3TDEzOC4yNzIsNS40NjFNMTQxLjI0NCwyMS45NzdMMTQxLjI0NCw1LjQ2MSIgc3R5bGU9ImZpbGwtcnVsZTpub256ZXJvO3N0cm9rZTpyZ2IoNTcsNzcsODQpO3N0cm9rZS13aWR0aDoxLjU2cHg7Ii8+JiN4YTsgICAgICAgICAgICAgICAgPGcgaWQ9InVzZTI4MSIgc2VyaWY6aWQ9InVzZTI4IiB0cmFuc2Zvcm09Im1hdHJpeCgxLDAsMCwxLDAsMjIuODY2KSI+JiN4YTsgICAgICAgICAgICAgICAgICAgIDxwYXRoIGQ9Ik0xMjYuMjkyLDIxLjk3N0wxMjYuMjkyLDUuNDYxTTEyOS4yNjQsMjEuOTc3TDEyOS4yNjQsNS40NjFNMTMyLjI2NiwyMS45NzdMMTMyLjI2Niw1LjQ2MU0xMzUuMjY5LDIxLjk3N0wxMzUuMjY5LDUuNDYxTTEzOC4yNzIsMjEuOTc3TDEzOC4yNzIsNS40NjFNMTQxLjI0NCwyMS45NzdMMTQxLjI0NCw1LjQ2MSIgc3R5bGU9ImZpbGwtcnVsZTpub256ZXJvO3N0cm9rZTpyZ2IoNTcsNzcsODQpO3N0cm9rZS13aWR0aDoxLjU2cHg7Ii8+JiN4YTsgICAgICAgICAgICAgICAgPC9nPiYjeGE7ICAgICAgICAgICAgPC9nPiYjeGE7ICAgICAgICA8L2c+JiN4YTsgICAgICAgIDxnIGlkPSJ1c2UzNCIgdHJhbnNmb3JtPSJtYXRyaXgoMSwwLDAsMSwtNDUuNzMyLDQ1LjczMikiPiYjeGE7ICAgICAgICAgICAgPGcgaWQ9ImcyMDEiIHNlcmlmOmlkPSJnMjAiIHRyYW5zZm9ybT0ibWF0cml4KDEsMCwwLDEsMCwtMjIuODY2KSI+JiN4YTsgICAgICAgICAgICAgICAgPHJlY3QgaWQ9InBhdGgyMjIiIHNlcmlmOmlkPSJwYXRoMjIiIHg9IjEyMy44NTkiIHk9IjMuODExIiB3aWR0aD0iMTkuODE4IiBoZWlnaHQ9IjE5LjgxNyIgc3R5bGU9ImZpbGw6cmdiKDAsMTcyLDIxMSk7ZmlsbC1ydWxlOm5vbnplcm87Ii8+JiN4YTsgICAgICAgICAgICAgICAgPHJlY3QgaWQ9InBhdGgyNDIiIHNlcmlmOmlkPSJwYXRoMjQiIHg9IjEyMy44NTkiIHk9IjI2LjY3NiIgd2lkdGg9IjE5LjgxOCIgaGVpZ2h0PSIxOS44MTgiIHN0eWxlPSJmaWxsOnJnYigzMiwxOTQsMjM5KTtmaWxsLXJ1bGU6bm9uemVybzsiLz4mI3hhOyAgICAgICAgICAgICAgICA8cGF0aCBpZD0icGF0aDI2MiIgc2VyaWY6aWQ9InBhdGgyNiIgZD0iTTEyNi4yOTIsMjEuOTc3TDEyNi4yOTIsNS40NjFNMTI5LjI2NCwyMS45NzdMMTI5LjI2NCw1LjQ2MU0xMzIuMjY2LDIxLjk3N0wxMzIuMjY2LDUuNDYxTTEzNS4yNjksMjEuOTc3TDEzNS4yNjksNS40NjFNMTM4LjI3MiwyMS45NzdMMTM4LjI3Miw1LjQ2MU0xNDEuMjQ0LDIxLjk3N0wxNDEuMjQ0LDUuNDYxIiBzdHlsZT0iZmlsbC1ydWxlOm5vbnplcm87c3Ryb2tlOnJnYig1Nyw3Nyw4NCk7c3Ryb2tlLXdpZHRoOjEuNTZweDsiLz4mI3hhOyAgICAgICAgICAgICAgICA8ZyBpZD0idXNlMjgyIiBzZXJpZjppZD0idXNlMjgiIHRyYW5zZm9ybT0ibWF0cml4KDEsMCwwLDEsMCwyMi44NjYpIj4mI3hhOyAgICAgICAgICAgICAgICAgICAgPHBhdGggZD0iTTEyNi4yOTIsMjEuOTc3TDEyNi4yOTIsNS40NjFNMTI5LjI2NCwyMS45NzdMMTI5LjI2NCw1LjQ2MU0xMzIuMjY2LDIxLjk3N0wxMzIuMjY2LDUuNDYxTTEzNS4yNjksMjEuOTc3TDEzNS4yNjksNS40NjFNMTM4LjI3MiwyMS45NzdMMTM4LjI3Miw1LjQ2MU0xNDEuMjQ0LDIxLjk3N0wxNDEuMjQ0LDUuNDYxIiBzdHlsZT0iZmlsbC1ydWxlOm5vbnplcm87c3Ryb2tlOnJnYig1Nyw3Nyw4NCk7c3Ryb2tlLXdpZHRoOjEuNTZweDsiLz4mI3hhOyAgICAgICAgICAgICAgICA8L2c+JiN4YTsgICAgICAgICAgICA8L2c+JiN4YTsgICAgICAgICAgICA8ZyBpZD0idXNlMzAxIiBzZXJpZjppZD0idXNlMzAiIHRyYW5zZm9ybT0ibWF0cml4KDEsMCwwLC0xLDIyLjg2NiwyNy40Mzg3KSI+JiN4YTsgICAgICAgICAgICAgICAgPHJlY3QgaWQ9InBhdGgyMjMiIHNlcmlmOmlkPSJwYXRoMjIiIHg9IjEyMy44NTkiIHk9IjMuODExIiB3aWR0aD0iMTkuODE4IiBoZWlnaHQ9IjE5LjgxNyIgc3R5bGU9ImZpbGw6cmdiKDAsMTcyLDIxMSk7ZmlsbC1ydWxlOm5vbnplcm87Ii8+JiN4YTsgICAgICAgICAgICAgICAgPHJlY3QgaWQ9InBhdGgyNDMiIHNlcmlmOmlkPSJwYXRoMjQiIHg9IjEyMy44NTkiIHk9IjI2LjY3NiIgd2lkdGg9IjE5LjgxOCIgaGVpZ2h0PSIxOS44MTgiIHN0eWxlPSJmaWxsOnJnYigzMiwxOTQsMjM5KTtmaWxsLXJ1bGU6bm9uemVybzsiLz4mI3hhOyAgICAgICAgICAgICAgICA8cGF0aCBpZD0icGF0aDI2MyIgc2VyaWY6aWQ9InBhdGgyNiIgZD0iTTEyNi4yOTIsMjEuOTc3TDEyNi4yOTIsNS40NjFNMTI5LjI2NCwyMS45NzdMMTI5LjI2NCw1LjQ2MU0xMzIuMjY2LDIxLjk3N0wxMzIuMjY2LDUuNDYxTTEzNS4yNjksMjEuOTc3TDEzNS4yNjksNS40NjFNMTM4LjI3MiwyMS45NzdMMTM4LjI3Miw1LjQ2MU0xNDEuMjQ0LDIxLjk3N0wxNDEuMjQ0LDUuNDYxIiBzdHlsZT0iZmlsbC1ydWxlOm5vbnplcm87c3Ryb2tlOnJnYig1Nyw3Nyw4NCk7c3Ryb2tlLXdpZHRoOjEuNTZweDsiLz4mI3hhOyAgICAgICAgICAgICAgICA8ZyBpZD0idXNlMjgzIiBzZXJpZjppZD0idXNlMjgiIHRyYW5zZm9ybT0ibWF0cml4KDEsMCwwLDEsMCwyMi44NjYpIj4mI3hhOyAgICAgICAgICAgICAgICAgICAgPHBhdGggZD0iTTEyNi4yOTIsMjEuOTc3TDEyNi4yOTIsNS40NjFNMTI5LjI2NCwyMS45NzdMMTI5LjI2NCw1LjQ2MU0xMzIuMjY2LDIxLjk3N0wxMzIuMjY2LDUuNDYxTTEzNS4yNjksMjEuOTc3TDEzNS4yNjksNS40NjFNMTM4LjI3MiwyMS45NzdMMTM4LjI3Miw1LjQ2MU0xNDEuMjQ0LDIxLjk3N0wxNDEuMjQ0LDUuNDYxIiBzdHlsZT0iZmlsbC1ydWxlOm5vbnplcm87c3Ryb2tlOnJnYig1Nyw3Nyw4NCk7c3Ryb2tlLXdpZHRoOjEuNTZweDsiLz4mI3hhOyAgICAgICAgICAgICAgICA8L2c+JiN4YTsgICAgICAgICAgICA8L2c+JiN4YTsgICAgICAgIDwvZz4mI3hhOyAgICAgICAgPGcgaWQ9InVzZTM2IiB0cmFuc2Zvcm09Im1hdHJpeCgxLDAsMCwxLDAsNDUuNzMyKSI+JiN4YTsgICAgICAgICAgICA8ZyBpZD0iZzIwMiIgc2VyaWY6aWQ9ImcyMCIgdHJhbnNmb3JtPSJtYXRyaXgoMSwwLDAsMSwwLC0yMi44NjYpIj4mI3hhOyAgICAgICAgICAgICAgICA8cmVjdCBpZD0icGF0aDIyNCIgc2VyaWY6aWQ9InBhdGgyMiIgeD0iMTIzLjg1OSIgeT0iMy44MTEiIHdpZHRoPSIxOS44MTgiIGhlaWdodD0iMTkuODE3IiBzdHlsZT0iZmlsbDpyZ2IoMCwxNzIsMjExKTtmaWxsLXJ1bGU6bm9uemVybzsiLz4mI3hhOyAgICAgICAgICAgICAgICA8cmVjdCBpZD0icGF0aDI0NCIgc2VyaWY6aWQ9InBhdGgyNCIgeD0iMTIzLjg1OSIgeT0iMjYuNjc2IiB3aWR0aD0iMTkuODE4IiBoZWlnaHQ9IjE5LjgxOCIgc3R5bGU9ImZpbGw6cmdiKDMyLDE5NCwyMzkpO2ZpbGwtcnVsZTpub256ZXJvOyIvPiYjeGE7ICAgICAgICAgICAgICAgIDxwYXRoIGlkPSJwYXRoMjY0IiBzZXJpZjppZD0icGF0aDI2IiBkPSJNMTI2LjI5MiwyMS45NzdMMTI2LjI5Miw1LjQ2MU0xMjkuMjY0LDIxLjk3N0wxMjkuMjY0LDUuNDYxTTEzMi4yNjYsMjEuOTc3TDEzMi4yNjYsNS40NjFNMTM1LjI2OSwyMS45NzdMMTM1LjI2OSw1LjQ2MU0xMzguMjcyLDIxLjk3N0wxMzguMjcyLDUuNDYxTTE0MS4yNDQsMjEuOTc3TDE0MS4yNDQsNS40NjEiIHN0eWxlPSJmaWxsLXJ1bGU6bm9uemVybztzdHJva2U6cmdiKDU3LDc3LDg0KTtzdHJva2Utd2lkdGg6MS41NnB4OyIvPiYjeGE7ICAgICAgICAgICAgICAgIDxnIGlkPSJ1c2UyODQiIHNlcmlmOmlkPSJ1c2UyOCIgdHJhbnNmb3JtPSJtYXRyaXgoMSwwLDAsMSwwLDIyLjg2NikiPiYjeGE7ICAgICAgICAgICAgICAgICAgICA8cGF0aCBkPSJNMTI2LjI5MiwyMS45NzdMMTI2LjI5Miw1LjQ2MU0xMjkuMjY0LDIxLjk3N0wxMjkuMjY0LDUuNDYxTTEzMi4yNjYsMjEuOTc3TDEzMi4yNjYsNS40NjFNMTM1LjI2OSwyMS45NzdMMTM1LjI2OSw1LjQ2MU0xMzguMjcyLDIxLjk3N0wxMzguMjcyLDUuNDYxTTE0MS4yNDQsMjEuOTc3TDE0MS4yNDQsNS40NjEiIHN0eWxlPSJmaWxsLXJ1bGU6bm9uemVybztzdHJva2U6cmdiKDU3LDc3LDg0KTtzdHJva2Utd2lkdGg6MS41NnB4OyIvPiYjeGE7ICAgICAgICAgICAgICAgIDwvZz4mI3hhOyAgICAgICAgICAgIDwvZz4mI3hhOyAgICAgICAgICAgIDxnIGlkPSJ1c2UzMDIiIHNlcmlmOmlkPSJ1c2UzMCIgdHJhbnNmb3JtPSJtYXRyaXgoMSwwLDAsLTEsMjIuODY2LDI3LjQzODcpIj4mI3hhOyAgICAgICAgICAgICAgICA8cmVjdCBpZD0icGF0aDIyNSIgc2VyaWY6aWQ9InBhdGgyMiIgeD0iMTIzLjg1OSIgeT0iMy44MTEiIHdpZHRoPSIxOS44MTgiIGhlaWdodD0iMTkuODE3IiBzdHlsZT0iZmlsbDpyZ2IoMCwxNzIsMjExKTtmaWxsLXJ1bGU6bm9uemVybzsiLz4mI3hhOyAgICAgICAgICAgICAgICA8cmVjdCBpZD0icGF0aDI0NSIgc2VyaWY6aWQ9InBhdGgyNCIgeD0iMTIzLjg1OSIgeT0iMjYuNjc2IiB3aWR0aD0iMTkuODE4IiBoZWlnaHQ9IjE5LjgxOCIgc3R5bGU9ImZpbGw6cmdiKDMyLDE5NCwyMzkpO2ZpbGwtcnVsZTpub256ZXJvOyIvPiYjeGE7ICAgICAgICAgICAgICAgIDxwYXRoIGlkPSJwYXRoMjY1IiBzZXJpZjppZD0icGF0aDI2IiBkPSJNMTI2LjI5MiwyMS45NzdMMTI2LjI5Miw1LjQ2MU0xMjkuMjY0LDIxLjk3N0wxMjkuMjY0LDUuNDYxTTEzMi4yNjYsMjEuOTc3TDEzMi4yNjYsNS40NjFNMTM1LjI2OSwyMS45NzdMMTM1LjI2OSw1LjQ2MU0xMzguMjcyLDIxLjk3N0wxMzguMjcyLDUuNDYxTTE0MS4yNDQsMjEuOTc3TDE0MS4yNDQsNS40NjEiIHN0eWxlPSJmaWxsLXJ1bGU6bm9uemVybztzdHJva2U6cmdiKDU3LDc3LDg0KTtzdHJva2Utd2lkdGg6MS41NnB4OyIvPiYjeGE7ICAgICAgICAgICAgICAgIDxnIGlkPSJ1c2UyODUiIHNlcmlmOmlkPSJ1c2UyOCIgdHJhbnNmb3JtPSJtYXRyaXgoMSwwLDAsMSwwLDIyLjg2NikiPiYjeGE7ICAgICAgICAgICAgICAgICAgICA8cGF0aCBkPSJNMTI2LjI5MiwyMS45NzdMMTI2LjI5Miw1LjQ2MU0xMjkuMjY0LDIxLjk3N0wxMjkuMjY0LDUuNDYxTTEzMi4yNjYsMjEuOTc3TDEzMi4yNjYsNS40NjFNMTM1LjI2OSwyMS45NzdMMTM1LjI2OSw1LjQ2MU0xMzguMjcyLDIxLjk3N0wxMzguMjcyLDUuNDYxTTE0MS4yNDQsMjEuOTc3TDE0MS4yNDQsNS40NjEiIHN0eWxlPSJmaWxsLXJ1bGU6bm9uemVybztzdHJva2U6cmdiKDU3LDc3LDg0KTtzdHJva2Utd2lkdGg6MS41NnB4OyIvPiYjeGE7ICAgICAgICAgICAgICAgIDwvZz4mI3hhOyAgICAgICAgICAgIDwvZz4mI3hhOyAgICAgICAgPC9nPiYjeGE7ICAgICAgICA8Y2xpcFBhdGggaWQ9Il9jbGlwMSI+JiN4YTsgICAgICAgICAgICA8cGF0aCBpZD0icGF0aDM4IiBkPSJNNzYsMkw3Niw0OEw1NCw0OEw1NCw3MUwzNS41ODEsNzFDMzUuNTAzLDcxLjY2NiAzNS40MzksNzIuMzMzIDM1LjM3NSw3M0MzNC4yMjQsODUuNTMxIDM2LjQxMSw5Ny4wODggNDEuNDM4LDEwNi45NjlMNDMuMTI1LDExMEM0NC4xMzYsMTExLjgxNyA0NS4zMTYsMTEzLjUyMyA0Ni41NjMsMTE1LjE4OEM0Ny44MDcsMTE2Ljg1IDQ4LjI0OCwxMTcuNzcgNDkuMDMxLDExOC44NzVDNjIuMzIsMTMzLjgxMSA4Mi4xMjksMTQxIDEwNSwxNDFDMTU1LjY0OCwxNDEgMTk4LjYzMywxMTguNTYyIDIxNy42NTYsNjguMTU2QzIzMS4xNTMsNjkuNTQxIDI0NC4xLDY2LjA4IDI1MCw1NC41NjNDMjQwLjYwMSw0OS4xMzkgMjI4LjUyMiw1MC44NzcgMjIxLjU2Myw1NC4zNzVMMjQwLDJMMTY4LDQ4TDE0NSw0OEwxNDUsMkw3NiwyWiIvPiYjeGE7ICAgICAgICA8L2NsaXBQYXRoPiYjeGE7ICAgICAgICA8ZyBjbGlwLXBhdGg9InVybCgjX2NsaXAxKSI+JiN4YTsgICAgICAgICAgICA8cGF0aCBkPSJNMjIxLjU3LDU0LjM4QzIyMy4xMDMsNDIuNDY0IDIxNC4xODYsMzMuMTA1IDIwOC42NTYsMjguNjYxQzIwMi4yODMsMzYuMDI5IDIwMS4yOTMsNTUuMzM5IDIxMS4yOTEsNjMuNDY5QzIwNS43MTIsNjguNDI1IDE5My45NTQsNzIuOTE3IDE4MS45MTUsNzIuOTE3TDM0LDcyLjkxN0MzMi44MjksODUuNDg0IDM0LDE0NiAzNCwxNDZMMjUxLDE0NkwyNTAuMDEzLDU0LjU3NkMyNDAuNjE1LDQ5LjE1MiAyMjguNTI5LDUwLjg4MiAyMjEuNTcsNTQuMzc5IiBzdHlsZT0iZmlsbDpyZ2IoMjMsMTgxLDIzNSk7ZmlsbC1ydWxlOm5vbnplcm87Ii8+JiN4YTsgICAgICAgIDwvZz4mI3hhOyAgICAgICAgPGNsaXBQYXRoIGlkPSJfY2xpcDIiPiYjeGE7ICAgICAgICAgICAgPHBhdGggaWQ9InBhdGg0MCIgZD0iTTc2LDJMNzYsNDhMNTQsNDhMNTQsNzFMMzUuNTgxLDcxQzM1LjUwMyw3MS42NjYgMzUuNDM5LDcyLjMzMyAzNS4zNzUsNzNDMzQuMjI0LDg1LjUzMSAzNi40MTEsOTcuMDg4IDQxLjQzOCwxMDYuOTY5TDQzLjEyNSwxMTBDNDQuMTM2LDExMS44MTcgNDUuMzE2LDExMy41MjMgNDYuNTYzLDExNS4xODhDNDcuODA3LDExNi44NSA0OC4yNDgsMTE3Ljc3IDQ5LjAzMSwxMTguODc1QzYyLjMyLDEzMy44MTEgODIuMTI5LDE0MSAxMDUsMTQxQzE1NS42NDgsMTQxIDE5OC42MzMsMTE4LjU2MiAyMTcuNjU2LDY4LjE1NkMyMzEuMTUzLDY5LjU0MSAyNDQuMSw2Ni4wOCAyNTAsNTQuNTYzQzI0MC42MDEsNDkuMTM5IDIyOC41MjIsNTAuODc3IDIyMS41NjMsNTQuMzc1TDI0MCwyTDE2OCw0OEwxNDUsNDhMMTQ1LDJMNzYsMloiLz4mI3hhOyAgICAgICAgPC9jbGlwUGF0aD4mI3hhOyAgICAgICAgPGcgY2xpcC1wYXRoPSJ1cmwoI19jbGlwMikiPiYjeGE7ICAgICAgICAgICAgPHBhdGggZD0iTTM0LDg5TDM0LDE0NkwyNTEsMTQ2TDI1MSw4OSIgc3R5bGU9ImZpbGwtb3BhY2l0eTowLjE3O2ZpbGwtcnVsZTpub256ZXJvOyIvPiYjeGE7ICAgICAgICA8L2c+JiN4YTsgICAgICAgIDxjbGlwUGF0aCBpZD0iX2NsaXAzIj4mI3hhOyAgICAgICAgICAgIDxwYXRoIGlkPSJwYXRoNDIiIGQ9Ik03NiwyTDc2LDQ4TDU0LDQ4TDU0LDcxTDM1LjU4MSw3MUMzNS41MDMsNzEuNjY2IDM1LjQzOSw3Mi4zMzMgMzUuMzc1LDczQzM0LjIyNCw4NS41MzEgMzYuNDExLDk3LjA4OCA0MS40MzgsMTA2Ljk2OUw0My4xMjUsMTEwQzQ0LjEzNiwxMTEuODE3IDQ1LjMxNiwxMTMuNTIzIDQ2LjU2MywxMTUuMTg4QzQ3LjgwNywxMTYuODUgNDguMjQ4LDExNy43NyA0OS4wMzEsMTE4Ljg3NUM2Mi4zMiwxMzMuODExIDgyLjEyOSwxNDEgMTA1LDE0MUMxNTUuNjQ4LDE0MSAxOTguNjMzLDExOC41NjIgMjE3LjY1Niw2OC4xNTZDMjMxLjE1Myw2OS41NDEgMjQ0LjEsNjYuMDggMjUwLDU0LjU2M0MyNDAuNjAxLDQ5LjEzOSAyMjguNTIyLDUwLjg3NyAyMjEuNTYzLDU0LjM3NUwyNDAsMkwxNjgsNDhMMTQ1LDQ4TDE0NSwyTDc2LDJaIi8+JiN4YTsgICAgICAgIDwvY2xpcFBhdGg+JiN4YTsgICAgICAgIDxnIGNsaXAtcGF0aD0idXJsKCNfY2xpcDMpIj4mI3hhOyAgICAgICAgICAgIDxwYXRoIGQ9Ik0xMTEuMjM3LDE0MC44OUM5Ny42OTgsMTM0LjQ2NSA5MC4yNjYsMTI1LjczMSA4Ni4xMzEsMTE2LjE5Nkw0NSwxMThMNjYsMTQ2TDExMS4yMzcsMTQwLjg5IiBzdHlsZT0iZmlsbDpyZ2IoMjEyLDIzNywyNDEpO2ZpbGwtcnVsZTpub256ZXJvOyIvPiYjeGE7ICAgICAgICA8L2c+JiN4YTsgICAgICAgIDxjbGlwUGF0aCBpZD0iX2NsaXA0Ij4mI3hhOyAgICAgICAgICAgIDxwYXRoIGlkPSJwYXRoNDQiIGQ9Ik03NiwyTDc2LDQ4TDU0LDQ4TDU0LDcxTDM1LjU4MSw3MUMzNS41MDMsNzEuNjY2IDM1LjQzOSw3Mi4zMzMgMzUuMzc1LDczQzM0LjIyNCw4NS41MzEgMzYuNDExLDk3LjA4OCA0MS40MzgsMTA2Ljk2OUw0My4xMjUsMTEwQzQ0LjEzNiwxMTEuODE3IDQ1LjMxNiwxMTMuNTIzIDQ2LjU2MywxMTUuMTg4QzQ3LjgwNywxMTYuODUgNDguMjQ4LDExNy43NyA0OS4wMzEsMTE4Ljg3NUM2Mi4zMiwxMzMuODExIDgyLjEyOSwxNDEgMTA1LDE0MUMxNTUuNjQ4LDE0MSAxOTguNjMzLDExOC41NjIgMjE3LjY1Niw2OC4xNTZDMjMxLjE1Myw2OS41NDEgMjQ0LjEsNjYuMDggMjUwLDU0LjU2M0MyNDAuNjAxLDQ5LjEzOSAyMjguNTIyLDUwLjg3NyAyMjEuNTYzLDU0LjM3NUwyNDAsMkwxNjgsNDhMMTQ1LDQ4TDE0NSwyTDc2LDJaIi8+JiN4YTsgICAgICAgIDwvY2xpcFBhdGg+JiN4YTsgICAgICAgIDxnIGNsaXAtcGF0aD0idXJsKCNfY2xpcDQpIj4mI3hhOyAgICAgICAgICAgIDxwYXRoIGQ9Ik0yMjIuNSw1My45MzhMMjIyLjUsNTMuOTY5QzIwMS42MzksODAuODU4IDE3MS43MTcsMTA0LjM0NyAxMzkuNTk0LDExNi42ODhDMTEwLjkzOSwxMjcuNjk1IDg1Ljk1NSwxMjcuNzQ4IDY4LjcxOSwxMTguOTA2QzY2Ljg2MywxMTcuODU4IDY1LjA0MywxMTYuNjk1IDYzLjIxOSwxMTUuNTk0QzUwLjU4MiwxMDYuNzYyIDQzLjQ2NCw5Mi4xNTIgNDQuMDYzLDcyLjkwNkwzNCw3Mi45MDZMMzQsMTQ2TDI1MSwxNDZMMjUxLDUwTDIyNiw1MEwyMjIuNSw1My45MzhaIiBzdHlsZT0iZmlsbC1vcGFjaXR5OjAuMDg7ZmlsbC1ydWxlOm5vbnplcm87Ii8+JiN4YTsgICAgICAgIDwvZz4mI3hhOyAgICAgICAgPHBhdGggaWQ9InBhdGg0NiIgZD0iTTQ1LjYyNSwxMTcuMDMxQzU5Ljc5LDExNy44MDcgNzQuOTA3LDExNy45NDYgODguMDk0LDExMy44MTMiIHN0eWxlPSJmaWxsOm5vbmU7ZmlsbC1ydWxlOm5vbnplcm87c3Ryb2tlOnJnYig1Nyw3Nyw4NCk7c3Ryb2tlLXdpZHRoOjMuNHB4O3N0cm9rZS1saW5lY2FwOnJvdW5kOyIvPiYjeGE7ICAgICAgICA8cGF0aCBpZD0icGF0aDQ4IiBkPSJNMTAyLjE3LDEwNi45NTlDMTAyLjE3LDEwOS45NzggOTkuNzIzLDExMi40MjYgOTYuNzA0LDExMi40MjZDOTMuNjg0LDExMi40MjYgOTEuMjM2LDEwOS45NzggOTEuMjM2LDEwNi45NTlDOTEuMjM2LDEwMy45NCA5My42ODQsMTAxLjQ5MiA5Ni43MDQsMTAxLjQ5MkM5OS43MjMsMTAxLjQ5MiAxMDIuMTcsMTAzLjk0IDEwMi4xNywxMDYuOTU5WiIgc3R5bGU9ImZpbGw6cmdiKDIxMiwyMzcsMjQxKTtmaWxsLXJ1bGU6bm9uemVybzsiLz4mI3hhOyAgICAgICAgPHBhdGggaWQ9InBhdGg1MCIgZD0iTTk4LjEyMSwxMDMuMzA4Qzk3LjY0NCwxMDMuNTg0IDk3LjMyMSwxMDQuMSA5Ny4zMjEsMTA0LjY5MkM5Ny4zMjEsMTA1LjU3NCA5OC4wMzcsMTA2LjI4OSA5OC45MTksMTA2LjI4OUM5OS41MjQsMTA2LjI4OSAxMDAuMDQ5LDEwNS45NTMgMTAwLjMyMSwxMDUuNDU3QzEwMC41MTMsMTA1LjkxOSAxMDAuNjE5LDEwNi40MjcgMTAwLjYxOSwxMDYuOTU5QzEwMC42MTksMTA5LjEyMSA5OC44NjYsMTEwLjg3NCA5Ni43MDQsMTEwLjg3NEM5NC41NDIsMTEwLjg3NCA5Mi43ODgsMTA5LjEyMSA5Mi43ODgsMTA2Ljk1OUM5Mi43ODgsMTA0Ljc5NiA5NC41NDIsMTAzLjA0MyA5Ni43MDQsMTAzLjA0M0M5Ny4yMDQsMTAzLjA0MyA5Ny42ODEsMTAzLjEzNyA5OC4xMjEsMTAzLjMwOFoiIHN0eWxlPSJmaWxsOnJnYig1Nyw3Nyw4NCk7ZmlsbC1ydWxlOm5vbnplcm87Ii8+JiN4YTsgICAgICAgIDxwYXRoIGlkPSJwYXRoNTIiIGQ9Ik0wLDkwLjE2MkwyNTQuMzI3LDkwLjE2MkMyNDguNzksODguNzU4IDIzNi44MDYsODYuODYgMjM4Ljc4Myw3OS42MDNDMjI4LjcxNCw5MS4yNTQgMjA0LjQzLDg3Ljc3NyAxOTguMzAxLDgyLjAzMUMxOTEuNDc3LDkxLjkzIDE1MS43NDcsODguMTY3IDE0OC45NzYsODAuNDU2QzE0MC40Miw5MC40OTcgMTEzLjkwOSw5MC40OTcgMTA1LjM1Myw4MC40NTZDMTAyLjU4LDg4LjE2NyA2Mi44NTEsOTEuOTMgNTYuMDI2LDgyLjAzMUM0OS44OTgsODcuNzc3IDI1LjYxNiw5MS4yNTQgMTUuNTQ2LDc5LjYwM0MxNy41MjIsODYuODYgNS41MzksODguNzU4IDAsOTAuMTYyIiBzdHlsZT0iZmlsbDpyZ2IoNTcsNzcsODQpO2ZpbGwtcnVsZTpub256ZXJvOyIvPiYjeGE7ICAgIDwvZz4mI3hhOzwvc3ZnPg==;" parent="1" vertex="1">
          <mxGeometry x="125" y="803" width="33.19" height="19" as="geometry" />
        </mxCell>
        <mxCell id="xUTtplGJXiZXMpH6DIID-137" value="" style="shape=image;verticalLabelPosition=bottom;labelBackgroundColor=#ffffff;verticalAlign=top;aspect=fixed;imageAspect=0;image=data:image/svg+xml,PHN2ZyB4bWxucz0iaHR0cDovL3d3dy53My5vcmcvMjAwMC9zdmciIHhtbG5zOnhsaW5rPSJodHRwOi8vd3d3LnczLm9yZy8xOTk5L3hsaW5rIiB4bWxuczpzZXJpZj0iaHR0cDovL3d3dy5zZXJpZi5jb20vIiB3aWR0aD0iMjU1LjA1ODk5MDQ3ODUxNTYyIiBoZWlnaHQ9IjE0NiIgdmlld0JveD0iMCAtMC4wMDA0NjUwMDAwMTkxNzU5MzE4IDI1NS4wNTg5OTA0Nzg1MTU2MiAxNDYiIHZlcnNpb249IjEuMSIgeG1sOnNwYWNlPSJwcmVzZXJ2ZSIgc3R5bGU9ImZpbGwtcnVsZTpldmVub2RkO2NsaXAtcnVsZTpldmVub2RkOyI+JiN4YTsgICAgPGcgdHJhbnNmb3JtPSJtYXRyaXgoMSwwLDAsMSwwLC0wLjAwMDQ2NSkiPiYjeGE7ICAgICAgICA8cGF0aCBpZD0icGF0aDE0IiBkPSJNMTQ3LjQ4OCw0NS43MzJMMTcwLjM1NCw0NS43MzJMMTcwLjM1NCw2OS4xMDdMMTgxLjkxNSw2OS4xMDdDMTg3LjI1NCw2OS4xMDcgMTkyLjc0Niw2OC4xNTYgMTk3LjgwMiw2Ni40NDJDMjAwLjI4Nyw2NS42IDIwMy4wNzYsNjQuNDI3IDIwNS41MjYsNjIuOTUzQzIwMi4yOTgsNTguNzM5IDIwMC42NSw1My40MTcgMjAwLjE2NSw0OC4xNzJDMTk5LjUwNyw0MS4wMzggMjAwLjk0NiwzMS43NTIgMjA1Ljc3NCwyNi4xNjhMMjA4LjE3OCwyMy4zODhMMjExLjA0MiwyNS42OUMyMTguMjUzLDMxLjQ4NCAyMjQuMzE4LDM5LjU3OSAyMjUuMzg3LDQ4LjgwOEMyMzQuMDcsNDYuMjU0IDI0NC4yNjUsNDYuODU4IDI1MS45MTksNTEuMjc2TDI1NS4wNTksNTMuMDg3TDI1My40MDYsNTYuMzEzQzI0Ni45MzMsNjguOTQ3IDIzMy40MDEsNzIuODYgMjIwLjE3MSw3Mi4xNjdDMjAwLjM3NCwxMjEuNDc2IDE1Ny4yNzMsMTQ0LjgyIDEwNS4wMTQsMTQ0LjgyQzc4LjAxNSwxNDQuODIgNTMuMjQ0LDEzNC43MjcgMzkuMTM4LDExMC43NzNDMzguMzExLDEwOS4yODUgMzcuNjAzLDEwNy43MjkgMzYuODUyLDEwNi4yMDFDMzIuMDg0LDk1LjY1NyAzMC41LDg0LjEwNiAzMS41NzQsNzIuNTY0TDMxLjg5Nyw2OS4xMDdMNTEuNDUsNjkuMTA3TDUxLjQ1LDQ1LjczMkw3NC4zMTYsNDUuNzMyTDc0LjMxNiwyMi44NjZMMTIwLjA0OCwyMi44NjZMMTIwLjA0OCwwTDE0Ny40ODcsMEwxNDcuNDg3LDQ1LjczMiIgc3R5bGU9ImZpbGw6cmdiKDU3LDc3LDg0KTtmaWxsLXJ1bGU6bm9uemVybzsiLz4mI3hhOyAgICAgICAgPGcgaWQ9InVzZTMyIiB0cmFuc2Zvcm09Im1hdHJpeCgxLDAsMCwxLC05MS40NjQsNDUuNzMyKSI+JiN4YTsgICAgICAgICAgICA8ZyBpZD0iZzIwIiB0cmFuc2Zvcm09Im1hdHJpeCgxLDAsMCwxLDAsLTIyLjg2NikiPiYjeGE7ICAgICAgICAgICAgICAgIDxyZWN0IGlkPSJwYXRoMjIiIHg9IjEyMy44NTkiIHk9IjMuODExIiB3aWR0aD0iMTkuODE4IiBoZWlnaHQ9IjE5LjgxNyIgc3R5bGU9ImZpbGw6cmdiKDAsMTcyLDIxMSk7ZmlsbC1ydWxlOm5vbnplcm87Ii8+JiN4YTsgICAgICAgICAgICAgICAgPHJlY3QgaWQ9InBhdGgyNCIgeD0iMTIzLjg1OSIgeT0iMjYuNjc2IiB3aWR0aD0iMTkuODE4IiBoZWlnaHQ9IjE5LjgxOCIgc3R5bGU9ImZpbGw6cmdiKDMyLDE5NCwyMzkpO2ZpbGwtcnVsZTpub256ZXJvOyIvPiYjeGE7ICAgICAgICAgICAgICAgIDxwYXRoIGlkPSJwYXRoMjYiIGQ9Ik0xMjYuMjkyLDIxLjk3N0wxMjYuMjkyLDUuNDYxTTEyOS4yNjQsMjEuOTc3TDEyOS4yNjQsNS40NjFNMTMyLjI2NiwyMS45NzdMMTMyLjI2Niw1LjQ2MU0xMzUuMjY5LDIxLjk3N0wxMzUuMjY5LDUuNDYxTTEzOC4yNzIsMjEuOTc3TDEzOC4yNzIsNS40NjFNMTQxLjI0NCwyMS45NzdMMTQxLjI0NCw1LjQ2MSIgc3R5bGU9ImZpbGwtcnVsZTpub256ZXJvO3N0cm9rZTpyZ2IoNTcsNzcsODQpO3N0cm9rZS13aWR0aDoxLjU2cHg7Ii8+JiN4YTsgICAgICAgICAgICAgICAgPGcgaWQ9InVzZTI4IiB0cmFuc2Zvcm09Im1hdHJpeCgxLDAsMCwxLDAsMjIuODY2KSI+JiN4YTsgICAgICAgICAgICAgICAgICAgIDxwYXRoIGQ9Ik0xMjYuMjkyLDIxLjk3N0wxMjYuMjkyLDUuNDYxTTEyOS4yNjQsMjEuOTc3TDEyOS4yNjQsNS40NjFNMTMyLjI2NiwyMS45NzdMMTMyLjI2Niw1LjQ2MU0xMzUuMjY5LDIxLjk3N0wxMzUuMjY5LDUuNDYxTTEzOC4yNzIsMjEuOTc3TDEzOC4yNzIsNS40NjFNMTQxLjI0NCwyMS45NzdMMTQxLjI0NCw1LjQ2MSIgc3R5bGU9ImZpbGwtcnVsZTpub256ZXJvO3N0cm9rZTpyZ2IoNTcsNzcsODQpO3N0cm9rZS13aWR0aDoxLjU2cHg7Ii8+JiN4YTsgICAgICAgICAgICAgICAgPC9nPiYjeGE7ICAgICAgICAgICAgPC9nPiYjeGE7ICAgICAgICAgICAgPGcgaWQ9InVzZTMwIiB0cmFuc2Zvcm09Im1hdHJpeCgxLDAsMCwtMSwyMi44NjYsMjcuNDM4NykiPiYjeGE7ICAgICAgICAgICAgICAgIDxyZWN0IGlkPSJwYXRoMjIxIiBzZXJpZjppZD0icGF0aDIyIiB4PSIxMjMuODU5IiB5PSIzLjgxMSIgd2lkdGg9IjE5LjgxOCIgaGVpZ2h0PSIxOS44MTciIHN0eWxlPSJmaWxsOnJnYigwLDE3MiwyMTEpO2ZpbGwtcnVsZTpub256ZXJvOyIvPiYjeGE7ICAgICAgICAgICAgICAgIDxyZWN0IGlkPSJwYXRoMjQxIiBzZXJpZjppZD0icGF0aDI0IiB4PSIxMjMuODU5IiB5PSIyNi42NzYiIHdpZHRoPSIxOS44MTgiIGhlaWdodD0iMTkuODE4IiBzdHlsZT0iZmlsbDpyZ2IoMzIsMTk0LDIzOSk7ZmlsbC1ydWxlOm5vbnplcm87Ii8+JiN4YTsgICAgICAgICAgICAgICAgPHBhdGggaWQ9InBhdGgyNjEiIHNlcmlmOmlkPSJwYXRoMjYiIGQ9Ik0xMjYuMjkyLDIxLjk3N0wxMjYuMjkyLDUuNDYxTTEyOS4yNjQsMjEuOTc3TDEyOS4yNjQsNS40NjFNMTMyLjI2NiwyMS45NzdMMTMyLjI2Niw1LjQ2MU0xMzUuMjY5LDIxLjk3N0wxMzUuMjY5LDUuNDYxTTEzOC4yNzIsMjEuOTc3TDEzOC4yNzIsNS40NjFNMTQxLjI0NCwyMS45NzdMMTQxLjI0NCw1LjQ2MSIgc3R5bGU9ImZpbGwtcnVsZTpub256ZXJvO3N0cm9rZTpyZ2IoNTcsNzcsODQpO3N0cm9rZS13aWR0aDoxLjU2cHg7Ii8+JiN4YTsgICAgICAgICAgICAgICAgPGcgaWQ9InVzZTI4MSIgc2VyaWY6aWQ9InVzZTI4IiB0cmFuc2Zvcm09Im1hdHJpeCgxLDAsMCwxLDAsMjIuODY2KSI+JiN4YTsgICAgICAgICAgICAgICAgICAgIDxwYXRoIGQ9Ik0xMjYuMjkyLDIxLjk3N0wxMjYuMjkyLDUuNDYxTTEyOS4yNjQsMjEuOTc3TDEyOS4yNjQsNS40NjFNMTMyLjI2NiwyMS45NzdMMTMyLjI2Niw1LjQ2MU0xMzUuMjY5LDIxLjk3N0wxMzUuMjY5LDUuNDYxTTEzOC4yNzIsMjEuOTc3TDEzOC4yNzIsNS40NjFNMTQxLjI0NCwyMS45NzdMMTQxLjI0NCw1LjQ2MSIgc3R5bGU9ImZpbGwtcnVsZTpub256ZXJvO3N0cm9rZTpyZ2IoNTcsNzcsODQpO3N0cm9rZS13aWR0aDoxLjU2cHg7Ii8+JiN4YTsgICAgICAgICAgICAgICAgPC9nPiYjeGE7ICAgICAgICAgICAgPC9nPiYjeGE7ICAgICAgICA8L2c+JiN4YTsgICAgICAgIDxnIGlkPSJ1c2UzNCIgdHJhbnNmb3JtPSJtYXRyaXgoMSwwLDAsMSwtNDUuNzMyLDQ1LjczMikiPiYjeGE7ICAgICAgICAgICAgPGcgaWQ9ImcyMDEiIHNlcmlmOmlkPSJnMjAiIHRyYW5zZm9ybT0ibWF0cml4KDEsMCwwLDEsMCwtMjIuODY2KSI+JiN4YTsgICAgICAgICAgICAgICAgPHJlY3QgaWQ9InBhdGgyMjIiIHNlcmlmOmlkPSJwYXRoMjIiIHg9IjEyMy44NTkiIHk9IjMuODExIiB3aWR0aD0iMTkuODE4IiBoZWlnaHQ9IjE5LjgxNyIgc3R5bGU9ImZpbGw6cmdiKDAsMTcyLDIxMSk7ZmlsbC1ydWxlOm5vbnplcm87Ii8+JiN4YTsgICAgICAgICAgICAgICAgPHJlY3QgaWQ9InBhdGgyNDIiIHNlcmlmOmlkPSJwYXRoMjQiIHg9IjEyMy44NTkiIHk9IjI2LjY3NiIgd2lkdGg9IjE5LjgxOCIgaGVpZ2h0PSIxOS44MTgiIHN0eWxlPSJmaWxsOnJnYigzMiwxOTQsMjM5KTtmaWxsLXJ1bGU6bm9uemVybzsiLz4mI3hhOyAgICAgICAgICAgICAgICA8cGF0aCBpZD0icGF0aDI2MiIgc2VyaWY6aWQ9InBhdGgyNiIgZD0iTTEyNi4yOTIsMjEuOTc3TDEyNi4yOTIsNS40NjFNMTI5LjI2NCwyMS45NzdMMTI5LjI2NCw1LjQ2MU0xMzIuMjY2LDIxLjk3N0wxMzIuMjY2LDUuNDYxTTEzNS4yNjksMjEuOTc3TDEzNS4yNjksNS40NjFNMTM4LjI3MiwyMS45NzdMMTM4LjI3Miw1LjQ2MU0xNDEuMjQ0LDIxLjk3N0wxNDEuMjQ0LDUuNDYxIiBzdHlsZT0iZmlsbC1ydWxlOm5vbnplcm87c3Ryb2tlOnJnYig1Nyw3Nyw4NCk7c3Ryb2tlLXdpZHRoOjEuNTZweDsiLz4mI3hhOyAgICAgICAgICAgICAgICA8ZyBpZD0idXNlMjgyIiBzZXJpZjppZD0idXNlMjgiIHRyYW5zZm9ybT0ibWF0cml4KDEsMCwwLDEsMCwyMi44NjYpIj4mI3hhOyAgICAgICAgICAgICAgICAgICAgPHBhdGggZD0iTTEyNi4yOTIsMjEuOTc3TDEyNi4yOTIsNS40NjFNMTI5LjI2NCwyMS45NzdMMTI5LjI2NCw1LjQ2MU0xMzIuMjY2LDIxLjk3N0wxMzIuMjY2LDUuNDYxTTEzNS4yNjksMjEuOTc3TDEzNS4yNjksNS40NjFNMTM4LjI3MiwyMS45NzdMMTM4LjI3Miw1LjQ2MU0xNDEuMjQ0LDIxLjk3N0wxNDEuMjQ0LDUuNDYxIiBzdHlsZT0iZmlsbC1ydWxlOm5vbnplcm87c3Ryb2tlOnJnYig1Nyw3Nyw4NCk7c3Ryb2tlLXdpZHRoOjEuNTZweDsiLz4mI3hhOyAgICAgICAgICAgICAgICA8L2c+JiN4YTsgICAgICAgICAgICA8L2c+JiN4YTsgICAgICAgICAgICA8ZyBpZD0idXNlMzAxIiBzZXJpZjppZD0idXNlMzAiIHRyYW5zZm9ybT0ibWF0cml4KDEsMCwwLC0xLDIyLjg2NiwyNy40Mzg3KSI+JiN4YTsgICAgICAgICAgICAgICAgPHJlY3QgaWQ9InBhdGgyMjMiIHNlcmlmOmlkPSJwYXRoMjIiIHg9IjEyMy44NTkiIHk9IjMuODExIiB3aWR0aD0iMTkuODE4IiBoZWlnaHQ9IjE5LjgxNyIgc3R5bGU9ImZpbGw6cmdiKDAsMTcyLDIxMSk7ZmlsbC1ydWxlOm5vbnplcm87Ii8+JiN4YTsgICAgICAgICAgICAgICAgPHJlY3QgaWQ9InBhdGgyNDMiIHNlcmlmOmlkPSJwYXRoMjQiIHg9IjEyMy44NTkiIHk9IjI2LjY3NiIgd2lkdGg9IjE5LjgxOCIgaGVpZ2h0PSIxOS44MTgiIHN0eWxlPSJmaWxsOnJnYigzMiwxOTQsMjM5KTtmaWxsLXJ1bGU6bm9uemVybzsiLz4mI3hhOyAgICAgICAgICAgICAgICA8cGF0aCBpZD0icGF0aDI2MyIgc2VyaWY6aWQ9InBhdGgyNiIgZD0iTTEyNi4yOTIsMjEuOTc3TDEyNi4yOTIsNS40NjFNMTI5LjI2NCwyMS45NzdMMTI5LjI2NCw1LjQ2MU0xMzIuMjY2LDIxLjk3N0wxMzIuMjY2LDUuNDYxTTEzNS4yNjksMjEuOTc3TDEzNS4yNjksNS40NjFNMTM4LjI3MiwyMS45NzdMMTM4LjI3Miw1LjQ2MU0xNDEuMjQ0LDIxLjk3N0wxNDEuMjQ0LDUuNDYxIiBzdHlsZT0iZmlsbC1ydWxlOm5vbnplcm87c3Ryb2tlOnJnYig1Nyw3Nyw4NCk7c3Ryb2tlLXdpZHRoOjEuNTZweDsiLz4mI3hhOyAgICAgICAgICAgICAgICA8ZyBpZD0idXNlMjgzIiBzZXJpZjppZD0idXNlMjgiIHRyYW5zZm9ybT0ibWF0cml4KDEsMCwwLDEsMCwyMi44NjYpIj4mI3hhOyAgICAgICAgICAgICAgICAgICAgPHBhdGggZD0iTTEyNi4yOTIsMjEuOTc3TDEyNi4yOTIsNS40NjFNMTI5LjI2NCwyMS45NzdMMTI5LjI2NCw1LjQ2MU0xMzIuMjY2LDIxLjk3N0wxMzIuMjY2LDUuNDYxTTEzNS4yNjksMjEuOTc3TDEzNS4yNjksNS40NjFNMTM4LjI3MiwyMS45NzdMMTM4LjI3Miw1LjQ2MU0xNDEuMjQ0LDIxLjk3N0wxNDEuMjQ0LDUuNDYxIiBzdHlsZT0iZmlsbC1ydWxlOm5vbnplcm87c3Ryb2tlOnJnYig1Nyw3Nyw4NCk7c3Ryb2tlLXdpZHRoOjEuNTZweDsiLz4mI3hhOyAgICAgICAgICAgICAgICA8L2c+JiN4YTsgICAgICAgICAgICA8L2c+JiN4YTsgICAgICAgIDwvZz4mI3hhOyAgICAgICAgPGcgaWQ9InVzZTM2IiB0cmFuc2Zvcm09Im1hdHJpeCgxLDAsMCwxLDAsNDUuNzMyKSI+JiN4YTsgICAgICAgICAgICA8ZyBpZD0iZzIwMiIgc2VyaWY6aWQ9ImcyMCIgdHJhbnNmb3JtPSJtYXRyaXgoMSwwLDAsMSwwLC0yMi44NjYpIj4mI3hhOyAgICAgICAgICAgICAgICA8cmVjdCBpZD0icGF0aDIyNCIgc2VyaWY6aWQ9InBhdGgyMiIgeD0iMTIzLjg1OSIgeT0iMy44MTEiIHdpZHRoPSIxOS44MTgiIGhlaWdodD0iMTkuODE3IiBzdHlsZT0iZmlsbDpyZ2IoMCwxNzIsMjExKTtmaWxsLXJ1bGU6bm9uemVybzsiLz4mI3hhOyAgICAgICAgICAgICAgICA8cmVjdCBpZD0icGF0aDI0NCIgc2VyaWY6aWQ9InBhdGgyNCIgeD0iMTIzLjg1OSIgeT0iMjYuNjc2IiB3aWR0aD0iMTkuODE4IiBoZWlnaHQ9IjE5LjgxOCIgc3R5bGU9ImZpbGw6cmdiKDMyLDE5NCwyMzkpO2ZpbGwtcnVsZTpub256ZXJvOyIvPiYjeGE7ICAgICAgICAgICAgICAgIDxwYXRoIGlkPSJwYXRoMjY0IiBzZXJpZjppZD0icGF0aDI2IiBkPSJNMTI2LjI5MiwyMS45NzdMMTI2LjI5Miw1LjQ2MU0xMjkuMjY0LDIxLjk3N0wxMjkuMjY0LDUuNDYxTTEzMi4yNjYsMjEuOTc3TDEzMi4yNjYsNS40NjFNMTM1LjI2OSwyMS45NzdMMTM1LjI2OSw1LjQ2MU0xMzguMjcyLDIxLjk3N0wxMzguMjcyLDUuNDYxTTE0MS4yNDQsMjEuOTc3TDE0MS4yNDQsNS40NjEiIHN0eWxlPSJmaWxsLXJ1bGU6bm9uemVybztzdHJva2U6cmdiKDU3LDc3LDg0KTtzdHJva2Utd2lkdGg6MS41NnB4OyIvPiYjeGE7ICAgICAgICAgICAgICAgIDxnIGlkPSJ1c2UyODQiIHNlcmlmOmlkPSJ1c2UyOCIgdHJhbnNmb3JtPSJtYXRyaXgoMSwwLDAsMSwwLDIyLjg2NikiPiYjeGE7ICAgICAgICAgICAgICAgICAgICA8cGF0aCBkPSJNMTI2LjI5MiwyMS45NzdMMTI2LjI5Miw1LjQ2MU0xMjkuMjY0LDIxLjk3N0wxMjkuMjY0LDUuNDYxTTEzMi4yNjYsMjEuOTc3TDEzMi4yNjYsNS40NjFNMTM1LjI2OSwyMS45NzdMMTM1LjI2OSw1LjQ2MU0xMzguMjcyLDIxLjk3N0wxMzguMjcyLDUuNDYxTTE0MS4yNDQsMjEuOTc3TDE0MS4yNDQsNS40NjEiIHN0eWxlPSJmaWxsLXJ1bGU6bm9uemVybztzdHJva2U6cmdiKDU3LDc3LDg0KTtzdHJva2Utd2lkdGg6MS41NnB4OyIvPiYjeGE7ICAgICAgICAgICAgICAgIDwvZz4mI3hhOyAgICAgICAgICAgIDwvZz4mI3hhOyAgICAgICAgICAgIDxnIGlkPSJ1c2UzMDIiIHNlcmlmOmlkPSJ1c2UzMCIgdHJhbnNmb3JtPSJtYXRyaXgoMSwwLDAsLTEsMjIuODY2LDI3LjQzODcpIj4mI3hhOyAgICAgICAgICAgICAgICA8cmVjdCBpZD0icGF0aDIyNSIgc2VyaWY6aWQ9InBhdGgyMiIgeD0iMTIzLjg1OSIgeT0iMy44MTEiIHdpZHRoPSIxOS44MTgiIGhlaWdodD0iMTkuODE3IiBzdHlsZT0iZmlsbDpyZ2IoMCwxNzIsMjExKTtmaWxsLXJ1bGU6bm9uemVybzsiLz4mI3hhOyAgICAgICAgICAgICAgICA8cmVjdCBpZD0icGF0aDI0NSIgc2VyaWY6aWQ9InBhdGgyNCIgeD0iMTIzLjg1OSIgeT0iMjYuNjc2IiB3aWR0aD0iMTkuODE4IiBoZWlnaHQ9IjE5LjgxOCIgc3R5bGU9ImZpbGw6cmdiKDMyLDE5NCwyMzkpO2ZpbGwtcnVsZTpub256ZXJvOyIvPiYjeGE7ICAgICAgICAgICAgICAgIDxwYXRoIGlkPSJwYXRoMjY1IiBzZXJpZjppZD0icGF0aDI2IiBkPSJNMTI2LjI5MiwyMS45NzdMMTI2LjI5Miw1LjQ2MU0xMjkuMjY0LDIxLjk3N0wxMjkuMjY0LDUuNDYxTTEzMi4yNjYsMjEuOTc3TDEzMi4yNjYsNS40NjFNMTM1LjI2OSwyMS45NzdMMTM1LjI2OSw1LjQ2MU0xMzguMjcyLDIxLjk3N0wxMzguMjcyLDUuNDYxTTE0MS4yNDQsMjEuOTc3TDE0MS4yNDQsNS40NjEiIHN0eWxlPSJmaWxsLXJ1bGU6bm9uemVybztzdHJva2U6cmdiKDU3LDc3LDg0KTtzdHJva2Utd2lkdGg6MS41NnB4OyIvPiYjeGE7ICAgICAgICAgICAgICAgIDxnIGlkPSJ1c2UyODUiIHNlcmlmOmlkPSJ1c2UyOCIgdHJhbnNmb3JtPSJtYXRyaXgoMSwwLDAsMSwwLDIyLjg2NikiPiYjeGE7ICAgICAgICAgICAgICAgICAgICA8cGF0aCBkPSJNMTI2LjI5MiwyMS45NzdMMTI2LjI5Miw1LjQ2MU0xMjkuMjY0LDIxLjk3N0wxMjkuMjY0LDUuNDYxTTEzMi4yNjYsMjEuOTc3TDEzMi4yNjYsNS40NjFNMTM1LjI2OSwyMS45NzdMMTM1LjI2OSw1LjQ2MU0xMzguMjcyLDIxLjk3N0wxMzguMjcyLDUuNDYxTTE0MS4yNDQsMjEuOTc3TDE0MS4yNDQsNS40NjEiIHN0eWxlPSJmaWxsLXJ1bGU6bm9uemVybztzdHJva2U6cmdiKDU3LDc3LDg0KTtzdHJva2Utd2lkdGg6MS41NnB4OyIvPiYjeGE7ICAgICAgICAgICAgICAgIDwvZz4mI3hhOyAgICAgICAgICAgIDwvZz4mI3hhOyAgICAgICAgPC9nPiYjeGE7ICAgICAgICA8Y2xpcFBhdGggaWQ9Il9jbGlwMSI+JiN4YTsgICAgICAgICAgICA8cGF0aCBpZD0icGF0aDM4IiBkPSJNNzYsMkw3Niw0OEw1NCw0OEw1NCw3MUwzNS41ODEsNzFDMzUuNTAzLDcxLjY2NiAzNS40MzksNzIuMzMzIDM1LjM3NSw3M0MzNC4yMjQsODUuNTMxIDM2LjQxMSw5Ny4wODggNDEuNDM4LDEwNi45NjlMNDMuMTI1LDExMEM0NC4xMzYsMTExLjgxNyA0NS4zMTYsMTEzLjUyMyA0Ni41NjMsMTE1LjE4OEM0Ny44MDcsMTE2Ljg1IDQ4LjI0OCwxMTcuNzcgNDkuMDMxLDExOC44NzVDNjIuMzIsMTMzLjgxMSA4Mi4xMjksMTQxIDEwNSwxNDFDMTU1LjY0OCwxNDEgMTk4LjYzMywxMTguNTYyIDIxNy42NTYsNjguMTU2QzIzMS4xNTMsNjkuNTQxIDI0NC4xLDY2LjA4IDI1MCw1NC41NjNDMjQwLjYwMSw0OS4xMzkgMjI4LjUyMiw1MC44NzcgMjIxLjU2Myw1NC4zNzVMMjQwLDJMMTY4LDQ4TDE0NSw0OEwxNDUsMkw3NiwyWiIvPiYjeGE7ICAgICAgICA8L2NsaXBQYXRoPiYjeGE7ICAgICAgICA8ZyBjbGlwLXBhdGg9InVybCgjX2NsaXAxKSI+JiN4YTsgICAgICAgICAgICA8cGF0aCBkPSJNMjIxLjU3LDU0LjM4QzIyMy4xMDMsNDIuNDY0IDIxNC4xODYsMzMuMTA1IDIwOC42NTYsMjguNjYxQzIwMi4yODMsMzYuMDI5IDIwMS4yOTMsNTUuMzM5IDIxMS4yOTEsNjMuNDY5QzIwNS43MTIsNjguNDI1IDE5My45NTQsNzIuOTE3IDE4MS45MTUsNzIuOTE3TDM0LDcyLjkxN0MzMi44MjksODUuNDg0IDM0LDE0NiAzNCwxNDZMMjUxLDE0NkwyNTAuMDEzLDU0LjU3NkMyNDAuNjE1LDQ5LjE1MiAyMjguNTI5LDUwLjg4MiAyMjEuNTcsNTQuMzc5IiBzdHlsZT0iZmlsbDpyZ2IoMjMsMTgxLDIzNSk7ZmlsbC1ydWxlOm5vbnplcm87Ii8+JiN4YTsgICAgICAgIDwvZz4mI3hhOyAgICAgICAgPGNsaXBQYXRoIGlkPSJfY2xpcDIiPiYjeGE7ICAgICAgICAgICAgPHBhdGggaWQ9InBhdGg0MCIgZD0iTTc2LDJMNzYsNDhMNTQsNDhMNTQsNzFMMzUuNTgxLDcxQzM1LjUwMyw3MS42NjYgMzUuNDM5LDcyLjMzMyAzNS4zNzUsNzNDMzQuMjI0LDg1LjUzMSAzNi40MTEsOTcuMDg4IDQxLjQzOCwxMDYuOTY5TDQzLjEyNSwxMTBDNDQuMTM2LDExMS44MTcgNDUuMzE2LDExMy41MjMgNDYuNTYzLDExNS4xODhDNDcuODA3LDExNi44NSA0OC4yNDgsMTE3Ljc3IDQ5LjAzMSwxMTguODc1QzYyLjMyLDEzMy44MTEgODIuMTI5LDE0MSAxMDUsMTQxQzE1NS42NDgsMTQxIDE5OC42MzMsMTE4LjU2MiAyMTcuNjU2LDY4LjE1NkMyMzEuMTUzLDY5LjU0MSAyNDQuMSw2Ni4wOCAyNTAsNTQuNTYzQzI0MC42MDEsNDkuMTM5IDIyOC41MjIsNTAuODc3IDIyMS41NjMsNTQuMzc1TDI0MCwyTDE2OCw0OEwxNDUsNDhMMTQ1LDJMNzYsMloiLz4mI3hhOyAgICAgICAgPC9jbGlwUGF0aD4mI3hhOyAgICAgICAgPGcgY2xpcC1wYXRoPSJ1cmwoI19jbGlwMikiPiYjeGE7ICAgICAgICAgICAgPHBhdGggZD0iTTM0LDg5TDM0LDE0NkwyNTEsMTQ2TDI1MSw4OSIgc3R5bGU9ImZpbGwtb3BhY2l0eTowLjE3O2ZpbGwtcnVsZTpub256ZXJvOyIvPiYjeGE7ICAgICAgICA8L2c+JiN4YTsgICAgICAgIDxjbGlwUGF0aCBpZD0iX2NsaXAzIj4mI3hhOyAgICAgICAgICAgIDxwYXRoIGlkPSJwYXRoNDIiIGQ9Ik03NiwyTDc2LDQ4TDU0LDQ4TDU0LDcxTDM1LjU4MSw3MUMzNS41MDMsNzEuNjY2IDM1LjQzOSw3Mi4zMzMgMzUuMzc1LDczQzM0LjIyNCw4NS41MzEgMzYuNDExLDk3LjA4OCA0MS40MzgsMTA2Ljk2OUw0My4xMjUsMTEwQzQ0LjEzNiwxMTEuODE3IDQ1LjMxNiwxMTMuNTIzIDQ2LjU2MywxMTUuMTg4QzQ3LjgwNywxMTYuODUgNDguMjQ4LDExNy43NyA0OS4wMzEsMTE4Ljg3NUM2Mi4zMiwxMzMuODExIDgyLjEyOSwxNDEgMTA1LDE0MUMxNTUuNjQ4LDE0MSAxOTguNjMzLDExOC41NjIgMjE3LjY1Niw2OC4xNTZDMjMxLjE1Myw2OS41NDEgMjQ0LjEsNjYuMDggMjUwLDU0LjU2M0MyNDAuNjAxLDQ5LjEzOSAyMjguNTIyLDUwLjg3NyAyMjEuNTYzLDU0LjM3NUwyNDAsMkwxNjgsNDhMMTQ1LDQ4TDE0NSwyTDc2LDJaIi8+JiN4YTsgICAgICAgIDwvY2xpcFBhdGg+JiN4YTsgICAgICAgIDxnIGNsaXAtcGF0aD0idXJsKCNfY2xpcDMpIj4mI3hhOyAgICAgICAgICAgIDxwYXRoIGQ9Ik0xMTEuMjM3LDE0MC44OUM5Ny42OTgsMTM0LjQ2NSA5MC4yNjYsMTI1LjczMSA4Ni4xMzEsMTE2LjE5Nkw0NSwxMThMNjYsMTQ2TDExMS4yMzcsMTQwLjg5IiBzdHlsZT0iZmlsbDpyZ2IoMjEyLDIzNywyNDEpO2ZpbGwtcnVsZTpub256ZXJvOyIvPiYjeGE7ICAgICAgICA8L2c+JiN4YTsgICAgICAgIDxjbGlwUGF0aCBpZD0iX2NsaXA0Ij4mI3hhOyAgICAgICAgICAgIDxwYXRoIGlkPSJwYXRoNDQiIGQ9Ik03NiwyTDc2LDQ4TDU0LDQ4TDU0LDcxTDM1LjU4MSw3MUMzNS41MDMsNzEuNjY2IDM1LjQzOSw3Mi4zMzMgMzUuMzc1LDczQzM0LjIyNCw4NS41MzEgMzYuNDExLDk3LjA4OCA0MS40MzgsMTA2Ljk2OUw0My4xMjUsMTEwQzQ0LjEzNiwxMTEuODE3IDQ1LjMxNiwxMTMuNTIzIDQ2LjU2MywxMTUuMTg4QzQ3LjgwNywxMTYuODUgNDguMjQ4LDExNy43NyA0OS4wMzEsMTE4Ljg3NUM2Mi4zMiwxMzMuODExIDgyLjEyOSwxNDEgMTA1LDE0MUMxNTUuNjQ4LDE0MSAxOTguNjMzLDExOC41NjIgMjE3LjY1Niw2OC4xNTZDMjMxLjE1Myw2OS41NDEgMjQ0LjEsNjYuMDggMjUwLDU0LjU2M0MyNDAuNjAxLDQ5LjEzOSAyMjguNTIyLDUwLjg3NyAyMjEuNTYzLDU0LjM3NUwyNDAsMkwxNjgsNDhMMTQ1LDQ4TDE0NSwyTDc2LDJaIi8+JiN4YTsgICAgICAgIDwvY2xpcFBhdGg+JiN4YTsgICAgICAgIDxnIGNsaXAtcGF0aD0idXJsKCNfY2xpcDQpIj4mI3hhOyAgICAgICAgICAgIDxwYXRoIGQ9Ik0yMjIuNSw1My45MzhMMjIyLjUsNTMuOTY5QzIwMS42MzksODAuODU4IDE3MS43MTcsMTA0LjM0NyAxMzkuNTk0LDExNi42ODhDMTEwLjkzOSwxMjcuNjk1IDg1Ljk1NSwxMjcuNzQ4IDY4LjcxOSwxMTguOTA2QzY2Ljg2MywxMTcuODU4IDY1LjA0MywxMTYuNjk1IDYzLjIxOSwxMTUuNTk0QzUwLjU4MiwxMDYuNzYyIDQzLjQ2NCw5Mi4xNTIgNDQuMDYzLDcyLjkwNkwzNCw3Mi45MDZMMzQsMTQ2TDI1MSwxNDZMMjUxLDUwTDIyNiw1MEwyMjIuNSw1My45MzhaIiBzdHlsZT0iZmlsbC1vcGFjaXR5OjAuMDg7ZmlsbC1ydWxlOm5vbnplcm87Ii8+JiN4YTsgICAgICAgIDwvZz4mI3hhOyAgICAgICAgPHBhdGggaWQ9InBhdGg0NiIgZD0iTTQ1LjYyNSwxMTcuMDMxQzU5Ljc5LDExNy44MDcgNzQuOTA3LDExNy45NDYgODguMDk0LDExMy44MTMiIHN0eWxlPSJmaWxsOm5vbmU7ZmlsbC1ydWxlOm5vbnplcm87c3Ryb2tlOnJnYig1Nyw3Nyw4NCk7c3Ryb2tlLXdpZHRoOjMuNHB4O3N0cm9rZS1saW5lY2FwOnJvdW5kOyIvPiYjeGE7ICAgICAgICA8cGF0aCBpZD0icGF0aDQ4IiBkPSJNMTAyLjE3LDEwNi45NTlDMTAyLjE3LDEwOS45NzggOTkuNzIzLDExMi40MjYgOTYuNzA0LDExMi40MjZDOTMuNjg0LDExMi40MjYgOTEuMjM2LDEwOS45NzggOTEuMjM2LDEwNi45NTlDOTEuMjM2LDEwMy45NCA5My42ODQsMTAxLjQ5MiA5Ni43MDQsMTAxLjQ5MkM5OS43MjMsMTAxLjQ5MiAxMDIuMTcsMTAzLjk0IDEwMi4xNywxMDYuOTU5WiIgc3R5bGU9ImZpbGw6cmdiKDIxMiwyMzcsMjQxKTtmaWxsLXJ1bGU6bm9uemVybzsiLz4mI3hhOyAgICAgICAgPHBhdGggaWQ9InBhdGg1MCIgZD0iTTk4LjEyMSwxMDMuMzA4Qzk3LjY0NCwxMDMuNTg0IDk3LjMyMSwxMDQuMSA5Ny4zMjEsMTA0LjY5MkM5Ny4zMjEsMTA1LjU3NCA5OC4wMzcsMTA2LjI4OSA5OC45MTksMTA2LjI4OUM5OS41MjQsMTA2LjI4OSAxMDAuMDQ5LDEwNS45NTMgMTAwLjMyMSwxMDUuNDU3QzEwMC41MTMsMTA1LjkxOSAxMDAuNjE5LDEwNi40MjcgMTAwLjYxOSwxMDYuOTU5QzEwMC42MTksMTA5LjEyMSA5OC44NjYsMTEwLjg3NCA5Ni43MDQsMTEwLjg3NEM5NC41NDIsMTEwLjg3NCA5Mi43ODgsMTA5LjEyMSA5Mi43ODgsMTA2Ljk1OUM5Mi43ODgsMTA0Ljc5NiA5NC41NDIsMTAzLjA0MyA5Ni43MDQsMTAzLjA0M0M5Ny4yMDQsMTAzLjA0MyA5Ny42ODEsMTAzLjEzNyA5OC4xMjEsMTAzLjMwOFoiIHN0eWxlPSJmaWxsOnJnYig1Nyw3Nyw4NCk7ZmlsbC1ydWxlOm5vbnplcm87Ii8+JiN4YTsgICAgICAgIDxwYXRoIGlkPSJwYXRoNTIiIGQ9Ik0wLDkwLjE2MkwyNTQuMzI3LDkwLjE2MkMyNDguNzksODguNzU4IDIzNi44MDYsODYuODYgMjM4Ljc4Myw3OS42MDNDMjI4LjcxNCw5MS4yNTQgMjA0LjQzLDg3Ljc3NyAxOTguMzAxLDgyLjAzMUMxOTEuNDc3LDkxLjkzIDE1MS43NDcsODguMTY3IDE0OC45NzYsODAuNDU2QzE0MC40Miw5MC40OTcgMTEzLjkwOSw5MC40OTcgMTA1LjM1Myw4MC40NTZDMTAyLjU4LDg4LjE2NyA2Mi44NTEsOTEuOTMgNTYuMDI2LDgyLjAzMUM0OS44OTgsODcuNzc3IDI1LjYxNiw5MS4yNTQgMTUuNTQ2LDc5LjYwM0MxNy41MjIsODYuODYgNS41MzksODguNzU4IDAsOTAuMTYyIiBzdHlsZT0iZmlsbDpyZ2IoNTcsNzcsODQpO2ZpbGwtcnVsZTpub256ZXJvOyIvPiYjeGE7ICAgIDwvZz4mI3hhOzwvc3ZnPg==;" parent="1" vertex="1">
          <mxGeometry x="544" y="803" width="33.19" height="19" as="geometry" />
        </mxCell>
        <mxCell id="3bYfwhAQWQakfrHlxa6V-5" value="" style="group" parent="1" vertex="1" connectable="0">
          <mxGeometry x="1142.5" y="466" width="97" height="20" as="geometry" />
        </mxCell>
        <mxCell id="3bYfwhAQWQakfrHlxa6V-28" value="" style="group" parent="3bYfwhAQWQakfrHlxa6V-5" vertex="1" connectable="0">
          <mxGeometry width="97" height="20" as="geometry" />
        </mxCell>
        <mxCell id="3bYfwhAQWQakfrHlxa6V-1" value="&lt;i style=&quot;color: rgb(179 , 179 , 179) ; font-size: 11px&quot;&gt;&lt;font style=&quot;font-size: 16px&quot;&gt;&lt;b&gt;&amp;nbsp; git clone &amp;nbsp;&lt;/b&gt;&lt;/font&gt;&lt;/i&gt;" style="text;html=1;strokeColor=none;fillColor=none;align=center;verticalAlign=middle;whiteSpace=wrap;rounded=0;labelBackgroundColor=none;" parent="3bYfwhAQWQakfrHlxa6V-28" vertex="1">
          <mxGeometry width="97" height="20" as="geometry" />
        </mxCell>
        <mxCell id="3bYfwhAQWQakfrHlxa6V-2" style="edgeStyle=orthogonalEdgeStyle;rounded=1;jumpStyle=arc;jumpSize=6;orthogonalLoop=1;jettySize=auto;html=1;endArrow=none;strokeWidth=4;entryX=0.5;entryY=0;entryDx=0;entryDy=0;sketch=0;shadow=0;shape=flexArrow;fillColor=#B3B3B3;strokeColor=none;exitX=0.5;exitY=1;exitDx=0;exitDy=0;endFill=0;" parent="3bYfwhAQWQakfrHlxa6V-28" source="xUTtplGJXiZXMpH6DIID-43" target="3bYfwhAQWQakfrHlxa6V-1" edge="1">
          <mxGeometry relative="1" as="geometry">
            <mxPoint x="1346" y="414" as="sourcePoint" />
            <mxPoint x="1300" y="608" as="targetPoint" />
          </mxGeometry>
        </mxCell>
        <mxCell id="xUTtplGJXiZXMpH6DIID-100" style="edgeStyle=orthogonalEdgeStyle;rounded=1;jumpStyle=arc;jumpSize=6;orthogonalLoop=1;jettySize=auto;html=1;exitX=0.5;exitY=1;exitDx=0;exitDy=0;endArrow=classic;strokeWidth=4;entryX=0.5;entryY=0;entryDx=0;entryDy=0;sketch=0;shadow=0;shape=flexArrow;fillColor=#B3B3B3;strokeColor=none;" parent="1" source="3bYfwhAQWQakfrHlxa6V-1" target="xUTtplGJXiZXMpH6DIID-97" edge="1">
          <mxGeometry relative="1" as="geometry">
            <mxPoint x="383.5" y="-106" as="sourcePoint" />
            <mxPoint x="38.5" y="855" as="targetPoint" />
          </mxGeometry>
        </mxCell>
        <mxCell id="3bYfwhAQWQakfrHlxa6V-9" value="" style="group" parent="1" vertex="1" connectable="0">
          <mxGeometry x="1161.5" y="476" width="97" height="20" as="geometry" />
        </mxCell>
        <mxCell id="3bYfwhAQWQakfrHlxa6V-10" value="&lt;i style=&quot;color: rgb(179 , 179 , 179) ; font-size: 11px&quot;&gt;&lt;font style=&quot;font-size: 16px&quot;&gt;&lt;b&gt;&amp;nbsp; git clone &amp;nbsp;&lt;/b&gt;&lt;/font&gt;&lt;/i&gt;" style="text;html=1;strokeColor=none;fillColor=none;align=center;verticalAlign=middle;whiteSpace=wrap;rounded=0;labelBackgroundColor=none;" parent="1" vertex="1">
          <mxGeometry x="1352.5" y="469" width="97" height="20" as="geometry" />
        </mxCell>
        <mxCell id="3bYfwhAQWQakfrHlxa6V-12" style="edgeStyle=orthogonalEdgeStyle;rounded=1;jumpStyle=arc;jumpSize=6;orthogonalLoop=1;jettySize=auto;html=1;exitX=0.5;exitY=1;exitDx=0;exitDy=0;endArrow=classic;strokeWidth=4;entryX=0.5;entryY=0;entryDx=0;entryDy=0;sketch=0;shadow=0;shape=flexArrow;fillColor=#B3B3B3;strokeColor=none;" parent="1" source="3bYfwhAQWQakfrHlxa6V-10" target="xUTtplGJXiZXMpH6DIID-108" edge="1">
          <mxGeometry relative="1" as="geometry">
            <mxPoint x="1454" y="486.0000000000002" as="sourcePoint" />
            <mxPoint x="1454" y="650" as="targetPoint" />
          </mxGeometry>
        </mxCell>
        <mxCell id="3bYfwhAQWQakfrHlxa6V-11" style="edgeStyle=orthogonalEdgeStyle;rounded=1;jumpStyle=arc;jumpSize=6;orthogonalLoop=1;jettySize=auto;html=1;endArrow=none;strokeWidth=4;entryX=0.5;entryY=0;entryDx=0;entryDy=0;sketch=0;shadow=0;shape=flexArrow;fillColor=#B3B3B3;strokeColor=none;endFill=0;exitX=0.5;exitY=1;exitDx=0;exitDy=0;" parent="1" source="xUTtplGJXiZXMpH6DIID-106" target="3bYfwhAQWQakfrHlxa6V-10" edge="1">
          <mxGeometry relative="1" as="geometry">
            <mxPoint x="1482" y="424" as="sourcePoint" />
            <mxPoint x="1310" y="618" as="targetPoint" />
          </mxGeometry>
        </mxCell>
        <mxCell id="3bYfwhAQWQakfrHlxa6V-13" value="&lt;i style=&quot;color: rgb(179 , 179 , 179) ; font-size: 11px&quot;&gt;&lt;font style=&quot;font-size: 16px&quot;&gt;&lt;b&gt;&amp;nbsp; git clone &amp;nbsp;&lt;/b&gt;&lt;/font&gt;&lt;/i&gt;" style="text;html=1;strokeColor=none;fillColor=none;align=center;verticalAlign=middle;whiteSpace=wrap;rounded=0;labelBackgroundColor=none;" parent="1" vertex="1">
          <mxGeometry x="961" y="266" width="97" height="20" as="geometry" />
        </mxCell>
        <mxCell id="3bYfwhAQWQakfrHlxa6V-14" style="edgeStyle=orthogonalEdgeStyle;rounded=1;jumpStyle=arc;jumpSize=6;orthogonalLoop=1;jettySize=auto;html=1;endArrow=none;strokeWidth=4;sketch=0;shadow=0;shape=flexArrow;fillColor=#B3B3B3;strokeColor=none;endFill=0;entryX=0.5;entryY=1;entryDx=0;entryDy=0;exitX=0;exitY=0.5;exitDx=0;exitDy=0;" parent="1" source="xUTtplGJXiZXMpH6DIID-43" target="3bYfwhAQWQakfrHlxa6V-13" edge="1">
          <mxGeometry relative="1" as="geometry">
            <mxPoint x="1078" y="352" as="sourcePoint" />
            <mxPoint x="995" y="391" as="targetPoint" />
          </mxGeometry>
        </mxCell>
        <mxCell id="3bYfwhAQWQakfrHlxa6V-15" style="edgeStyle=orthogonalEdgeStyle;rounded=1;jumpStyle=arc;jumpSize=6;orthogonalLoop=1;jettySize=auto;html=1;exitX=0.5;exitY=1;exitDx=0;exitDy=0;endArrow=classic;strokeWidth=4;sketch=0;shadow=0;shape=flexArrow;fillColor=#B3B3B3;strokeColor=none;" parent="1" source="3bYfwhAQWQakfrHlxa6V-17" target="xUTtplGJXiZXMpH6DIID-111" edge="1">
          <mxGeometry relative="1" as="geometry">
            <mxPoint x="1734" y="486.0000000000002" as="sourcePoint" />
            <mxPoint x="1760" y="650" as="targetPoint" />
          </mxGeometry>
        </mxCell>
        <mxCell id="3bYfwhAQWQakfrHlxa6V-16" style="edgeStyle=orthogonalEdgeStyle;rounded=1;jumpStyle=arc;jumpSize=6;orthogonalLoop=1;jettySize=auto;html=1;endArrow=none;strokeWidth=4;entryX=0.5;entryY=0;entryDx=0;entryDy=0;sketch=0;shadow=0;shape=flexArrow;fillColor=#B3B3B3;strokeColor=none;endFill=0;exitX=0.5;exitY=1;exitDx=0;exitDy=0;" parent="1" source="xUTtplGJXiZXMpH6DIID-109" target="3bYfwhAQWQakfrHlxa6V-17" edge="1">
          <mxGeometry relative="1" as="geometry">
            <mxPoint x="1820" y="432" as="sourcePoint" />
            <mxPoint x="1590" y="618" as="targetPoint" />
          </mxGeometry>
        </mxCell>
        <mxCell id="3bYfwhAQWQakfrHlxa6V-17" value="&lt;i style=&quot;color: rgb(179 , 179 , 179) ; font-size: 11px&quot;&gt;&lt;font style=&quot;font-size: 16px&quot;&gt;&lt;b&gt;&amp;nbsp; git clone &amp;nbsp;&lt;/b&gt;&lt;/font&gt;&lt;/i&gt;" style="text;html=1;strokeColor=none;fillColor=none;align=center;verticalAlign=middle;whiteSpace=wrap;rounded=0;labelBackgroundColor=none;" parent="1" vertex="1">
          <mxGeometry x="1563.5" y="469" width="97" height="20" as="geometry" />
        </mxCell>
        <mxCell id="3bYfwhAQWQakfrHlxa6V-21" value="" style="group" parent="1" vertex="1" connectable="0">
          <mxGeometry x="1146" y="185" width="97" height="250" as="geometry" />
        </mxCell>
        <mxCell id="3bYfwhAQWQakfrHlxa6V-20" value="&lt;i style=&quot;color: rgb(179 , 179 , 179) ; font-size: 11px&quot;&gt;&lt;font style=&quot;font-size: 16px&quot;&gt;&lt;b&gt;&amp;nbsp; git fork &amp;nbsp;&lt;/b&gt;&lt;/font&gt;&lt;/i&gt;" style="text;html=1;strokeColor=none;fillColor=none;align=center;verticalAlign=middle;whiteSpace=wrap;rounded=0;labelBackgroundColor=none;" parent="3bYfwhAQWQakfrHlxa6V-21" vertex="1">
          <mxGeometry x="-3.5" y="34" width="97" height="20" as="geometry" />
        </mxCell>
        <mxCell id="3bYfwhAQWQakfrHlxa6V-22" value="" style="group" parent="1" vertex="1" connectable="0">
          <mxGeometry x="461.5" y="891" width="97" height="236" as="geometry" />
        </mxCell>
        <mxCell id="3bYfwhAQWQakfrHlxa6V-25" value="&lt;i style=&quot;color: rgb(179 , 179 , 179) ; font-size: 11px&quot;&gt;&lt;font style=&quot;font-size: 16px&quot;&gt;&lt;b&gt;&amp;nbsp; git clone &amp;nbsp;&lt;/b&gt;&lt;/font&gt;&lt;/i&gt;" style="text;html=1;strokeColor=none;fillColor=none;align=center;verticalAlign=middle;whiteSpace=wrap;rounded=0;labelBackgroundColor=none;" parent="3bYfwhAQWQakfrHlxa6V-22" vertex="1">
          <mxGeometry y="54.995999999999995" width="97" height="18.88" as="geometry" />
        </mxCell>
        <mxCell id="3bYfwhAQWQakfrHlxa6V-24" style="edgeStyle=orthogonalEdgeStyle;rounded=1;jumpStyle=arc;jumpSize=6;orthogonalLoop=1;jettySize=auto;html=1;endArrow=none;strokeWidth=4;entryX=0.5;entryY=0;entryDx=0;entryDy=0;sketch=0;shadow=0;shape=flexArrow;fillColor=#B3B3B3;strokeColor=none;endFill=0;exitX=0.5;exitY=1;exitDx=0;exitDy=0;" parent="1" source="xUTtplGJXiZXMpH6DIID-9" target="3bYfwhAQWQakfrHlxa6V-25" edge="1">
          <mxGeometry relative="1" as="geometry">
            <mxPoint x="510" y="929" as="sourcePoint" />
            <mxPoint x="333.5" y="1149.792" as="targetPoint" />
          </mxGeometry>
        </mxCell>
        <mxCell id="3bYfwhAQWQakfrHlxa6V-23" style="edgeStyle=orthogonalEdgeStyle;rounded=1;jumpStyle=arc;jumpSize=6;orthogonalLoop=1;jettySize=auto;html=1;exitX=0.5;exitY=1;exitDx=0;exitDy=0;endArrow=classic;strokeWidth=4;sketch=0;shadow=0;shape=flexArrow;fillColor=#B3B3B3;strokeColor=none;entryX=0.505;entryY=-0.003;entryDx=0;entryDy=0;entryPerimeter=0;" parent="1" source="3bYfwhAQWQakfrHlxa6V-25" target="xUTtplGJXiZXMpH6DIID-85" edge="1">
          <mxGeometry relative="1" as="geometry">
            <mxPoint x="484" y="972.1840000000002" as="sourcePoint" />
            <mxPoint x="536" y="1011" as="targetPoint" />
          </mxGeometry>
        </mxCell>
        <mxCell id="3bYfwhAQWQakfrHlxa6V-19" style="edgeStyle=orthogonalEdgeStyle;rounded=1;jumpStyle=arc;jumpSize=6;orthogonalLoop=1;jettySize=auto;html=1;endArrow=none;strokeWidth=4;entryX=0.5;entryY=0;entryDx=0;entryDy=0;sketch=0;shadow=0;shape=flexArrow;fillColor=#B3B3B3;strokeColor=none;endFill=0;exitX=0.5;exitY=1;exitDx=0;exitDy=0;" parent="1" source="xUTtplGJXiZXMpH6DIID-61" target="3bYfwhAQWQakfrHlxa6V-20" edge="1">
          <mxGeometry relative="1" as="geometry">
            <mxPoint x="1194.5" y="185" as="sourcePoint" />
            <mxPoint x="1024.5" y="403" as="targetPoint" />
          </mxGeometry>
        </mxCell>
        <mxCell id="3bYfwhAQWQakfrHlxa6V-18" style="edgeStyle=orthogonalEdgeStyle;rounded=1;jumpStyle=arc;jumpSize=6;orthogonalLoop=1;jettySize=auto;html=1;exitX=0.5;exitY=1;exitDx=0;exitDy=0;endArrow=classic;strokeWidth=4;sketch=0;shadow=0;shape=flexArrow;fillColor=#B3B3B3;strokeColor=none;entryX=0.5;entryY=0;entryDx=0;entryDy=0;" parent="1" source="3bYfwhAQWQakfrHlxa6V-20" target="xUTtplGJXiZXMpH6DIID-43" edge="1">
          <mxGeometry relative="1" as="geometry">
            <mxPoint x="1168.5" y="271.0000000000002" as="sourcePoint" />
            <mxPoint x="1230" y="292" as="targetPoint" />
          </mxGeometry>
        </mxCell>
        <mxCell id="3bYfwhAQWQakfrHlxa6V-29" value="&lt;i style=&quot;font-size: 11px&quot;&gt;&lt;font style=&quot;font-size: 16px&quot;&gt;&lt;b&gt;Remote dev&lt;/b&gt;&lt;br&gt;(upload/download src code)&lt;/font&gt;&lt;/i&gt;" style="rounded=0;whiteSpace=wrap;html=1;labelBackgroundColor=#ffffff;dashed=1;strokeWidth=3;dashPattern=1 1;perimeterSpacing=1;arcSize=50;strokeColor=#FFFFFF;" parent="1" vertex="1">
          <mxGeometry x="1273" y="912" width="258" height="60" as="geometry" />
        </mxCell>
        <mxCell id="3bYfwhAQWQakfrHlxa6V-41" value="&lt;font size=&quot;3&quot;&gt;&lt;b&gt;&lt;i&gt;SSH&lt;/i&gt;&lt;/b&gt;&lt;/font&gt;" style="rounded=0;whiteSpace=wrap;html=1;labelBackgroundColor=#ffffff;dashed=1;strokeWidth=3;dashPattern=1 1;perimeterSpacing=0;strokeColor=#FFFFFF;arcSize=50;" parent="1" vertex="1">
          <mxGeometry x="974" y="619" width="53" height="28" as="geometry" />
        </mxCell>
      </root>
    </mxGraphModel>
  </diagram>
</mxfile>
